<svg id="Group_493" data-name="Group 493" xmlns="http://www.w3.org/2000/svg" xmlns:xlink="http://www.w3.org/1999/xlink" width="3815.677" height="4252.402" viewBox="0 0 3815.677 4252.402">
  <defs>
    <clipPath id="clip-path">
      <rect id="Rectangle_278" data-name="Rectangle 278" width="3815.677" height="4252.402" fill="none"/>
    </clipPath>
    <linearGradient id="linear-gradient" x1="0.088" y1="0.187" x2="0.595" y2="0.798" gradientUnits="objectBoundingBox">
      <stop offset="0" stop-color="#ef5488"/>
      <stop offset="1" stop-color="#6c245a"/>
    </linearGradient>
    <clipPath id="clip-path-3">
      <rect id="Rectangle_268" data-name="Rectangle 268" width="1169.125" height="706.75" fill="none"/>
    </clipPath>
    <clipPath id="clip-path-4">
      <rect id="Rectangle_269" data-name="Rectangle 269" width="384.955" height="100.349" fill="none"/>
    </clipPath>
    <clipPath id="clip-path-5">
      <rect id="Rectangle_270" data-name="Rectangle 270" width="114.175" height="106.648" fill="none"/>
    </clipPath>
    <clipPath id="clip-path-6">
      <rect id="Rectangle_271" data-name="Rectangle 271" width="40.344" height="39.578" fill="none"/>
    </clipPath>
    <clipPath id="clip-path-7">
      <rect id="Rectangle_272" data-name="Rectangle 272" width="67.9" height="433.874" fill="none"/>
    </clipPath>
    <clipPath id="clip-path-8">
      <rect id="Rectangle_273" data-name="Rectangle 273" width="170.516" height="41.382" fill="none"/>
    </clipPath>
    <clipPath id="clip-path-9">
      <rect id="Rectangle_274" data-name="Rectangle 274" width="378.184" height="378.789" fill="none"/>
    </clipPath>
    <clipPath id="clip-path-11">
      <rect id="Rectangle_276" data-name="Rectangle 276" width="504.409" height="472.073" fill="#6c245a"/>
    </clipPath>
  </defs>
  <g id="Group_492" data-name="Group 492" clip-path="url(#clip-path)">
    <g id="Group_491" data-name="Group 491">
      <g id="Group_490" data-name="Group 490" clip-path="url(#clip-path)">
        <path id="Path_1021" data-name="Path 1021" d="M1011.442,1485.1l-686.787-259.74a91.857,91.857,0,0,1-53.433-118.425l359.5-950.6A91.876,91.876,0,0,1,749.16,102.9l435.564,164.727,205.732,475.011L1129.875,1431.68a91.889,91.889,0,0,1-118.434,53.423" transform="translate(2239.745 818.479)" fill="#f5f5f5"/>
        <path id="Path_1022" data-name="Path 1022" d="M458.045,115.008,356.865,382.549A85.454,85.454,0,0,0,406.548,492.7l257.229,97.327Z" transform="translate(2966.416 971.098)" fill="#ebebeb"/>
        <path id="Path_1023" data-name="Path 1023" d="M356.6,145.965s-27.925,63.6,37.879,112.872a88.909,88.909,0,0,0,7.734,5.109c31.325,18.708,237.567,141.666,239.484,136.585,2.078-5.5,27.189-71.9,27.189-71.9l-257.248-97.28s-63.4-26.49-55.038-85.39" transform="translate(2961.319 1232.49)" fill="#e0e0e0"/>
        <path id="Path_1024" data-name="Path 1024" d="M630.348,247.6c-1.3,3.447-73.491-20.672-161.214-53.848-87.761-33.185-157.824-62.867-156.521-66.314,1.294-3.428,73.473,20.682,161.224,53.858,87.732,33.176,157.814,62.876,156.511,66.3" transform="translate(2639.472 1073.34)" fill="#e0e0e0"/>
        <path id="Path_1025" data-name="Path 1025" d="M829.487,341.118c-1.3,3.438-119.426-38.049-263.811-92.652C421.244,193.843,305.246,146.785,306.55,143.347s119.4,38.039,263.83,92.662c144.395,54.6,260.411,101.671,259.108,105.109" transform="translate(2588.334 1208.704)" fill="#e0e0e0"/>
        <path id="Path_1026" data-name="Path 1026" d="M871.532,372.289c-1.3,3.438-129.974-42.043-287.354-101.558C426.733,211.188,300.2,160.145,301.49,156.707s129.946,42.025,287.392,101.567C746.271,317.8,872.827,368.851,871.532,372.289" transform="translate(2545.618 1321.654)" fill="#e0e0e0"/>
        <path id="Path_1027" data-name="Path 1027" d="M866.751,384.908c-1.3,3.438-129.974-42.034-287.354-101.558C421.951,223.807,295.415,172.764,296.718,169.326S426.654,211.351,584.1,270.9c157.389,59.514,283.954,110.567,282.651,114" transform="translate(2505.324 1428.205)" fill="#e0e0e0"/>
        <path id="Path_1028" data-name="Path 1028" d="M861.979,397.527c-1.3,3.438-129.974-42.034-287.364-101.558-157.437-59.543-283.973-110.586-282.67-114.024S421.882,223.97,579.328,283.513c157.389,59.524,283.954,110.577,282.651,114.014" transform="translate(2465.031 1534.757)" fill="#e0e0e0"/>
        <path id="Path_1029" data-name="Path 1029" d="M857.215,410.147c-1.3,3.438-129.974-42.043-287.354-101.558C412.415,249.046,285.878,198,287.172,194.565S417.118,236.59,574.563,296.133c157.389,59.524,283.954,110.577,282.651,114.014" transform="translate(2424.721 1641.317)" fill="#e0e0e0"/>
        <path id="Path_1030" data-name="Path 1030" d="M1441.257,1553.13l-905.39,317.045a60.087,60.087,0,0,1-76.57-36.859L5.034,536.077a60.075,60.075,0,0,1,36.849-76.57l905.39-317.045a60.075,60.075,0,0,1,76.57,36.85L1478.106,1476.56a60.078,60.078,0,0,1-36.849,76.57" transform="translate(13.834 1174.241)" fill="#ebebeb"/>
        <rect id="Rectangle_263" data-name="Rectangle 263" width="927.992" height="1362.374" transform="matrix(0.944, -0.33, 0.33, 0.944, 96.922, 1704.037)" fill="#e0e0e0"/>
        <rect id="Rectangle_264" data-name="Rectangle 264" width="927.986" height="1336.354" transform="matrix(0.944, -0.33, 0.33, 0.944, 81.255, 1697.957)" fill="#fafafa"/>
        <path id="Path_1031" data-name="Path 1031" d="M1327.68,1410.015c-3.7-10.539-181.546-516.884-442.845-1260.853l1.6.774C620.807,243,323.612,347.1,10.732,456.717l-.1.038.84-1.757c165.086,473.764,318.745,911.274,441.419,1261.353l-1.417-.68c532.731-185.844,867.615-302.663,876.209-305.656-8.575,3.012-343.2,120.634-875.472,307.743l-1.048.368-.368-1.048C328.126,1367.027,174.817,929.48,8.871,455.9l-.453-1.294,1.3-.463.1-.028C322.734,344.591,619.947,240.55,885.6,147.567l1.19-.416.416,1.19c259.9,744.45,436.792,1251.135,440.475,1261.674" transform="translate(71.079 1242.505)" fill="#e0e0e0"/>
        <path id="Path_1032" data-name="Path 1032" d="M115.217,592.655s195.051-164.491,228.85-335.819c0,0-54.15,84.89-166.748,100.4,0,0-3.9,179.865-62.1,235.423" transform="translate(972.862 2168.656)" fill="#e0e0e0"/>
        <path id="Path_1033" data-name="Path 1033" d="M138.366,318.249,92.242,334.4a32.282,32.282,0,0,1-41.137-19.8L34.957,268.481a32.287,32.287,0,0,1,19.794-41.146l46.123-16.149a32.3,32.3,0,0,1,41.146,19.8L158.169,277.1a32.289,32.289,0,0,1-19.8,41.146" transform="translate(279.765 1767.807)" fill="#ebebeb"/>
        <path id="Path_1034" data-name="Path 1034" d="M61.74,267.556l-.085.028a2.673,2.673,0,0,1-2.115-.236L38.414,255.1a2.645,2.645,0,0,1,2.663-4.571l18.614,10.794,22.316-47.71a2.638,2.638,0,1,1,4.779,2.238L63.26,266.177a2.634,2.634,0,0,1-1.52,1.379" transform="translate(313.271 1790.84)" fill="#fff"/>
        <path id="Path_1035" data-name="Path 1035" d="M558.839,188.9c.255.718-113.495,41.2-254.027,90.414C164.232,328.531,50.1,367.845,49.859,367.127s113.467-41.194,254.046-90.414C444.438,227.5,558.584,188.178,558.839,188.9" transform="translate(420.996 1594.904)" fill="#e0e0e0"/>
        <path id="Path_1036" data-name="Path 1036" d="M267.211,208.12c.066.179-2.88,1.4-8.254,3.456-5.827,2.163-13.523,5.015-22.835,8.462-19.312,7.026-46.067,16.555-75.673,26.924s-56.474,19.615-75.965,26.178c-9.425,3.107-17.216,5.676-23.118,7.63-5.477,1.747-8.537,2.625-8.6,2.446s2.88-1.407,8.244-3.456L83.842,271.3c19.322-7.026,46.076-16.564,75.692-26.933S216,224.76,235.48,218.2c9.425-3.107,17.225-5.685,23.128-7.631,5.477-1.747,8.537-2.625,8.6-2.446" transform="translate(445.508 1757.122)" fill="#e0e0e0"/>
        <path id="Path_1037" data-name="Path 1037" d="M560.126,192.57c.255.718-113.495,41.2-254.018,90.414C165.529,332.2,51.4,371.519,51.146,370.8s113.467-41.194,254.046-90.414c140.532-49.211,254.679-88.535,254.934-87.817" transform="translate(431.863 1625.926)" fill="#e0e0e0"/>
        <path id="Path_1038" data-name="Path 1038" d="M145.338,338.149,99.215,354.3A32.277,32.277,0,0,1,58.078,334.5L41.919,288.381a32.3,32.3,0,0,1,19.8-41.146l46.123-16.149a32.292,32.292,0,0,1,41.146,19.8l16.149,46.123a32.282,32.282,0,0,1-19.8,41.137" transform="translate(338.597 1935.837)" fill="#ebebeb"/>
        <path id="Path_1039" data-name="Path 1039" d="M68.708,287.453l-.085.028a2.674,2.674,0,0,1-2.115-.236L45.382,275a2.645,2.645,0,0,1,2.663-4.571L66.659,281.22l22.316-47.71a2.643,2.643,0,0,1,4.788,2.238L70.228,286.074a2.634,2.634,0,0,1-1.52,1.379" transform="translate(372.107 1958.863)" fill="#fff"/>
        <path id="Path_1040" data-name="Path 1040" d="M565.807,208.795c.255.718-113.495,41.2-254.027,90.414C171.2,348.43,57.082,387.744,56.827,387.026S170.294,345.833,310.873,296.6c140.532-49.2,254.679-88.526,254.934-87.808" transform="translate(479.832 1762.926)" fill="#e0e0e0"/>
        <path id="Path_1041" data-name="Path 1041" d="M274.18,228.02c.066.179-2.88,1.4-8.254,3.456-5.827,2.163-13.523,5.015-22.835,8.462-19.312,7.026-46.067,16.564-75.673,26.924s-56.474,19.615-75.956,26.178c-9.425,3.107-17.225,5.676-23.128,7.631-5.477,1.747-8.537,2.625-8.6,2.446s2.88-1.407,8.244-3.457L90.811,291.2c19.322-7.026,46.076-16.564,75.692-26.933s56.464-19.605,75.947-26.169c9.434-3.107,17.225-5.685,23.128-7.631,5.477-1.747,8.537-2.625,8.6-2.446" transform="translate(504.352 1925.144)" fill="#e0e0e0"/>
        <path id="Path_1042" data-name="Path 1042" d="M567.094,212.469c.255.718-113.495,41.2-254.018,90.414C172.487,352.1,58.369,391.419,58.114,390.7s113.467-41.194,254.046-90.424c140.532-49.2,254.679-88.526,254.934-87.808" transform="translate(490.699 1793.957)" fill="#e0e0e0"/>
        <path id="Path_1043" data-name="Path 1043" d="M152.309,358.048,106.186,374.2a32.282,32.282,0,0,1-41.137-19.8L48.891,308.28a32.292,32.292,0,0,1,19.8-41.146l46.123-16.149a32.282,32.282,0,0,1,41.137,19.8l16.158,46.123a32.282,32.282,0,0,1-19.8,41.137" transform="translate(397.43 2103.859)" fill="#ebebeb"/>
        <path id="Path_1044" data-name="Path 1044" d="M75.677,307.354l-.085.028a2.673,2.673,0,0,1-2.115-.236L52.351,294.9A2.643,2.643,0,0,1,55,290.326l18.623,10.794,22.306-47.71a2.643,2.643,0,0,1,4.788,2.238L77.2,305.975a2.633,2.633,0,0,1-1.52,1.379" transform="translate(430.951 2126.893)" fill="#fff"/>
        <path id="Path_1045" data-name="Path 1045" d="M572.775,228.693c.255.718-113.495,41.2-254.027,90.415C178.168,368.329,64.041,407.643,63.8,406.925s113.466-41.194,254.046-90.414C458.374,267.3,572.52,227.976,572.775,228.693" transform="translate(538.668 1930.948)" fill="#e0e0e0"/>
        <path id="Path_1046" data-name="Path 1046" d="M281.148,247.918c.066.179-2.88,1.4-8.254,3.457-5.827,2.162-13.523,5.014-22.835,8.461-19.322,7.026-46.067,16.564-75.673,26.924s-56.474,19.615-75.965,26.178c-9.425,3.107-17.216,5.676-23.118,7.63-5.477,1.747-8.537,2.625-8.6,2.446s2.88-1.407,8.244-3.457L97.779,311.1c19.322-7.026,46.076-16.564,75.692-26.934s56.464-19.605,75.947-26.169c9.425-3.107,17.225-5.685,23.128-7.631,5.477-1.747,8.537-2.625,8.6-2.446" transform="translate(563.188 2093.166)" fill="#e0e0e0"/>
        <path id="Path_1047" data-name="Path 1047" d="M574.062,232.369c.255.718-113.495,41.2-254.027,90.414C179.456,372,65.328,411.318,65.082,410.6s113.466-41.194,254.046-90.414c140.532-49.211,254.679-88.535,254.934-87.817" transform="translate(549.535 1961.979)" fill="#e0e0e0"/>
        <path id="Path_1048" data-name="Path 1048" d="M159.27,377.947,113.146,394.1A32.277,32.277,0,0,1,72.009,374.3L55.861,328.179a32.288,32.288,0,0,1,19.794-41.147l46.123-16.149a32.282,32.282,0,0,1,41.137,19.8l16.158,46.123a32.282,32.282,0,0,1-19.8,41.137" transform="translate(456.273 2271.881)" fill="#ebebeb"/>
        <path id="Path_1049" data-name="Path 1049" d="M82.645,327.254l-.085.029a2.675,2.675,0,0,1-2.115-.236L59.319,314.8a2.643,2.643,0,0,1,2.654-4.571L80.6,321.021l22.306-47.71a2.643,2.643,0,1,1,4.788,2.238L84.165,325.885a2.648,2.648,0,0,1-1.52,1.369" transform="translate(489.787 2294.914)" fill="#fff"/>
        <path id="Path_1050" data-name="Path 1050" d="M579.744,248.594c.255.718-113.495,41.2-254.018,90.414C185.137,388.229,71.019,427.543,70.764,426.825s113.467-41.194,254.046-90.415c140.532-49.211,254.679-88.535,254.934-87.817" transform="translate(597.512 2098.979)" fill="#e0e0e0"/>
        <path id="Path_1051" data-name="Path 1051" d="M288.116,267.819c.066.179-2.88,1.4-8.254,3.456-5.827,2.163-13.523,5.015-22.835,8.462-19.312,7.026-46.067,16.564-75.673,26.924s-56.474,19.615-75.965,26.178c-9.425,3.107-17.216,5.676-23.118,7.63-5.477,1.747-8.537,2.625-8.6,2.446s2.88-1.407,8.244-3.457L104.747,331c19.322-7.026,46.076-16.564,75.692-26.934s56.464-19.6,75.947-26.168c9.425-3.107,17.225-5.685,23.128-7.63,5.477-1.747,8.537-2.625,8.6-2.446" transform="translate(622.024 2261.196)" fill="#e0e0e0"/>
        <path id="Path_1052" data-name="Path 1052" d="M581.039,252.267c.246.718-113.5,41.2-254.027,90.415C186.424,391.911,72.305,431.216,72.05,430.5S185.517,389.3,326.1,340.093c140.532-49.211,254.688-88.535,254.943-87.827" transform="translate(608.371 2130.002)" fill="#e0e0e0"/>
        <path id="Path_1053" data-name="Path 1053" d="M19.107,361.786l23.118,66.021a73.5,73.5,0,0,0,93.663,45.075L620.324,303.244A73.487,73.487,0,0,0,665.4,209.59l-23.071-65.9Z" transform="translate(161.335 1213.298)" fill="#e0e0e0"/>
        <path id="Path_1054" data-name="Path 1054" d="M134.768,277.08a68.911,68.911,0,1,1,42.27-87.818,69,69,0,0,1-42.27,87.818M97.956,171.943A42.486,42.486,0,1,0,152.088,198a42.537,42.537,0,0,0-54.132-26.055" transform="translate(363.729 1208.505)" fill="#e0e0e0"/>
        <path id="Path_1055" data-name="Path 1055" d="M605.362,175.469c.434,1.256-127.292,47.124-285.267,102.446C162.064,333.245,33.648,377.073,33.2,375.827S160.477,328.7,318.5,273.372c157.975-55.321,286.419-99.159,286.863-97.9" transform="translate(280.356 1481.388)" fill="#e0e0e0"/>
        <path id="Path_1056" data-name="Path 1056" d="M302.465,177.986c.434,1.256-55.794,22.089-125.583,46.529C107.074,248.956,50.147,267.749,49.7,266.493s55.784-22.079,125.592-46.529c69.789-24.431,126.726-43.234,127.169-41.978" transform="translate(419.66 1502.367)" fill="#e0e0e0"/>
        <path id="Path_1057" data-name="Path 1057" d="M379.338,395.492c33.913-17.5,73.86-19.775,111.512-13.552,20.229,3.343,41.316,9.4,55.085,24.592s16.376,41.939.567,54.991c-9.406,7.772-22.532,8.953-34.734,8.82-29.474-.349-62.187-5.544-85.73,12.2-13.438,10.115-22.382,26.934-38.446,31.91-15.714,4.873-33.45-4.4-41.789-18.585s-8.6-31.92-4.722-47.9c0,0,4.089-34.847,38.256-52.479" transform="translate(2859.619 3198.464)" fill="url(#linear-gradient)"/>
        <path id="Path_1058" data-name="Path 1058" d="M352.26,639.743C373,669.368,413.3,659.556,432,641.481s26.584-44.291,33.771-69.279c16.432-57.1,33-116.989,20.786-175.134-3.655-17.386-10.152-34.725-22.373-47.615s-30.994-20.568-48.172-16.035c-20.323,5.374-32.949,25.281-42.082,44.216A417.555,417.555,0,0,0,332.674,556.8c-.094,28.851,3.305,59.118,19.586,82.944" transform="translate(2808.994 2804.209)" fill="url(#linear-gradient)"/>
        <path id="Path_1059" data-name="Path 1059" d="M542.277,597.023c22.523-26.716,26.792-65.71,16.772-99.187s-32.657-61.951-58.75-85.22a316.52,316.52,0,0,0-105.194-62.064c-15.214-5.345-31.259-9.566-47.313-8.037s-32.213,9.737-39.7,24.025c-11.068,21.107-.453,46.718,11.03,67.627a800.3,800.3,0,0,0,69.09,105.2c20.71,26.716,44.433,53.036,75.994,65.105s64.35,10.662,81.084-11.229" transform="translate(2562.021 2889.426)" fill="url(#linear-gradient)"/>
        <path id="Path_1060" data-name="Path 1060" d="M334.938,655.544c.387.019,1.02-4.779,1.879-13.457.954-9.8,2.153-22.1,3.57-36.736a531.988,531.988,0,0,1,8.263-53.876,416.637,416.637,0,0,1,19.586-63.594c8.906-21.834,19.775-41.675,32.477-57.541,12.6-15.941,27.264-27.472,41.052-34.129a114.758,114.758,0,0,1,34.573-10.766c8.584-.878,13.391-1.558,13.4-1.945s-4.816-.444-13.637-.208a104.7,104.7,0,0,0-36.057,9.387c-14.524,6.44-30.078,18.151-43.309,34.422-13.325,16.206-24.592,36.481-33.657,58.7a388.365,388.365,0,0,0-19.445,64.633,456.088,456.088,0,0,0-7.158,54.557c-1.171,15.6-1.606,28.227-1.823,36.963-.2,8.735-.094,13.571.283,13.59" transform="translate(2824.908 3235.239)" fill="#263238"/>
        <path id="Path_1061" data-name="Path 1061" d="M337.466,951.894c.189-.009.312-2.163.359-6.252-.01-4.684-.029-10.6-.047-17.858-.038-15.5-.029-37.926.793-65.625,1.379-55.4,6.148-115.015,15.356-199.065,8.726-79.034,20.436-171.017,32.789-230.814,2.654-13.6,5.317-25.838,7.838-36.557,2.389-10.738,4.438-20,6.412-27.491,1.691-7.054,3.079-12.806,4.174-17.367.888-3.985,1.275-6.1,1.086-6.157s-.925,1.964-2.163,5.855c-1.369,4.5-3.079,10.161-5.185,17.112-2.3,7.423-4.665,16.63-7.347,27.321-2.8,10.672-5.751,22.882-8.65,36.463C370.651,485.647,357.7,561.386,348.4,645.634c-9.227,84.229-13.382,160.921-13.75,216.451-.33,27.774.255,50.25.963,65.757.444,7.253.8,13.165,1.1,17.849.312,4.08.567,6.214.755,6.2" transform="translate(2824.912 2910.624)" fill="#263238"/>
        <path id="Path_1062" data-name="Path 1062" d="M511.822,763.542c.387-.01.321-6.639-.132-18.661-.689-11.984-2.333-29.313-5.713-50.543A666.457,666.457,0,0,0,489.545,620.7c-3.409-12.494-11.417-42.421-30.8-87.147C433.2,472.958,398.5,423.416,368.306,392.733c-7.083-8.15-14.968-14.024-21.277-19.785-3.268-2.758-6.148-5.506-9.085-7.687q-4.434-3.06-8.254-5.695c-9.944-6.79-15.507-10.379-15.714-10.048-.888,1.209,22.259,14.827,51.487,45.925,29.115,31.032,62.848,80.225,88.186,140.315A688.5,688.5,0,0,1,484.615,622.1a749.122,749.122,0,0,1,17.49,72.906c3.853,21.012,6.091,38.171,7.432,50.052,1.1,11.9,1.908,18.491,2.285,18.481" transform="translate(2650.924 2951.068)" fill="#263238"/>
        <path id="Path_1063" data-name="Path 1063" d="M319.765,420.97l14.817,203.06H595.447l14.817-203.06Z" transform="translate(2700.016 3554.559)" fill="#263238"/>
        <rect id="Rectangle_265" data-name="Rectangle 265" width="346.821" height="80.036" transform="translate(2994.581 3895.495)" fill="#263238"/>
        <path id="Path_1064" data-name="Path 1064" d="M317.1,441.648v22.184H658.186V441.648Z" transform="translate(2677.487 3729.166)" fill="#455a64"/>
        <path id="Path_1065" data-name="Path 1065" d="M334.8,483.047,318.822,444H631.2l-18.642,39.05Z" transform="translate(2692.053 3748.999)" fill="#455a64"/>
        <path id="Path_1066" data-name="Path 1066" d="M601.492,453.505a8.687,8.687,0,0,1-1.218,1.86c-1.029,1.379-2.314,3.078-3.891,5.175-3.711,4.741-8.8,11.257-15.2,19.445l-.671.869-.652-.906c-9.557-13.212-22.316-30.862-37.34-51.638h2.153c-11.106,15.724-23.477,33.242-36.755,52.044l-1.152,1.634-1.294-1.53c-13.561-16.139-28.293-33.667-43.592-51.865l2.512-.038c-.756.954-1.577,1.983-2.4,3.013-13.514,16.951-26.6,33.355-38.974,48.871l-1.3,1.624-1.2-1.69c-13.231-18.727-25.593-36.217-36.774-52.035l2.135.1c-18.123,20.644-33.488,38.162-45.283,51.6l-.812.916-.6-1.029C333.2,469.89,328.436,461.9,324.989,456.1c-1.482-2.588-2.682-4.675-3.636-6.346a10.269,10.269,0,0,1-1.115-2.267,10.4,10.4,0,0,1,1.521,2.011c1.058,1.606,2.38,3.617,4.023,6.11,3.626,5.685,8.622,13.542,14.893,23.392l-1.417-.113c11.606-13.608,26.726-31.334,44.555-52.233l1.124-1.322,1.02,1.426,37.1,51.8-2.493-.075c12.343-15.535,25.395-31.958,38.88-48.937.822-1.029,1.643-2.059,2.4-3.012l1.237-1.558,1.275,1.53c15.261,18.226,29.946,35.792,43.479,51.969l-2.446.094c13.419-18.708,25.913-36.141,37.123-51.79l1.086-1.511,1.067,1.511c14.7,21,27.2,38.842,36.547,52.2l-1.332-.038c6.658-7.98,11.956-14.336,15.809-18.954,1.719-1.983,3.107-3.6,4.231-4.9a8.8,8.8,0,0,1,1.568-1.577" transform="translate(2703.949 3588.387)" fill="#e0e0e0"/>
        <path id="Path_1067" data-name="Path 1067" d="M611.958,422.28c0,.9-65.36,1.625-145.972,1.625-80.64,0-145.991-.727-145.991-1.625s65.351-1.624,145.991-1.624c80.612,0,145.972.727,145.972,1.624" transform="translate(2701.954 3551.91)" fill="#455a64"/>
        <path id="Path_1068" data-name="Path 1068" d="M636.017,445.681c0,.9-71.036,1.625-158.646,1.625-87.638,0-158.664-.727-158.664-1.625s71.026-1.624,158.664-1.624c87.61,0,158.646.727,158.646,1.624" transform="translate(2691.079 3749.502)" fill="#263238"/>
        <path id="Path_1069" data-name="Path 1069" d="M101.363,392.944c-.727.888-6.667-2.691-13.306-8S76.63,374.614,77.338,373.717c.727-.887,6.667,2.692,13.306,8,6.62,5.317,11.427,10.341,10.719,11.229" transform="translate(652.436 3154.427)" fill="#263238"/>
        <path id="Path_1070" data-name="Path 1070" d="M272.992,460.986c1.1-25.262,1.8-51.176-6.167-75.172s-26.48-46.067-51.242-51.195c-28.265-5.855-57.22,11.994-73.057,36.113s-21.277,53.423-25.961,81.906a2892.554,2892.554,0,0,0-35.452,594.5l115.648,16.225c50.8-207.536,67-388.922,76.23-602.378" transform="translate(661.711 2815.982)" fill="#455a64"/>
        <path id="Path_1071" data-name="Path 1071" d="M167.25,333.525a6.722,6.722,0,0,1-.519,1.842c-.519,1.417-1.143,3.135-1.917,5.25q-2.819,7.324-7.706,19.974c-1.605,4.354-3.749,9.066-5.477,14.449q-2.592,8.117-5.61,17.518-3.046,9.435-6.488,20.115-2.833,10.865-5.969,22.929c-8.726,32.052-15.96,71.007-22.334,114.448-6.261,43.489-10.36,91.661-13.59,142.27C91.728,793.652,90.8,885.625,88.2,952.137c-1.237,33.251-2.38,60.166-3.645,78.732q-.921,13.529-1.454,21.39c-.189,2.229-.349,4.051-.482,5.553a6.859,6.859,0,0,1-.3,1.879,6.3,6.3,0,0,1-.123-1.907c.019-1.5.047-3.334.076-5.572q.241-7.862.671-21.418c.784-18.585,1.473-45.491,2.333-78.751,1.86-66.5,2.323-158.476,8.244-259.968,3.23-50.694,7.461-98.97,13.948-142.563,6.6-43.545,14.156-82.585,23.279-114.656q3.3-12.041,6.28-22.939,3.6-10.638,6.809-20.087,3.187-9.364,5.95-17.461c1.842-5.354,4.1-10.048,5.836-14.364q5.34-12.48,8.433-19.728c.925-2.04,1.681-3.711,2.295-5.081a6.638,6.638,0,0,1,.907-1.672" transform="translate(693.991 2816.189)" fill="#263238"/>
        <path id="Path_1072" data-name="Path 1072" d="M116.551,333.53s7.092,7.281,14.128,23.921c7.281,16.517,11.842,42.771,10.549,74.813-3.079,63.906-8.792,151.959-16.4,249.183-7.649,97.242-16.12,185.135-22.948,248.673-3.409,31.769-6.365,57.456-8.537,75.191q-1.657,12.876-2.625,20.417c-.312,2.115-.576,3.853-.784,5.288a6.123,6.123,0,0,1-.415,1.794,6.712,6.712,0,0,1-.009-1.842c.1-1.445.227-3.2.378-5.336q.68-7.564,1.851-20.493c1.747-18.16,4.212-43.8,7.234-75.314,6.082-63.594,14.09-151.5,21.74-248.7,7.6-97.157,13.788-185.258,17.6-248.956,1.643-31.816-2.408-57.645-9.123-74.115-6.469-16.593-13.146-24.223-12.636-24.525" transform="translate(755.399 2816.24)" fill="#263238"/>
        <path id="Path_1073" data-name="Path 1073" d="M138.778,379.056c-.387,1.077-10.2-1.464-21.919-5.666s-20.908-8.48-20.521-9.557,10.19,1.464,21.919,5.667,20.908,8.48,20.521,9.557" transform="translate(813.35 3070.024)" fill="#263238"/>
        <path id="Path_1074" data-name="Path 1074" d="M141.111,352.907c.453,1.039-8.877,6.233-20.852,11.6-11.994,5.355-22.079,8.858-22.542,7.819s8.868-6.233,20.852-11.6,22.07-8.858,22.542-7.819" transform="translate(824.955 2978.315)" fill="#263238"/>
        <path id="Path_1075" data-name="Path 1075" d="M132.107,345.735c-.076,1.133-7.8,1.53-17.244.878s-17.037-2.1-16.952-3.239,7.791-1.53,17.235-.878,17.036,2.106,16.961,3.24" transform="translate(826.734 2889.294)" fill="#263238"/>
        <path id="Path_1076" data-name="Path 1076" d="M106.136,363.239c-.963.6-6.035-5.7-11.314-14.09s-8.773-15.686-7.81-16.3,6.035,5.7,11.314,14.1,8.773,15.686,7.81,16.291" transform="translate(733.365 2810.15)" fill="#263238"/>
        <path id="Path_1077" data-name="Path 1077" d="M114.01,344.377c-.028,1.143-7.376,1.908-16.423,1.719s-16.366-1.275-16.338-2.418,7.376-1.908,16.423-1.719,16.366,1.275,16.338,2.418" transform="translate(686.054 2887.176)" fill="#263238"/>
        <path id="Path_1078" data-name="Path 1078" d="M111.265,366.663c-.425,1.058-8.169-1.067-17.282-4.741S77.815,354.4,78.24,353.347s8.169,1.067,17.291,4.74,16.158,7.518,15.733,8.575" transform="translate(660.487 2981.275)" fill="#263238"/>
        <path id="Path_1079" data-name="Path 1079" d="M108.476,365.4c.236,1.115-6.356,3.447-14.713,5.194s-15.327,2.276-15.563,1.161,6.356-3.447,14.713-5.2,15.327-2.266,15.563-1.152" transform="translate(660.244 3080.41)" fill="#263238"/>
        <path id="Path_1080" data-name="Path 1080" d="M108.584,382.411c.2,1.124-6.79,3.315-15.62,4.9s-16.149,1.955-16.357.831,6.8-3.315,15.629-4.9,16.149-1.955,16.347-.831" transform="translate(646.82 3223.511)" fill="#263238"/>
        <path id="Path_1081" data-name="Path 1081" d="M104.1,391.39c.538,1.01-5.3,5.137-13.023,9.227s-14.43,6.583-14.959,5.572,5.3-5.137,13.023-9.227,14.421-6.582,14.959-5.572" transform="translate(642.453 3302.906)" fill="#263238"/>
        <path id="Path_1082" data-name="Path 1082" d="M103.944,431.7c-.992.567-6.072-6.45-11.351-15.667s-8.764-17.159-7.772-17.726,6.072,6.45,11.361,15.667,8.754,17.16,7.763,17.726" transform="translate(714.781 3362.91)" fill="#263238"/>
        <path id="Path_1083" data-name="Path 1083" d="M114.163,384.231c.8.812-4.863,7.659-12.645,15.289s-14.732,13.155-15.535,12.343,4.864-7.659,12.645-15.289,14.732-13.155,15.535-12.343" transform="translate(725.376 3243.676)" fill="#263238"/>
        <path id="Path_1084" data-name="Path 1084" d="M106.784,394.7c-.841.774-6.091-3.532-11.729-9.623s-9.538-11.654-8.707-12.428,6.091,3.532,11.739,9.623,9.538,11.653,8.7,12.428" transform="translate(728.156 3145.753)" fill="#263238"/>
        <path id="Path_1085" data-name="Path 1085" d="M111.615,363.129c.85.765-3.872,7.413-10.539,14.855s-12.768,12.862-13.618,12.107S91.329,382.678,98,375.227s12.768-12.862,13.618-12.1" transform="translate(737.633 3065.562)" fill="#263238"/>
        <path id="Path_1086" data-name="Path 1086" d="M114.563,377.847c-.8.822-7.385-4.363-14.7-11.559s-12.617-13.684-11.814-14.5,7.385,4.354,14.713,11.55,12.607,13.694,11.8,14.506" transform="translate(742.749 2969.731)" fill="#263238"/>
        <path id="Path_1087" data-name="Path 1087" d="M108.984,342.9c.982.585-2.323,7.933-7.385,16.413s-9.954,14.883-10.926,14.3S93,365.678,98.048,357.2s9.954-14.884,10.936-14.3" transform="translate(764.156 2895.046)" fill="#263238"/>
        <path id="Path_1088" data-name="Path 1088" d="M110.715,332.138c1,.538-1.917,7.9-6.535,16.432s-9.16,15.006-10.161,14.468,1.917-7.9,6.535-16.432,9.16-15.015,10.161-14.468" transform="translate(792.21 2804.213)" fill="#263238"/>
        <path id="Path_1089" data-name="Path 1089" d="M119.293,337.277c.491,1.03-4.136,4.269-10.331,7.234s-11.625,4.533-12.116,3.5,4.136-4.259,10.331-7.234,11.625-4.533,12.116-3.5" transform="translate(817.432 2845.215)" fill="#263238"/>
        <path id="Path_1090" data-name="Path 1090" d="M137.066,391.86c-.227,1.077-10.719-.368-22.618-5.477-11.937-5.062-20.238-11.635-19.615-12.541.642-.992,9.68,3.844,21.229,8.735,11.531,4.958,21.277,8.131,21,9.283" transform="translate(800.471 3155.52)" fill="#263238"/>
        <path id="Path_1091" data-name="Path 1091" d="M126.34,384.362c.217,1.124-6.752,3.409-15.554,5.109s-16.13,2.163-16.347,1.048,6.752-3.409,15.563-5.109,16.12-2.172,16.338-1.048" transform="translate(797.38 3240.297)" fill="#263238"/>
        <path id="Path_1092" data-name="Path 1092" d="M121.77,430.174c-.67.859-9.51-5.194-17.613-15.459-8.15-10.237-12.031-20.219-11.04-20.672,1.067-.538,6.422,8.263,14.279,18.1,7.791,9.887,15.138,17.112,14.373,18.028" transform="translate(784.98 3326.999)" fill="#263238"/>
        <path id="Path_1093" data-name="Path 1093" d="M76.4,422.478c-.737-.869,3.957-6.1,10.492-11.691s12.437-9.425,13.183-8.556-3.957,6.1-10.492,11.691-12.437,9.425-13.183,8.556" transform="translate(644.451 3395.295)" fill="#263238"/>
        <path id="Path_1094" data-name="Path 1094" d="M151.541,419.476c-7.527-23.506-21.655-50.9-46.331-51.261-14.638-.208-27.812,10.3-34.7,23.222s-9.8,27.916-9.378,42.544c2.833,96.7,19.577,207.309,53.036,308.036h90.3c-1.162-111.9-18.812-215.959-52.932-322.541" transform="translate(515.876 3109.083)" fill="#455a64"/>
        <path id="Path_1095" data-name="Path 1095" d="M192.111,429.753c-12.617-50.477-50.269-77.75-94-80.281-39.909,7-55.387,46.293-60.128,86.533s7.753,80.3,20.1,118.9Q117.5,740.769,176.935,926.654l112.324-12.267C253.713,748.366,233.3,594.471,192.111,429.753" transform="translate(312.005 2950.85)" fill="#455a64"/>
        <path id="Path_1096" data-name="Path 1096" d="M79.276,368.212c.387.3-3.7,4.051-7.649,12.777-3.91,8.764-5.8,22.75-4.231,39.918,1.757,17.159,3.721,37.841,6.592,60.478,2.946,22.693,7.036,47.54,12.107,73.472,10.209,51.874,21.711,98.423,29.011,132.354,3.7,16.952,6.488,30.72,8.254,40.268.746,4.391,1.369,8.027,1.889,11.021.378,2.521.519,3.863.378,3.891s-.548-1.256-1.2-3.73c-.718-2.946-1.587-6.526-2.644-10.851-2.4-10.058-5.61-23.553-9.519-39.947-8.027-33.733-19.983-80.177-30.229-132.212-5.081-26.008-9.075-50.977-11.824-73.793-1.435-11.4-2.389-22.278-3.315-32.458-.822-10.114-1.927-19.577-2.408-28.293-1.228-17.414,1.162-31.948,5.676-40.788,4.561-8.82,9.113-12.107,9.113-12.107" transform="translate(541.81 3109.086)" fill="#263238"/>
        <path id="Path_1097" data-name="Path 1097" d="M74.032,349.134c.387.34-5.978,5.7-13.571,18.245-7.583,12.4-15.62,32.618-17.1,58.778-1.719,26.14,4.108,57.154,13.9,90.433,9.859,33.431,20.682,70.11,32.052,108.622,22.4,77,42.667,146.68,57.493,197.629,7.073,25.016,12.844,45.415,16.97,60.024q2.748,10.2,4.41,16.376c.973,3.758,1.407,5.751,1.275,5.789s-.85-1.87-2.068-5.553c-1.3-4.08-3.013-9.444-5.156-16.158C157.8,868.794,151.6,848.528,144,823.672,128.881,772.8,108.2,703.246,85.346,626.383,74.089,587.824,63.37,551.1,53.6,517.629c-9.633-33.469-15.28-65.039-13.155-91.67,1.889-26.613,10.53-47.1,18.651-59.439,8.15-12.485,14.94-17.386,14.94-17.386" transform="translate(337.706 2947.997)" fill="#263238"/>
        <path id="Path_1098" data-name="Path 1098" d="M215.4,903.206c-.142.057-1.01-1.8-2.54-5.383-1.483-3.608-3.872-8.849-6.4-15.8-5.364-13.807-12.22-34.139-19.312-59.656C180,796.86,172.98,766.092,166.2,731.774c-6.507-34.394-13.656-72.122-21.154-111.738-7.8-39.551-16.508-76.967-26.6-110.36C108.375,476.282,97.09,446.9,85.691,423.124a458.7,458.7,0,0,0-30.286-54.566c-3.862-6.3-7.366-10.842-9.453-14.128-2.172-3.23-3.268-4.968-3.145-5.052s1.426,1.483,3.806,4.561c2.314,3.135,6.044,7.536,10.143,13.722,8.556,12.088,19.832,30.409,31.57,54.2,11.8,23.76,23.449,53.216,33.761,86.712,10.35,33.5,19.18,71.036,27.019,110.662,7.385,39.645,14.43,77.4,20.833,111.814,6.573,34.309,13.278,65.039,20.03,90.565,6.705,25.527,13.117,45.925,18,59.864,2.295,7.026,4.439,12.343,5.676,16.045,1.265,3.674,1.889,5.628,1.757,5.685" transform="translate(361.375 2950.029)" fill="#263238"/>
        <path id="Path_1099" data-name="Path 1099" d="M64.68,369.74c.274,1.114-5.836,3.542-13.646,5.449-7.81,1.889-14.354,2.521-14.619,1.417s5.836-3.541,13.646-5.439,14.354-2.521,14.619-1.426" transform="translate(307.403 3117.455)" fill="#263238"/>
        <path id="Path_1100" data-name="Path 1100" d="M72.111,363.072c-.066,1.162-8.547,1.634-18.944,2.049-10.407.4-18.9.595-19.048-.557-.151-1.114,8.263-3.164,18.887-3.57,10.615-.434,19.171.963,19.1,2.078" transform="translate(288.073 3047.458)" fill="#263238"/>
        <path id="Path_1101" data-name="Path 1101" d="M61.526,372.48c-.737.869-6.837-3.1-13.627-8.849s-11.7-11.134-10.955-12,6.837,3.088,13.627,8.849,11.691,11.134,10.955,12" transform="translate(311.313 2968.035)" fill="#263238"/>
        <path id="Path_1102" data-name="Path 1102" d="M46.231,346.872c1.143.255.822,5.713.652,12.324-.208,6.6-.208,12.069-1.36,12.258-1.1.208-2.984-5.317-2.767-12.381.189-7.064,2.389-12.466,3.475-12.2" transform="translate(360.87 2928.821)" fill="#263238"/>
        <path id="Path_1103" data-name="Path 1103" d="M64.678,350.154c.935.652-1.813,6.186-6.129,12.362s-8.584,10.643-9.519,9.982,1.813-6.186,6.129-12.352,8.584-10.643,9.519-9.991" transform="translate(412.457 2956.08)" fill="#263238"/>
        <path id="Path_1104" data-name="Path 1104" d="M79.977,358.743c.434,1.058-5.383,4.429-12.995,7.527s-14.118,4.76-14.543,3.7,5.383-4.429,12.985-7.527,14.118-4.76,14.553-3.7" transform="translate(442.592 3026.441)" fill="#263238"/>
        <path id="Path_1105" data-name="Path 1105" d="M91.54,367.288c.463,1-7.243,5.4-17.811,7.772-10.558,2.417-19.407,1.766-19.416.67-.057-1.18,8.377-2.38,18.5-4.7,10.143-2.267,18.264-4.826,18.727-3.74" transform="translate(458.605 3099.112)" fill="#263238"/>
        <path id="Path_1106" data-name="Path 1106" d="M45.289,385.941c-1.086-.34-.3-5.95,1.766-12.532s4.618-11.644,5.7-11.3.3,5.959-1.766,12.541-4.618,11.635-5.7,11.295" transform="translate(378.282 3057.388)" fill="#263238"/>
        <path id="Path_1107" data-name="Path 1107" d="M46.95,404.15c-1.048-.453,1.228-8.018,5.081-16.885s7.819-15.7,8.868-15.233-1.228,8.008-5.081,16.885S48,404.6,46.95,404.15" transform="translate(394.28 3141.153)" fill="#263238"/>
        <path id="Path_1108" data-name="Path 1108" d="M70.268,387.625c-.444,1.067-7.564-.869-16.177-3.551-8.613-2.71-15.563-5.166-15.318-6.3.236-1.1,7.744-.415,16.555,2.352,8.811,2.748,15.374,6.459,14.94,7.5" transform="translate(327.341 3185.594)" fill="#263238"/>
        <path id="Path_1109" data-name="Path 1109" d="M66.191,387.321c.661.925-4.146,5.5-10.747,10.208S42.96,405.3,42.289,404.376s4.155-5.506,10.756-10.209,12.485-7.772,13.146-6.847" transform="translate(356.567 3269.04)" fill="#263238"/>
        <path id="Path_1110" data-name="Path 1110" d="M71.556,396.447c.274,1.1-5.685,3.513-13.3,5.364s-14,2.446-14.27,1.341,5.685-3.5,13.3-5.364,14-2.446,14.27-1.341" transform="translate(371.365 3342.811)" fill="#263238"/>
        <path id="Path_1111" data-name="Path 1111" d="M81.775,374.608c.576.954-4.514,5.015-11.927,7.791-7.4,2.814-13.911,3.116-14.109,2.021-.227-1.143,5.619-3.211,12.655-5.883,7.045-2.635,12.8-4.939,13.382-3.929" transform="translate(470.589 3161.043)" fill="#263238"/>
        <path id="Path_1112" data-name="Path 1112" d="M82.819,398.96c-.482,1.03-6.554-.8-13.542-4.089s-12.267-6.8-11.786-7.829,6.544.793,13.542,4.089,12.267,6.8,11.786,7.829" transform="translate(485.184 3265.655)" fill="#263238"/>
        <path id="Path_1113" data-name="Path 1113" d="M93.718,410.067c-.416,1.067-8.424-1.077-17.886-4.788s-16.791-7.574-16.375-8.641,8.424,1.086,17.886,4.8,16.791,7.574,16.375,8.632" transform="translate(501.889 3346.832)" fill="#263238"/>
        <path id="Path_1114" data-name="Path 1114" d="M47.4,427.517c-.557-1.039,6.809-5.988,15.318-12.711,8.537-6.677,15.091-12.664,15.969-11.871.841.718-4.552,8.188-13.42,15.119C56.424,425.024,47.9,428.5,47.4,427.517" transform="translate(399.945 3401.683)" fill="#263238"/>
        <path id="Path_1115" data-name="Path 1115" d="M64.532,424.558c-1.171.132-2.758-6.063-5.581-13.268-2.758-7.234-5.751-12.891-4.788-13.571.869-.68,5.657,4.288,8.641,12.078,3.031,7.782,2.824,14.676,1.728,14.761" transform="translate(455.78 3357.716)" fill="#263238"/>
        <path id="Path_1116" data-name="Path 1116" d="M69.785,400.9c-.661.926-5.383-1.312-10.53-5.015s-8.773-7.442-8.112-8.367,5.383,1.313,10.53,5.015,8.773,7.442,8.112,8.367" transform="translate(431.186 3270.378)" fill="#263238"/>
        <path id="Path_1117" data-name="Path 1117" d="M91.645,370.48c.68.916-3.91,5.458-10.256,10.133s-12.022,7.725-12.7,6.8,3.91-5.449,10.256-10.124,12.022-7.725,12.7-6.809" transform="translate(579.417 3126.867)" fill="#263238"/>
        <path id="Path_1118" data-name="Path 1118" d="M101.708,381.19c.1,1.1-7.083,2.616-15.979,1.643-8.9-.945-15.592-3.957-15.252-5.015.331-1.124,7.234.01,15.7.906,8.462.935,15.45,1.294,15.535,2.465" transform="translate(594.986 3186.24)" fill="#263238"/>
        <path id="Path_1119" data-name="Path 1119" d="M89.3,380.031c.246,1.086-6.412,3.475-15.006,4.032-8.6.586-15.516-.9-15.412-2,.085-1.162,6.866-1.549,15.138-2.125,8.263-.529,15.034-1.048,15.28.094" transform="translate(497.2 3203.112)" fill="#263238"/>
        <path id="Path_1120" data-name="Path 1120" d="M85.556,382.806c-.085,1.1-6.809,1.275-14.166-2.134-7.385-3.362-11.625-8.584-10.851-9.359.793-.878,5.855,2.56,12.579,5.6,6.677,3.116,12.589,4.722,12.437,5.893" transform="translate(510.419 3134.09)" fill="#263238"/>
        <path id="Path_1121" data-name="Path 1121" d="M100.355,401.951c-.6.963-7.5-2.276-15.384-7.243s-13.788-9.774-13.184-10.737,7.5,2.276,15.384,7.243,13.788,9.774,13.183,10.738" transform="translate(605.8 3240.716)" fill="#263238"/>
        <rect id="Rectangle_266" data-name="Rectangle 266" width="587.882" height="104.202" transform="translate(387.137 3839.324)" fill="url(#linear-gradient)"/>
        <path id="Path_1122" data-name="Path 1122" d="M45.643,415.392l71.489,311.37H467.514l78.2-311.37Z" transform="translate(385.398 3507.46)" fill="url(#linear-gradient)"/>
        <path id="Path_1123" data-name="Path 1123" d="M632.811,419.443c0,1.143-132.609,2.068-296.146,2.068-163.594,0-296.174-.926-296.174-2.068s132.581-2.068,296.174-2.068c163.537,0,296.146.925,296.146,2.068" transform="translate(341.887 3524.206)" fill="#263238"/>
        <path id="Path_1124" data-name="Path 1124" d="M81.692,400.37c-.963.6-4.986-4.08-8.972-10.454s-6.441-12.05-5.468-12.655,4.986,4.08,8.972,10.464,6.431,12.041,5.468,12.645" transform="translate(566.064 3185.05)" fill="#263238"/>
        <path id="Path_1125" data-name="Path 1125" d="M68.946,415.68c-1.086-.359.293-7.442,3.079-15.818s5.912-14.884,7-14.524-.293,7.441-3.079,15.828-5.912,14.874-7,14.515" transform="translate(579.027 3253.571)" fill="#263238"/>
        <path id="Path_1126" data-name="Path 1126" d="M86.058,427.576c-1.029.491-5.421-6.544-9.812-15.714s-7.111-17.008-6.082-17.5,5.421,6.544,9.812,15.714,7.111,17.008,6.082,17.5" transform="translate(590.614 3329.691)" fill="#263238"/>
        <path id="Path_1127" data-name="Path 1127" d="M65.194,424.786c-.859-.746,2.644-6.2,7.838-12.183s10.086-10.218,10.955-9.463-2.644,6.2-7.838,12.173-10.1,10.218-10.955,9.472" transform="translate(549.386 3403.281)" fill="#263238"/>
        <path id="Path_1128" data-name="Path 1128" d="M85.656,396.339c-.2,1.124-5.855,1.067-12.636-.132S60.9,393.128,61.1,392s5.855-1.067,12.636.132,12.116,3.079,11.918,4.2" transform="translate(515.891 3303.171)" fill="#263238"/>
        <rect id="Rectangle_267" data-name="Rectangle 267" width="1394.104" height="1111.736" transform="translate(1252.712 3123.233)" fill="#e0e0e0"/>
        <g id="Group_465" data-name="Group 465" transform="translate(1354.27 3121.685)" opacity="0.3">
          <g id="Group_464" data-name="Group 464">
            <g id="Group_463" data-name="Group 463" clip-path="url(#clip-path-3)">
              <path id="Path_1129" data-name="Path 1129" d="M143.4,334.437c164.132,58.57,345.169,71.054,521.313,74.35,36.472.689,73.416.623,108.716,9.822s69.468,29,87.6,60.657c19.728,34.46,17.632,77.618,6.431,115.724s-30.617,73.217-44.65,110.378A412.821,412.821,0,0,0,800.82,911.005c4.363,29.285,12.211,58.768,29.134,83.076s44.187,42.79,73.8,43.224c52.979.765,89.262-51.317,115.535-97.337,107.734-188.733,224.289-403.314,293.238-609.414Z" transform="translate(-143.404 -330.564)"/>
            </g>
          </g>
        </g>
        <path id="Path_1130" data-name="Path 1130" d="M185.143,1431.912c-1.36,0-2.455-246.406-2.455-550.3,0-303.994,1.1-550.353,2.455-550.353S187.6,577.622,187.6,881.616c0,303.89-1.1,550.3-2.455,550.3" transform="translate(1542.57 2797.098)" fill="#455a64"/>
        <path id="Path_1131" data-name="Path 1131" d="M1194.405,922.017C1190.26,894.3,1107.4,802.629,1107.4,802.629s-41.43-166.276-53.858-215.317c-3.107-12.258-9.765-26.178-18.009-40.155-28.917-49.06-71.319-88.771-120.955-116.687L799.912,365.989l-27.444-61.044L496.948,163.392,422.257,295.179s-181.414,57.654-205.42,98.838,11.9,593.048,11.9,593.048-75.928,318.49-91.935,384.379,5.156,144.527,5.156,144.527L277.069,1346.39c41.977-52.687,134.177-76.891,200.377-75.956l565.784,2.493-22.514-158.475,457.474,88.969s78.723-153.489,84.937-156.586-368.721-124.818-368.721-124.818" transform="translate(1104.569 1379.64)" fill="url(#linear-gradient)"/>
        <path id="Path_1132" data-name="Path 1132" d="M168.608,182.92c-3.976-4.042,31.976,117.348,77.089,240.976a608.078,608.078,0,0,1,36.5,208.4v447.614l271.281-18.425L512.927,766.628S479.855,576.421,470.59,504.082c-8.471-66.238-37.6-245.858-37.6-245.858S282.2,298.6,168.608,182.92" transform="translate(1421.142 1543.698)" fill="#fff"/>
        <path id="Path_1133" data-name="Path 1133" d="M232.331,356.257c-.312-.028-.416-2.465-.019-6.828a100.285,100.285,0,0,1,3.57-18.236,122.438,122.438,0,0,1,83.577-83.756,101.08,101.08,0,0,1,18.226-3.608c4.363-.4,6.8-.3,6.828.01.113.841-9.5,1.86-24,6.913a130.256,130.256,0,0,0-81.32,81.49c-5.024,14.506-6.025,24.129-6.866,24.015" transform="translate(1959.401 2056.618)" fill="#263238"/>
        <path id="Path_1134" data-name="Path 1134" d="M233.576,255.243c-.6-1.077,17.225-10.1,41.4-11.994,24.176-2.087,43.243,3.91,42.827,5.062-.293,1.464-19.161-2.191-42.421-.16-23.269,1.8-41.288,8.49-41.807,7.092" transform="translate(1972.132 2050.239)" fill="#263238"/>
        <g id="Group_468" data-name="Group 468" transform="translate(1282.413 2549.725)" opacity="0.3">
          <g id="Group_467" data-name="Group 467">
            <g id="Group_466" data-name="Group 466" clip-path="url(#clip-path-4)">
              <path id="Path_1135" data-name="Path 1135" d="M159.338,269.991l-23.543,26.7c25.234,29.342,58.013,53.952,95.58,63.207s76.617,10.341,115.308,10.435c15.667.038,31.58-.1,46.633-4.438,15.346-4.42,29.663-13.146,45.6-14.1,10.681-.633,21.192,2.285,31.646,4.523s21.522,3.8,31.7.51,19.086-12.711,18.453-23.392a1671.179,1671.179,0,0,0-361.384-63.443" transform="translate(-135.795 -269.991)"/>
            </g>
          </g>
        </g>
        <path id="Path_1136" data-name="Path 1136" d="M647.9,367.807l-66.559-70.7L444.424,262.462s-125.469,37.586-128.473,37.482-109.2-29.011-109.2-29.011l-37.1,136.122L360.9,420.163l218.368-8.745s11.389-10.605,4.646-17.858,36.5,12.258,41.6,12.494c5,.227,14.968,4.146,21.711-4.013,4.6-5.562,10.841-23.43.67-34.234" transform="translate(1432.472 2216.161)" fill="#ffbe9d"/>
        <path id="Path_1137" data-name="Path 1137" d="M346.724,310.848c-.255.671-8.49-1.974-21.758-6.2s-31.637-9.84-52.177-15.1-39.362-9.151-53.017-11.89-22.127-4.429-22.032-5.137c.085-.642,8.735-.151,22.608,1.709a485.827,485.827,0,0,1,53.659,10.549,469.811,469.811,0,0,1,52.11,16.593c13.051,5.081,20.842,8.877,20.606,9.472" transform="translate(1669.656 2298.873)" fill="#eb996e"/>
        <path id="Path_1138" data-name="Path 1138" d="M407.87,321.675c-.283.68-11.719-3.579-30.38-9.8-18.642-6.29-44.688-13.977-73.652-22.07-28.936-8.6-54.7-17.2-74.237-18.34-19.454-1.653-31.334,2.2-31.523,1.237-.076-.264,2.776-1.464,8.207-2.757A89.48,89.48,0,0,1,229.808,268c20.191.274,46.737,8.565,75.37,17.074,28.983,8.093,55.047,16.366,73.491,23.524,9.227,3.541,16.583,6.686,21.607,8.99s7.716,3.787,7.593,4.089" transform="translate(1672.501 2262.292)" fill="#eb996e"/>
        <path id="Path_1139" data-name="Path 1139" d="M347.619,187.813S248.913,256.45,224.9,355.3,96.85,857.733,118.193,918.135,554.55,1037.768,554.55,1037.768L603.724,830.28,392.968,772.626s2.673-192.2,5.336-271.819-50.685-312.994-50.685-312.994" transform="translate(973.787 1585.844)" fill="url(#linear-gradient)"/>
        <path id="Path_1140" data-name="Path 1140" d="M202.223,259.121l67.919,16.725L229.279,432.451,162.55,421.771Z" transform="translate(1372.526 2187.951)" fill="#fff"/>
        <path id="Path_1141" data-name="Path 1141" d="M115.78,373.015c.349,0-.2,3.447,1.01,9.774,1.341,6.223,5.373,15.261,14.468,23.562,18.038,16.791,52.479,30.777,96.166,38.634l.142.028.17.057c19.964,6.554,42.7,11.767,67.013,17.272,24.365,5.449,50.486,11.021,78.109,16.64,55.218,11.285,116.319,23.166,181.055,35.282l-2.824,1.823c4.693-19.246,9.651-39.6,14.676-60.223,11.644-47.615,22.92-93.739,33.62-137.472l1.653,2.852c-69.695-19.9-133.3-38.058-187.307-53.471l-.113-.028-.1-.047c-28.6-11.71-57.04-15.988-81.7-14.307-24.771,1.133-45.538,7.763-61.658,14.477a208.533,208.533,0,0,0-35.423,19.624c-3.57,2.606-6.4,4.665-8.575,6.252a17.762,17.762,0,0,1-3.041,2.012,16.67,16.67,0,0,1,2.673-2.455c1.86-1.53,4.542-3.9,8.282-6.724a191.753,191.753,0,0,1,35.216-20.691c16.177-7.092,37.161-14.128,62.338-15.563,25.064-1.983,54.113,2.1,83.35,13.835l-.208-.075c54.084,15.167,117.773,33.025,187.562,52.592l2.2.614-.538,2.238c-10.643,43.734-21.862,89.876-33.45,137.5-5.034,20.625-10.01,40.976-14.7,60.222l-.548,2.248-2.276-.425c-64.765-12.2-125.838-24.252-181.046-35.811-27.613-5.751-53.735-11.474-78.1-17.1-24.355-5.695-46.973-11.059-67.277-17.953l.3.076C182.736,439.877,148.2,425.333,130,407.664c-9.151-8.726-13.08-18.264-14.137-24.7-.935-6.554-.085-9.954-.085-9.954" transform="translate(974.632 2109.602)" fill="#263238"/>
        <path id="Path_1142" data-name="Path 1142" d="M286.579,296.756c-.576.623-7.612-5.827-20.276-14.307a193.7,193.7,0,0,0-112.239-32.694c-15.242.359-24.639,2.021-24.79,1.19-.123-.491,9.1-3.39,24.62-4.665,15.459-1.3,37.284-.208,60.194,6.431,22.882,6.7,41.883,17.49,54.226,26.9,12.409,9.4,18.633,16.8,18.264,17.15" transform="translate(1091.555 2075.464)" fill="#263238"/>
        <path id="Path_1143" data-name="Path 1143" d="M203.863,215.4c.34.019.368,4.524.142,12.655-.179,8.141-.888,19.9-1.993,34.4-2.323,29-6.648,69.005-14.232,112.777-7.432,43.81-16.961,83.01-26.178,110.7-2.314,6.922-4.694,13.089-6.724,18.51-2.248,5.071-4.259,9.585-6.035,13.6-3.891,7.215-6.167,11.087-6.469,10.917s1.407-4.344,4.722-11.7c1.539-4.07,3.268-8.65,5.2-13.788,1.776-5.468,3.91-11.654,5.987-18.585,8.3-27.736,17.235-66.833,24.648-110.482,7.546-43.611,12.409-83.426,15.61-112.277,1.426-13.684,2.616-25.158,3.551-34.2.812-8.084,1.426-12.551,1.766-12.532" transform="translate(1201.903 1818.756)" fill="#263238"/>
        <path id="Path_1144" data-name="Path 1144" d="M289.411,429.638c-.321.085-.982-2.578-3.277-6.979a41.972,41.972,0,0,0-14.184-15.516c-7.423-4.948-18.9-8.462-30.711-4.5a39.623,39.623,0,0,0-25.914,29.332L214,438.7l-2.89-6.214a659.9,659.9,0,0,1-28.86-72.915c-15.96-48.626-22.844-95.193-21.333-128.831-.047-8.405,1.18-15.96,1.662-22.6,1.152-6.582,1.983-12.267,3.013-16.848,2.38-9.094,3.853-14.043,4.184-13.948,1.218.227-5.591,20.153-5.383,53.461-.6,33.195,6.714,79.016,22.542,127.254a730.015,730.015,0,0,0,28.227,72.566l-4.212.51a43.268,43.268,0,0,1,29.162-32.014c13.24-4.1,25.715.236,33.337,5.818a40.624,40.624,0,0,1,13.967,17.1,28.343,28.343,0,0,1,1.785,5.581c.255,1.3.33,1.983.208,2.012" transform="translate(1357.048 1497.471)" fill="#263238"/>
        <path id="Path_1145" data-name="Path 1145" d="M202.859,442.166c-.331.028-.963-3.957-2.191-11.238-1-7.272-3.409-17.953-2-31.655,1.9-13.448,8.263-29.748,22.769-41.826a43.332,43.332,0,0,1,27.463-9.859c10.3-.01,21.56,4,28.9,12.928L273.63,362.9c-2.88-7.243-5.893-14.845-8.962-22.57-17.622-44.49-33.308-84.861-44.433-114.165-5.213-14.024-9.557-25.715-12.938-34.8-2.947-8.254-4.42-12.872-4.108-12.985s2.4,4.268,5.9,12.324c3.759,8.934,8.6,20.446,14.4,34.243,11.956,28.992,28.171,69.175,45.783,113.665,3.05,7.734,6.054,15.346,8.915,22.58l5.751,14.591-9.925-12.2c-6.176-7.583-15.922-11.248-25.158-11.332a39.08,39.08,0,0,0-24.752,8.584c-13.476,10.775-20.1,26.329-22.231,38.87-1.766,12.919.066,23.685.538,31,.69,7.357.746,11.436.444,11.455" transform="translate(1673.848 1506.201)" fill="#263238"/>
        <path id="Path_1146" data-name="Path 1146" d="M217.33,208.794c1.351-.189,22.684,143.384,47.663,320.643,24.979,177.316,44.131,321.163,42.79,321.352S285.1,707.442,260.12,530.117c-24.979-177.25-44.131-321.134-42.79-321.323" transform="translate(1834.521 1763.002)" fill="#263238"/>
        <g id="Group_471" data-name="Group 471" transform="translate(1542.191 1858.585)" opacity="0.3">
          <g id="Group_470" data-name="Group 470">
            <g id="Group_469" data-name="Group 469" clip-path="url(#clip-path-5)">
              <path id="Path_1147" data-name="Path 1147" d="M163.3,196.806a296.23,296.23,0,0,0,23.525,106.648c10.275-12.692,21.683-26.131,37.322-29.87,19.511-4.675,39.229,7.394,53.329,22.032-2.984-14.6-7.914-29.134-17.027-40.74s-22.939-19.964-37.435-19.568-28.907,11.011-31.523,25.687l-27.066-63.566" transform="translate(-163.303 -196.806)"/>
            </g>
          </g>
        </g>
        <path id="Path_1148" data-name="Path 1148" d="M228.64,329.875c-.916-.009-.6-9.888-3.466-25.319a153.958,153.958,0,0,0-22.967-56.171,164.8,164.8,0,0,0-21.579-25.659c-7.63-6.951-14.94-12.787-21.645-16.848-13.259-8.376-22.618-11.6-22.3-12.456.113-.321,2.5.274,6.771,1.653a49.481,49.481,0,0,1,7.612,2.965,82.011,82.011,0,0,1,9.7,4.854c7.12,3.787,14.893,9.51,22.939,16.508a153.24,153.24,0,0,1,22.6,26.254c13.722,20.578,20.313,42.431,22.306,58.343a99.384,99.384,0,0,1,.926,18.963c-.255,4.476-.557,6.922-.9,6.913" transform="translate(1154.075 1632.487)" fill="#263238"/>
        <path id="Path_1149" data-name="Path 1149" d="M538.677,298.137a202.336,202.336,0,0,0-206.44-180.791l-10.473.264c-112.8,9.51-167.73,110.605-155.114,223.089L197.6,736.346l13.108,16.083a211.691,211.691,0,0,0,251.27,59.222l-8.669-127.273S561.465,664.7,560.01,556.084c-.7-52.46-10.936-160.392-21.333-257.946" transform="translate(1392.162 990.272)" fill="#ffbe9d"/>
        <path id="Path_1150" data-name="Path 1150" d="M323.665,211.271s-69.232,5.95-143.337-37.983c0,0,35.471,77.278,143.554,64.718Z" transform="translate(1522.643 1463.199)" fill="#eb996e"/>
        <path id="Path_1151" data-name="Path 1151" d="M228.466,158.13c.5,8.178-6.016,15.346-14.543,16.026s-15.847-5.383-16.347-13.571,6.016-15.355,14.534-16.035,15.856,5.4,16.357,13.58" transform="translate(1668.045 1220.108)" fill="#263238"/>
        <path id="Path_1152" data-name="Path 1152" d="M249.984,141.036c-1.228,1.908-13.552,3.211-28.218,11.153-14.713,7.81-23.515,17.839-25.574,17.7-.992-.028-.1-2.748,3.693-7.187a71.858,71.858,0,0,1,19.907-15.393c9.151-4.9,17.726-7.177,23.043-7.64,5.411-.5,7.772.472,7.149,1.369" transform="translate(1653.43 1178.16)" fill="#263238"/>
        <path id="Path_1153" data-name="Path 1153" d="M211.867,159c.5,8.178-6.016,15.346-14.553,16.026-8.509.68-15.837-5.383-16.338-13.571s6.016-15.356,14.534-16.035c8.537-.68,15.856,5.4,16.356,13.58" transform="translate(1527.896 1227.471)" fill="#263238"/>
        <path id="Path_1154" data-name="Path 1154" d="M237.041,157.622c-2.172.472-12.286-6.365-28.473-10.35-16.139-4.089-29.3-3.06-30.758-4.438-.718-.633,1.709-1.851,7.479-2.361a79.576,79.576,0,0,1,25,2.4c10.076,2.521,17.981,6.384,22.278,9.406,4.372,3.041,5.525,5.156,4.476,5.345" transform="translate(1500.343 1184.409)" fill="#263238"/>
        <path id="Path_1155" data-name="Path 1155" d="M201.076,279.963c-.1-.944,10.218-3,26.971-5.581,4.25-.548,8.263-1.5,8.906-4.429.925-3.107-.982-7.65-3.173-12.56q-6.4-15.3-13.429-32.118c-18.689-45.736-32.326-83.388-30.484-84.125s18.5,35.735,37.18,81.481q6.757,16.914,12.91,32.326c1.738,4.8,4.656,10.218,2.644,16.659a10.709,10.709,0,0,1-6.847,6.412,28.747,28.747,0,0,1-7.215,1.19c-16.885,1.341-27.377,1.691-27.462.746" transform="translate(1601.772 1191.74)" fill="#263238"/>
        <path id="Path_1156" data-name="Path 1156" d="M252.353,147.924c-1.87,4.448-18.415,1.492-38.086,2.9-19.7,1.02-35.754,5.978-38.153,1.785-1.058-2,1.908-6.129,8.5-10.209,6.535-4.07,16.81-7.753,28.615-8.49,11.8-.708,22.476,1.672,29.455,4.92,7.036,3.239,10.483,6.979,9.67,9.094" transform="translate(1485.286 1129.635)" fill="#263238"/>
        <path id="Path_1157" data-name="Path 1157" d="M264.886,150.8c-3.626,3.825-18,.038-35.235.028-17.235-.491-31.816,2.871-35.206-1.058-1.492-1.908.765-5.732,7.1-9.387,6.252-3.636,16.734-6.667,28.577-6.5s22.155,3.513,28.189,7.328c6.129,3.834,8.169,7.725,6.573,9.585" transform="translate(1638.103 1130.467)" fill="#263238"/>
        <path id="Path_1158" data-name="Path 1158" d="M591.491,260.342c-2.068-9.859-11.786-18.189-21.749-16.706,5.317-1.889,10.775-3.872,14.978-7.631s6.913-9.774,5.137-15.138c-2.786-8.4-13.533-10.124-22.042-12.541a55.83,55.83,0,0,1-28.331-18.906c-10.322-13.032-14.3-30-23.213-44.036A72.143,72.143,0,0,0,404.354,133.05a75.1,75.1,0,0,0-120.776,18.406c-28.813-11.994-63.981-7.036-88.365,12.447s-36.972,52.687-31.627,83.435l67.627,41.449c1.1-20.9,24.431-37.5,44.546-31.684,20.408,5.893,33.469,29.531,54.66,31.136,16.5,1.256,30.532-11.531,46.52-15.809,19.388-5.194,39.862,2.569,57.352,12.428s34.12,22.108,53.584,27.028c22.816,5.761,47.124.708,68.9-8.207,9.321-3.815,18.566-8.48,25.508-15.781s11.276-17.7,9.208-27.557" transform="translate(1371.013 932.024)" fill="#263238"/>
        <path id="Path_1159" data-name="Path 1159" d="M254.883,215.013,564.6,213.247c-10.209-21.1-27.878-37.709-46.935-51.346-41.071-29.389-91.047-47.068-141.552-46.548s-151.553,64.86-187.156,100.68c-28.492,28.662-27.642,52.762-27.642,52.762-3.532,40.259,20.2,85.258,30.22,124.412,5.175,20.2,15.771,81.433,15.771,81.433h.009c17.055-.538,23.005-14.288,19.955-31.07L222.236,377.5s56.861-42.827,27.283-117.509c-4.58-5.883-14.751-33.185,5.364-44.98" transform="translate(1359.099 973.916)" fill="#263238"/>
        <path id="Path_1160" data-name="Path 1160" d="M267.952,293.341c-15.761-54.849-30.239-113.618-13.486-168.174-3.06-.123-6.129-.255-9.2-.378l-3.825,2.8c-17.32-5.827-38.058.774-48.824,15.544s-10.709,36.528.132,51.242c-18.34-.859-35.952,14.487-37.624,32.77-1.152,12.626,4.335,24.818,9.973,36.179s11.682,23.128,11.757,35.8-8.027,26.442-20.616,27.944c5.628,12.995,21.39,20.654,35.083,17.046a61.409,61.409,0,0,1-21.267,26.839c20.172,13.741,47.87,9.038,69.808-1.643,13.023-6.337,25.8-15.375,31.117-28.841,5.893-14.931,1.4-31.7-3.031-47.124" transform="translate(1308.557 1053.686)" fill="#263238"/>
        <path id="Path_1161" data-name="Path 1161" d="M229.95,151.935c-1.87-.756-75.172-20.144-70.894,54.018s77.864,54.575,77.864,52.441-6.969-106.459-6.969-106.459" transform="translate(1341.507 1258.997)" fill="#ffbe9d"/>
        <path id="Path_1162" data-name="Path 1162" d="M196.362,209.572c-.34-.208-1.247.982-3.371,2.115a12.92,12.92,0,0,1-9.642.755c-8-2.427-15.318-14.477-16.451-27.831a42.931,42.931,0,0,1,2.55-18.717c1.955-5.543,5.241-9.538,9.151-10.464a6.594,6.594,0,0,1,7.829,3.1c1.114,2.021.727,3.522,1.124,3.626.217.179,1.52-1.331.746-4.354a8.213,8.213,0,0,0-3.182-4.486,9.794,9.794,0,0,0-7.253-1.473c-5.695.727-10.539,6.28-12.834,12.277a43.879,43.879,0,0,0-3.286,20.927c1.341,14.921,9.793,28.463,20.691,30.947a13.892,13.892,0,0,0,11.71-2.644c2.191-1.964,2.484-3.655,2.219-3.777" transform="translate(1364.32 1280.839)" fill="#eb996e"/>
        <path id="Path_1163" data-name="Path 1163" d="M159.609,283.822c-.217.151-2.078-2.8-1.36-8.622.689-5.685,4.8-13.9,13.864-19.332,8.971-5.468,21.371-6.809,33.979-8.206,12.475-1.36,26.726-4.9,33.856-17.2,7.13-11.984,7.328-26.65,5.808-38.937-1.766-12.456-5.071-23.77-6.7-33.506-3.919-19.634-.161-32.156.51-31.816.888.123-1.322,12.154,3.494,30.994,2.1,9.472,5.78,20.465,7.961,33.591,1.832,12.919,2.115,28.624-6.148,42.7A36.717,36.717,0,0,1,227.2,248.446c-6.979,2.833-14.005,3.806-20.493,4.5-12.966,1.133-24.374,2.04-32.619,6.488-8.131,4.3-12.4,11.276-13.637,16.2-1.3,5.052-.321,8.093-.84,8.188" transform="translate(1334.834 1065.594)" fill="#455a64"/>
        <path id="Path_1164" data-name="Path 1164" d="M158.613,259.047c-.293.113-1.634-2.115-2.295-6.7a32.241,32.241,0,0,1,3.693-19.076,33.631,33.631,0,0,1,8.82-10.586c3.891-3.258,9.2-5.27,14.232-6.648,5.052-1.473,10.3-2.776,14.09-5.78,3.768-2.975,5.468-7.895,5.581-13.6.217-5.647-.642-11.6-.51-17.547a87.081,87.081,0,0,1,1.908-16.838,80.706,80.706,0,0,1,10.634-26.518c4.476-7.177,11.616-10.681,16.423-10.435,4.911.047,6.969,2.257,6.743,2.446-.2.453-2.474-.84-6.573-.2-4.108.51-9.482,3.711-13.136,10.369a85.745,85.745,0,0,0-8.868,25.375,87.983,87.983,0,0,0-1.464,15.837c-.075,5.468.841,11.285.623,17.735-.028,6.3-2.351,13.693-7.838,17.8-5.364,4.042-11.247,5.119-16.186,6.478a30.725,30.725,0,0,0-20.927,14.128c-7.857,13.287-3.834,23.808-4.949,23.76" transform="translate(1317.925 1058.024)" fill="#455a64"/>
        <path id="Path_1165" data-name="Path 1165" d="M497.3,153.691c.463.1-5.6,4.042-15.318-.529-4.76-2.115-9.453-6.592-14.005-11.927-4.542-5.421-9.708-11.191-17.225-15.28-14.487-8.235-37.936-10.369-55.935,3.711-9.17,6.648-17.292,15.932-27.953,23.713-5.336,3.815-11.531,7.215-18.566,8.575a40.1,40.1,0,0,1-21.116-1.993c-13.372-4.807-23.921-12.995-35.461-17.188A93.688,93.688,0,0,0,256.9,136.5a92.04,92.04,0,0,0-56.181,19.331,101.352,101.352,0,0,0-26.518,31.079c-4.618,8.613-6.29,13.844-6.771,13.684-.189-.057.066-1.407.736-3.947a79.345,79.345,0,0,1,4.023-10.756,96,96,0,0,1,25.989-33.261,94.558,94.558,0,0,1,58.636-21.456,97.5,97.5,0,0,1,36.934,6.308c12.447,4.523,23.213,12.749,35.339,17.008a34.4,34.4,0,0,0,18.141,1.813c5.912-1.124,11.37-4.023,16.347-7.546,9.973-7.13,18.283-16.413,28.114-23.411a53.91,53.91,0,0,1,32.411-10.728,57.273,57.273,0,0,1,28.69,7.791c8,4.646,13.476,11.276,17.669,16.744,4.3,5.5,8.339,9.765,12.551,12,8.528,4.8,14.317,1.974,14.288,2.531" transform="translate(1413.259 967.819)" fill="#455a64"/>
        <path id="Path_1166" data-name="Path 1166" d="M187.772,157.909c2.352-.538,5.052,15.318,20.521,24.289,15.45,9.01,32.052,4.382,32.553,6.573.387.963-3.249,3.721-10.35,5.109a39.987,39.987,0,0,1-27.018-4.589c-9.444-5.506-14.553-14.118-16.187-20.54-1.728-6.526-.623-10.747.482-10.841" transform="translate(1573.844 1333.229)" fill="#263238"/>
        <path id="Path_1167" data-name="Path 1167" d="M440.367,345.156c-28.058-25.007-66.824-36.613-104.344-34.422l-63.8,202.8c46.765,2.059,93.417,26.188,138.568,13.816,36.255-9.925,63.745-43.979,68.788-81.226s-11.153-75.965-39.21-100.972" transform="translate(2298.563 2621.548)" fill="url(#linear-gradient)"/>
        <path id="Path_1168" data-name="Path 1168" d="M326.828,312.492c.132-1.643,6.932-2.908,19.332-2.786a157.58,157.58,0,0,1,52.243,9.84c21.674,8.027,45.311,24.431,63.594,49.4a131.267,131.267,0,0,1,21.22,43.979,115.96,115.96,0,0,1,1.577,53.206c-3.692,18.028-11.616,34.961-23.194,48.418a101.23,101.23,0,0,1-41.175,28.558c-29.776,11.172-58.391,9.387-80.272,5.185a250.743,250.743,0,0,1-50.042-15.535c-11.248-4.854-17.122-8.414-16.64-10.029.491-1.634,7.375-1.152,19.341.84,11.956,1.9,29,5.619,49.759,7.508,20.587,1.851,45.547,1.218,69.345-8.972a81.832,81.832,0,0,0,31.221-23.033c8.556-10.351,14.638-23.581,17.565-37.879,6.119-28.832-2.606-57.569-17.282-79.28-14.685-21.957-33.922-37.577-51.988-46.435-18.236-9.1-35.046-13.127-46.558-16.291-11.606-2.984-18.188-4.958-18.047-6.7" transform="translate(2308.891 2615.01)" fill="#f5f5f5"/>
        <path id="Path_1169" data-name="Path 1169" d="M340.607,390.549,201.775,779.508l483.047,175.2c13.911-47.162-202.389-230.446-202.389-230.446L581.612,478.7Z" transform="translate(1703.736 3297.694)" fill="url(#linear-gradient)"/>
        <g id="Group_474" data-name="Group 474" transform="translate(2022.462 3946.679)" opacity="0.6">
          <g id="Group_473" data-name="Group 473">
            <g id="Group_472" data-name="Group 472" clip-path="url(#clip-path-6)">
              <path id="Path_1170" data-name="Path 1170" d="M236.092,418.087c-10.284-.831-20.559,7.337-21.805,17.565s6.96,20.748,17.206,21.768c10.275,1.02,22.892-8.414,23-18.718s-10.218-22.136-20.417-20.663" transform="translate(-214.154 -417.916)" fill="#fff"/>
            </g>
          </g>
        </g>
        <path id="Path_1171" data-name="Path 1171" d="M201.775,466.836l14.015-39.257L674.632,610.608s18.113,17.159,10.18,31.429Z" transform="translate(1703.736 3610.366)" fill="#fff"/>
        <path id="Path_1172" data-name="Path 1172" d="M280.448,432.281c-.935,2.333-13.117-.878-27.472,2.5-14.449,2.993-24.129,11.04-25.961,9.321-2.011-1.247,6.62-14.072,24.072-17.858,17.414-3.928,30.654,4.052,29.361,6.035" transform="translate(1914.438 3590.053)" fill="#263238"/>
        <path id="Path_1173" data-name="Path 1173" d="M276.63,432.727c-.293,2.484-11.956,2.786-23.591,9.859-11.833,6.724-17.773,16.781-20.077,15.828-2.351-.434,1.03-14.846,15.648-23.354,14.553-8.641,28.785-4.6,28.02-2.333" transform="translate(1961.318 3628.94)" fill="#263238"/>
        <path id="Path_1174" data-name="Path 1174" d="M238.617,468.485c-2.323-.274-1.332-13.25,9.406-23.968,10.671-10.8,23.638-11.861,23.921-9.538.633,2.427-9.047,6.762-17.726,15.7-8.9,8.726-13.174,18.425-15.6,17.811" transform="translate(2006.113 3664.256)" fill="#263238"/>
        <path id="Path_1175" data-name="Path 1175" d="M279.911,437.367c-1.766,1.794-11.408-5.383-25.073-9.321-13.58-4.2-25.574-3.494-26.074-5.959-.746-2.2,12.551-7.253,28.577-2.408,16.054,4.731,24.4,16.253,22.571,17.688" transform="translate(1931.369 3526.5)" fill="#263238"/>
        <path id="Path_1176" data-name="Path 1176" d="M292.309,468.6c-.331.982-10.18-.935-24.148-8.906a115.077,115.077,0,0,1-22.486-16.952,121.119,121.119,0,0,1-11.229-12.409c-1.7-2.238-3.815-4.637-5.232-8.339-1.728-3.409-.945-10.2,3.466-12.938a13.763,13.763,0,0,1,12.3-1.643,33.354,33.354,0,0,1,8.613,4.542,92.384,92.384,0,0,1,13.174,10.615A90.541,90.541,0,0,1,283.753,445.3c7.451,14.44,8.075,24.639,7.1,24.809-1.35.387-4.127-8.972-12.418-21.674a103.092,103.092,0,0,0-17.169-19.992,95.89,95.89,0,0,0-12.343-9.312c-4.618-3.2-8.962-4.816-11.1-3.012-.793.689-.982,1.01-.453,2.9.6,1.775,2.182,3.881,3.863,6.1a134.349,134.349,0,0,0,10.133,11.937A142,142,0,0,0,271.5,454.5c12.437,8.886,21.3,12.834,20.8,14.1" transform="translate(1928.254 3433.781)" fill="#263238"/>
        <path id="Path_1177" data-name="Path 1177" d="M235.641,476.581c-.973.066-2.578-10.086,2.1-25.677a83.581,83.581,0,0,1,12.9-25.291,84.493,84.493,0,0,1,11.493-12.456c4.562-3.74,10.332-8.877,19.86-6.61,4.845,1.549,7.46,6.724,7.659,10.407.416,3.853-.283,6.771-.737,9.774a57.168,57.168,0,0,1-5.893,16.291,59.137,59.137,0,0,1-19.4,21.249c-13.977,9.094-24.837,8.339-24.752,7.47-.359-1.473,9.519-3.041,21.107-12.447a59.336,59.336,0,0,0,15.894-19.955,53.157,53.157,0,0,0,4.627-14.147c1.1-5.411.68-10.246-1.426-10.416-2.389-.907-7.876,1.473-11.342,4.854a85.46,85.46,0,0,0-10.747,10.936,92.175,92.175,0,0,0-13.438,22.448c-5.808,13.929-6.488,23.676-7.9,23.572" transform="translate(1980.625 3428.066)" fill="#263238"/>
        <path id="Path_1178" data-name="Path 1178" d="M478.248,289.052c-73.274,1.7-142.78,12.05-193.247,65.2C218.064,424.74,135.289,525.146,130.586,594.793,123.57,698.873,186.351,729.811,232.2,755.186a127.211,127.211,0,0,0,66.55,15.384l846.924-6.422,26.584-143.45L624.5,485.7l22.75-206.167Z" transform="translate(1098.073 2360.304)" fill="#263238"/>
        <path id="Path_1179" data-name="Path 1179" d="M205.162,290.5,471.58,278.235s460.231,25.583,558.408,115.573,85.9,192.256,53.178,290.424S762.06,1410.284,762.06,1410.284s23.383,39.919,10.237,79.762c-20.38,61.687-75.219,71.631-75.219,71.631l-256.114-94.126s-34.772-12.268-10.228-45,40.9-38.861,40.9-38.861v-65.445s89.989-163.613,98.168-186.117,94.447-355.5,94.447-355.5l57.3-98.46S582.969,613.015,462.891,565.787L182.4,496.668Z" transform="translate(1540.163 2349.344)" fill="#263238"/>
        <path id="Path_1180" data-name="Path 1180" d="M381.358,460.779c-.519.623-8.594-5.77-22.476-14.732a313.158,313.158,0,0,0-57.361-29.106A313.22,313.22,0,0,0,239.3,400.575c-16.328-2.521-26.612-3.107-26.584-3.909,0-.557,10.36-1.2,27.037.462a255.312,255.312,0,0,1,121.088,46.038c13.571,9.831,20.889,17.2,20.521,17.613" transform="translate(1796.085 3344.255)" fill="#455a64"/>
        <path id="Path_1181" data-name="Path 1181" d="M322.012,503.96c-.51.425-6.242-5.524-14.874-15.667s-20.143-24.516-32.194-40.882c-12.041-16.385-22.353-31.646-29.464-42.9s-11.078-18.5-10.53-18.869c.585-.378,5.581,6.176,13.41,16.914,8.943,12.267,19.208,26.367,30.551,41.94,11.484,15.45,21.891,29.446,30.947,41.637,7.923,10.671,12.692,17.386,12.154,17.83" transform="translate(1983.432 3256.112)" fill="#455a64"/>
        <path id="Path_1182" data-name="Path 1182" d="M383.277,311.194c.151.8-9.406,2.833-24.27,7.772a254.873,254.873,0,0,0-102.587,64.048c-10.964,11.181-16.98,18.878-17.631,18.387-.444-.312,4.608-8.782,15.091-20.757A217.505,217.505,0,0,1,358,315.632c15.365-4.146,25.2-4.977,25.281-4.438" transform="translate(2016.037 2626.404)" fill="#455a64"/>
        <path id="Path_1183" data-name="Path 1183" d="M226.355,797.89c-.161-.047.2-1.955,1.048-5.534,1.03-4.089,2.333-9.255,3.938-15.611,3.787-14.128,8.99-33.5,15.336-57.144,13.58-48.7,32.033-114.9,52.422-188.053,10.624-36.67,19.756-71.659,29.993-103.333C341,396.8,359.861,372.563,377.323,354.639a275.44,275.44,0,0,1,45.783-37.747c5.921-3.749,10.548-6.6,13.816-8.32,3.229-1.775,4.967-2.635,5.052-2.493.227.387-6.412,4.354-17.782,12.4a303.8,303.8,0,0,0-44.357,38.559c-16.914,17.99-35.131,42.072-46.492,72.745C323.512,461,314.4,496.4,303.813,532.946c-20.918,72.981-39.862,139.031-53.792,187.609-6.969,23.477-12.674,42.7-16.838,56.719-1.964,6.252-3.56,11.333-4.826,15.355-1.152,3.494-1.841,5.307-2,5.26" transform="translate(1910.971 2584.328)" fill="#455a64"/>
        <path id="Path_1184" data-name="Path 1184" d="M219.617,506.694c-1.35.123-6.95-49.693-12.5-111.247-5.562-61.583-8.962-111.578-7.612-111.7s6.95,49.674,12.5,111.257c5.553,61.554,8.962,111.568,7.612,111.691" transform="translate(1682.049 2395.877)" fill="#455a64"/>
        <path id="Path_1185" data-name="Path 1185" d="M264.242,407.351c-.755.368-4.873-7.7-13.212-19.511a191.877,191.877,0,0,0-87.5-68.363c-13.476-5.222-22.287-7.272-22.127-8.084.085-.51,9.217.321,23.307,4.816a167.98,167.98,0,0,1,89.225,69.7c7.753,12.57,10.785,21.229,10.3,21.437" transform="translate(1193.994 2628.206)" fill="#455a64"/>
        <path id="Path_1186" data-name="Path 1186" d="M376.855,343.759c-.472.756-11.767-6.488-31.334-15.384a295.079,295.079,0,0,0-163.726-23.487c-21.286,3.032-34.148,6.819-34.394,5.94-.094-.321,3.041-1.482,8.83-3.352a193.563,193.563,0,0,1,25.007-6.025c21.362-4.014,51.78-6.063,84.8-1.388,33,4.788,61.6,15.327,80.971,25.177a188.93,188.93,0,0,1,22.306,12.825c5.043,3.4,7.725,5.411,7.536,5.695" transform="translate(1244.597 2510.961)" fill="#455a64"/>
        <path id="Path_1187" data-name="Path 1187" d="M818.244,430.322c-.038.17-2.323-.217-6.639-1.1-4.778-1.039-11.021-2.389-18.8-4.08-16.857-3.787-40.3-9.057-69.034-15.516-58.3-13.061-138.936-30.56-228.331-48.276-89.432-17.688-170.667-32.231-229.54-42.365-29.03-4.977-52.705-9.047-69.732-11.965-7.829-1.4-14.128-2.531-18.935-3.39-4.325-.831-6.582-1.351-6.554-1.511s2.333.019,6.7.529c4.845.633,11.181,1.454,19.076,2.484,16.564,2.238,40.485,5.78,70.006,10.417,59.042,9.264,140.438,23.279,229.927,40.976,89.46,17.736,170.044,35.782,228.161,49.721,29.058,6.96,52.526,12.787,68.694,17.036,7.7,2.059,13.873,3.711,18.595,4.977,4.24,1.19,6.44,1.9,6.4,2.059" transform="translate(1441.152 2550.538)" fill="#455a64"/>
        <path id="Path_1188" data-name="Path 1188" d="M314.148,420.383c-.944.283-2.927-11.191-11.729-27.066a118.666,118.666,0,0,0-19.369-25.064c-8.4-8.537-18.7-17.046-29.653-25.64-22.108-16.933-44.565-28.9-60.667-37.681-16.205-8.669-26.235-14.1-25.923-14.732.283-.585,10.832,3.721,27.491,11.635,16.564,8.018,39.531,19.6,62.093,36.878,11.125,8.726,21.418,17.405,29.918,26.4a111.952,111.952,0,0,1,19.18,26.565,92.393,92.393,0,0,1,7.564,20.71c1.133,5.071,1.388,7.933,1.1,8" transform="translate(1408.418 2449.938)" fill="#455a64"/>
        <path id="Path_1189" data-name="Path 1189" d="M318.59,317.545c1.086,1.048-13.079,15.365-24.11,37.133-11.266,21.664-14.638,41.515-16.12,41.241-1.219.01.047-20.927,11.748-43.489,11.5-22.636,27.774-35.876,28.482-34.885" transform="translate(2347.265 2680.833)" fill="#263238"/>
        <g id="Group_477" data-name="Group 477" transform="translate(2059.68 2030.583)" opacity="0.3">
          <g id="Group_476" data-name="Group 476">
            <g id="Group_475" data-name="Group 475" clip-path="url(#clip-path-7)">
              <path id="Path_1190" data-name="Path 1190" d="M218.1,215.019l60.619,427.046,3.022,6.828A916.189,916.189,0,0,0,218.1,215.019" transform="translate(-218.1 -215.019)"/>
            </g>
          </g>
        </g>
        <path id="Path_1191" data-name="Path 1191" d="M864.277,250.86,667.149,595.622l-485.7,10.558-1.209,22,470.289-3.5,14.912-.5,496.627.982,100.349-173.085L1390.624,268.35a18.137,18.137,0,0,0-14.94-28.51l-495.74,1.889a18.134,18.134,0,0,0-15.667,9.132" transform="translate(1521.891 2025.138)" fill="#e0e0e0"/>
        <path id="Path_1192" data-name="Path 1192" d="M438.778,262.313s25.517,23.383,21.484,43.252-2.682,34.649-21.484,35.99c0,0,1.341,25.526-25.526,29.549,0,0,5.751,31.155-30.513,36.528,0,0-11.125,33.318-33.96,25.262s-37.615-17.461-37.615-17.461l-6.714-12.088S270.821,390.7,279.094,371.7c5.043-11.531,22.438-14.524,22.438-14.524s-7.234-16.914,2.153-29.54c8.074-10.841,34.337-1.879,34.337-1.879a37.048,37.048,0,0,1,8.311-25.706c8.943-10.605,50.76,18.217,50.76,18.217l22.8-27.245Z" transform="translate(2345.539 2214.903)" fill="#ffbe9d"/>
        <path id="Path_1193" data-name="Path 1193" d="M361.533,322.9c-.718,1.152-19.482-9.208-41.9-23.137s-40.023-26.169-39.314-27.321,19.482,9.2,41.911,23.137,40.023,26.168,39.3,27.321" transform="translate(2366.753 2299.649)" fill="#eb996e"/>
        <path id="Path_1194" data-name="Path 1194" d="M359.42,314.478c-.7,1.162-18.113-8.046-38.889-20.568s-37.048-23.619-36.349-24.79,18.113,8.046,38.89,20.578,37.048,23.619,36.349,24.781" transform="translate(2399.371 2271.539)" fill="#eb996e"/>
        <path id="Path_1195" data-name="Path 1195" d="M287.74,266.731c.756-1.388,16.347,6.828,34.479,18.312,18.151,11.588,32.789,20.6,32.43,21.513-.68,1.605-16.895-5.751-35.027-17.339-18.217-11.531-32.42-21.475-31.882-22.486" transform="translate(2429.479 2250.913)" fill="#eb996e"/>
        <path id="Path_1196" data-name="Path 1196" d="M937.541,243.489a8.676,8.676,0,0,1-2.38.255c-1.86.066-4.146.142-6.969.236-6.526.113-15.488.274-26.82.463-23.7.189-57.286.453-98.621.784-83.634.189-198.489.444-325.365.718H453.7a19.55,19.55,0,0,0-18.056,8.528q-11.219,20.214-22.08,39.815c-14.524,26.2-28.52,51.468-41.873,75.559-26.735,48.04-50.826,91.321-71.14,127.821-20.257,36.018-36.708,65.294-48.323,85.948q-8.471,14.746-13.363,23.25l-3.579,5.988a8.693,8.693,0,0,1-1.369,1.954,8.625,8.625,0,0,1,.935-2.209c.841-1.653,1.879-3.7,3.154-6.223,3.05-5.761,7.243-13.684,12.551-23.694,11.295-20.852,27.283-50.383,46.973-86.732,20.049-36.641,43.828-80.1,70.214-128.321,13.268-24.138,27.188-49.457,41.618-75.71q10.908-19.733,22.193-40.136c4.59-7.328,13.892-11.465,22.146-10.747h23.685c126.877.274,241.731.529,325.365.718,41.335.331,74.917.595,98.621.784,11.332.189,20.294.35,26.82.463,2.823.094,5.109.17,6.969.236a8.676,8.676,0,0,1,2.38.255" transform="translate(1975.04 2034.549)" fill="#263238"/>
        <path id="Path_1197" data-name="Path 1197" d="M277.414,267.2c-8.773,9.727-8.981,23.836-.463,31.523s22.533,6.025,31.306-3.7,8.981-23.836.462-31.523-22.532-6.025-31.306,3.7" transform="translate(2285.684 2184.156)" fill="#fff"/>
        <g id="Group_480" data-name="Group 480" transform="translate(1175.339 2306.331)" opacity="0.3">
          <g id="Group_479" data-name="Group 479">
            <g id="Group_478" data-name="Group 478" clip-path="url(#clip-path-8)">
              <path id="Path_1198" data-name="Path 1198" d="M133.514,255.9c-4.212,1.7-9.009,4.5-9.057,9.047-.038,3.674,3.39,6.639,6.979,7.4s16.583-4.608,20.172-5.4c51.043-11.266,93.134-.472,141.788,18.651l1.577-1.615c-19.407-40.967-106.535-50.2-161.46-28.086" transform="translate(-124.457 -244.212)"/>
            </g>
          </g>
        </g>
        <path id="Path_1199" data-name="Path 1199" d="M3815.677,450.637c0,1.36-854.233,2.455-1907.748,2.455C854.054,453.092,0,452,0,450.637s854.054-2.456,1907.928-2.456c1053.515,0,1907.748,1.1,1907.748,2.456" transform="translate(0 3784.332)" fill="#263238"/>
        <path id="Path_1200" data-name="Path 1200" d="M172.994,472.026c1.634,1.634,315.223-106.167,315.223-106.167L367.638,89.149,88.491,195.873l153.555,88.233Z" transform="translate(747.195 752.751)" fill="#455a64"/>
        <path id="Path_1201" data-name="Path 1201" d="M113.015,501.588V124.811S545.623,45.729,857.286,50.375s632.636,55.813,632.636,55.813V467.93s-976.86-87.279-1376.907,33.657" transform="translate(954.269 423.691)" fill="#455a64"/>
        <path id="Path_1202" data-name="Path 1202" d="M112.777,128.4,283.151,323.046V94.413S140.645,111.459,112.777,128.4" transform="translate(952.26 797.199)" fill="#263238"/>
        <path id="Path_1203" data-name="Path 1203" d="M116.436,58.078c1.36.009,1.955,84.436,1.332,188.563-.614,104.155-2.219,188.554-3.579,188.544s-1.955-84.418-1.332-188.573c.614-104.127,2.219-188.544,3.579-188.535" transform="translate(950.848 490.395)" fill="#263238"/>
        <path id="Path_1204" data-name="Path 1204" d="M556.186,468.967C554.553,470.6,240.964,362.8,240.964,362.8L361.542,86.089,640.689,192.813,487.134,281.036Z" transform="translate(2034.637 726.913)" fill="#455a64"/>
        <path id="Path_1205" data-name="Path 1205" d="M411.338,110.556,240.964,305.2V93.1a1255.362,1255.362,0,0,1,170.375,17.452" transform="translate(2034.637 786.146)" fill="#263238"/>
        <path id="Path_1206" data-name="Path 1206" d="M260.358,56.112c1.36-.009,2.861,82.1,3.352,183.388.491,101.312-.217,183.416-1.577,183.426s-2.852-82.094-3.343-183.407c-.491-101.275.208-183.4,1.568-183.407" transform="translate(2183.833 473.795)" fill="#263238"/>
        <path id="Path_1207" data-name="Path 1207" d="M194.033,83.151c-.415,14.081-.614,21.126-1.029,35.206,23.638.151,35.461.217,59.1.34-.161,6.969-.245,10.454-.406,17.424-23.676-.123-35.518-.189-59.2-.34-.434,14.789-.652,22.193-1.077,36.982,29.446.189,44.168.274,73.624.416-.151,6.969-.227,10.454-.368,17.424-45.8-.217-68.694-.359-114.486-.689,1.662-49.787,2.5-74.681,4.165-124.468,45.2.34,67.8.472,112.994.689l-.378,17.424c-29.172-.142-43.762-.217-72.934-.406" transform="translate(1268.132 552.592)" fill="#fff"/>
        <path id="Path_1208" data-name="Path 1208" d="M315.01,190.372c-17.216-.009-25.819-.028-43.035-.047-13.221-17.537-19.8-26.291-32.893-43.828h-.774c-12.758,17.461-19.161,26.2-32.024,43.64-16.914-.047-25.366-.085-42.27-.161,21.1-25.725,31.58-38.6,52.413-64.34C197.539,101.6,188.161,89.579,169.52,65.526c16.98.076,25.479.094,42.459.161,11.6,15.9,17.414,23.855,29.106,39.739h.774c11.606-15.837,17.386-23.742,28.9-39.588,16.687.038,25.026.047,41.713.057-19.209,24.242-28.879,36.358-48.342,60.572,20.21,25.583,30.39,38.351,50.883,63.906" transform="translate(1384.891 553.285)" fill="#fff"/>
        <path id="Path_1209" data-name="Path 1209" d="M284.493,190.03c-3.626-11.3-5.44-16.97-9.047-28.265-17.924.028-26.886.038-44.811.047-3.494,11.314-5.251,16.97-8.764,28.265-16.29.019-24.44.019-40.731,0,18.736-49.769,27.982-74.662,46.237-124.478,20.474,0,30.711-.009,51.185-.038,18.727,49.759,28.208,74.634,47.427,124.374-16.6.047-24.9.066-41.5.094m-48.55-45.3c13.618,0,20.417-.009,34.035-.038-6.714-20.965-10.048-31.448-16.687-52.432h-1.143c-6.45,20.993-9.689,31.495-16.205,52.469" transform="translate(1529.508 553.588)" fill="#fff"/>
        <path id="Path_1210" data-name="Path 1210" d="M333.061,190.186c-1.01-34.564-1.511-51.846-2.521-86.41h-.774c-12.6,27.538-18.953,41.307-31.75,68.835-9.651.057-14.487.085-24.147.132-14.128-27.387-21.145-41.08-35.084-68.477h-.755c.67,34.564,1,51.846,1.681,86.42-15.375.066-23.062.094-38.427.142-.765-49.787-1.152-74.681-1.917-124.469,21.079-.076,31.627-.113,52.706-.208,13.155,26.679,19.775,40.023,33.1,66.7.3-.009.453-.009.755-.009,11.88-26.811,17.773-40.211,29.464-67.032,21.683-.132,32.534-.208,54.217-.368,1.662,49.787,2.5,74.681,4.165,124.459-16.281.123-24.422.179-40.712.283" transform="translate(1683.395 552.592)" fill="#fff"/>
        <path id="Path_1211" data-name="Path 1211" d="M279.314,87l24.676,29.03L373.676,87,353.353,56.512Z" transform="translate(2358.459 477.173)" fill="#455a64"/>
        <path id="Path_1212" data-name="Path 1212" d="M340.832,77.585a36.292,36.292,0,1,1-36.292-36.292,36.3,36.3,0,0,1,36.292,36.292" transform="translate(2265.008 348.667)" fill="url(#linear-gradient)"/>
        <path id="Path_1213" data-name="Path 1213" d="M222.359,118.641a18.146,18.146,0,1,1-18.141-18.151,18.149,18.149,0,0,1,18.141,18.151" transform="translate(1571.101 848.511)" fill="url(#linear-gradient)"/>
        <path id="Path_1214" data-name="Path 1214" d="M125.07,85.865A13.764,13.764,0,1,1,111.3,72.1,13.772,13.772,0,0,1,125.07,85.865" transform="translate(823.619 608.76)" fill="url(#linear-gradient)"/>
        <path id="Path_1215" data-name="Path 1215" d="M95.038,126.651l40.646,2.474,19.294-79.837-37.954,1.549Z" transform="translate(802.477 416.173)" fill="#455a64"/>
        <path id="Path_1216" data-name="Path 1216" d="M229.442,133.513l13.665,38.351L324.115,158.3,307.806,124Z" transform="translate(1937.349 1047.056)" fill="url(#linear-gradient)"/>
        <path id="Path_1217" data-name="Path 1217" d="M165.033,101.585,140.007,133.7l54.925,61.073L215.123,162.6Z" transform="translate(1182.186 857.754)" fill="#455a64"/>
        <path id="Path_1218" data-name="Path 1218" d="M259.3,21.709l95.939,97.809L490.2,68.512l5.336,33.478L437.092,221.7l53.867,89.357-4.5,26.669-130.6-21.985-77.2,84.758-18.132-13.779-16-107.753L122.681,215.532l-5.326-24.582L240.02,157.359Z" transform="translate(990.915 183.302)" fill="#49183d"/>
        <g id="Group_483" data-name="Group 483" transform="translate(1108.27 205.014)" opacity="0.3">
          <g id="Group_482" data-name="Group 482">
            <g id="Group_481" data-name="Group 481" clip-path="url(#clip-path-9)">
              <path id="Path_1219" data-name="Path 1219" d="M259.3,21.709l95.939,97.809L490.2,68.512l5.336,33.478L437.092,221.7l53.867,89.357-4.5,26.669-130.6-21.985-77.2,84.758-18.132-13.779-16-107.753L122.681,215.532l-5.326-24.582L240.02,157.359Z" transform="translate(-117.355 -21.712)"/>
            </g>
          </g>
        </g>
        <path id="Path_1220" data-name="Path 1220" d="M259.3,18.8l95.939,97.809L490.2,93.032,426.826,214.507l64.132,121.069-135.1-22.74-95.335,98.413L240.4,275.721,117.355,215.47,240.02,154.454Z" transform="translate(990.915 158.779)" fill="url(#linear-gradient)"/>
        <path id="Path_1221" data-name="Path 1221" d="M448.857,21.709l-95.939,97.809L217.957,68.512l-5.336,33.478L271.069,221.7,217.2,311.055l4.5,26.669L352.3,315.74l77.2,84.758,18.132-13.779,16-107.753,121.843-63.434,5.326-24.582L468.141,157.359Z" transform="translate(1795.324 183.302)" fill="#32102a"/>
        <g id="Group_486" data-name="Group 486" transform="translate(2007.947 205.014)" opacity="0.3">
          <g id="Group_485" data-name="Group 485">
            <g id="Group_484" data-name="Group 484" clip-path="url(#clip-path-9)">
              <path id="Path_1222" data-name="Path 1222" d="M448.857,21.709l-95.939,97.809L217.957,68.512l-5.336,33.478L271.069,221.7,217.2,311.055l4.5,26.669L352.3,315.74l77.2,84.758,18.132-13.779,16-107.753,121.843-63.434,5.326-24.582L468.141,157.359Z" transform="translate(-212.623 -21.712)"/>
            </g>
          </g>
        </g>
        <path id="Path_1223" data-name="Path 1223" d="M444.762,18.8l-95.939,97.809L213.862,93.032l63.377,121.475L213.107,335.576l135.1-22.74,95.334,98.413,20.125-135.527L586.711,215.47,464.046,154.454Z" transform="translate(1799.419 158.779)" fill="url(#linear-gradient)"/>
        <path id="Path_1224" data-name="Path 1224" d="M399.723,3.544l79.8,155.878,184.1-10.822-6.252,42.875L540.454,315.263l31.7,129.54-15.667,30.824-150.968-76.57L279.051,473.068l-16.867-23.713L283.7,311.787,159.21,187.98l2.861-32.024L324.532,161.7Z" transform="translate(1344.328 29.921)" fill="#220b1d"/>
        <g id="Group_489" data-name="Group 489" transform="translate(1503.538 33.469)" opacity="0.3">
          <g id="Group_488" data-name="Group 488">
            <g id="Group_487" data-name="Group 487" clip-path="url(#clip-path-11)">
              <path id="Path_1225" data-name="Path 1225" d="M399.723,3.544l79.8,155.878,184.1-10.822-6.252,42.875L540.454,315.263l31.7,129.54-15.667,30.824-150.968-76.57L279.051,473.068l-16.867-23.713L283.7,311.787,159.21,187.98l2.861-32.024L324.532,161.7Z" transform="translate(-159.21 -3.547)" fill="#32102a"/>
            </g>
          </g>
        </g>
        <path id="Path_1226" data-name="Path 1226" d="M407.61,0l79.8,155.878,173.642,22.646L537.461,302.578l32.128,172.15-156.181-79.2L259.617,479.27l27.075-173.009L159.513,185.872l172.906-27.717Z" transform="translate(1346.889 0.001)" fill="url(#linear-gradient)"/>
        <path id="Path_1227" data-name="Path 1227" d="M219.45,253.535l133.384,14.694A310.623,310.623,0,0,1,484.725,161.137c158.372-68.155,342,4.977,410.151,163.339s-4.968,342-163.339,410.151-342-4.977-410.151-163.339a310.723,310.723,0,0,1-15.469-201.331l-.095.151Z" transform="translate(1852.979 1145.225)" fill="#fafafa"/>
        <path id="Path_1228" data-name="Path 1228" d="M219.45,255.145c5.232,6.941,32.194,42.7,87.364,115.846l-2.059.132.085-.151a1.237,1.237,0,0,1,1.672-.482,1.256,1.256,0,0,1,.585,1.388A310.988,310.988,0,0,0,309.166,533.1c4.429,15.195,9.784,30.749,17.254,45.878,3.8,7.527,7.395,15.3,11.5,22.939q6.913,11.035,14.015,22.363A311.98,311.98,0,0,0,542.152,752.018a307.6,307.6,0,0,0,129.946.595A314.5,314.5,0,0,0,796.481,695c37.2-28.728,69.468-66.3,90.2-110.709,21.314-45.075,32.722-94.333,30.957-142.468a314.8,314.8,0,0,0-34.989-135.253c-21-40.636-50.241-75.625-84.389-101.766A313.746,313.746,0,0,0,574.95,140.97c-35.933,3.74-68.58,14.515-97.752,27.038A310.4,310.4,0,0,0,353.8,270.519a1.2,1.2,0,0,1-1.1.491L219.45,255.145c8.263.84,48.947,4.958,133.506,13.523l-1.086.491a311.041,311.041,0,0,1,123.9-104.231c29.408-12.815,62.395-23.845,98.772-27.774a317.251,317.251,0,0,1,226.48,64.076c34.7,26.461,64.444,61.923,85.825,103.163A318.913,318.913,0,0,1,922.5,441.7c1.823,48.9-9.737,98.942-31.391,144.725-21.069,45.1-53.848,83.284-91.67,112.447A318.859,318.859,0,0,1,673.08,757.25a311.726,311.726,0,0,1-131.891-.812A315.354,315.354,0,0,1,348.735,626.463q-7.154-11.488-14.109-22.693c-4.127-7.744-7.744-15.629-11.54-23.26-7.5-15.327-12.844-31.089-17.254-46.473a312.019,312.019,0,0,1-1.1-162.772l2.257.907-.085.151a1.234,1.234,0,0,1-1.662.482,1.415,1.415,0,0,1-.4-.349c-53.924-74.077-80.281-110.284-85.39-117.31" transform="translate(1852.979 1143.615)" fill="#263238"/>
        <path id="Path_1229" data-name="Path 1229" d="M250.34,158.845a33.37,33.37,0,0,1,.236,4.316c.066,3.1.151,7.092.255,12.107.132,10.9.312,26.169.548,45.387.274,39.154.642,94.362,1.086,160.43l-2.125-2.125c64.689-.094,140.91-.208,222.221-.33.567-.529-4.637,4.637-2.437,2.418V365.908q0-7.564.009-15.063,0-15.016.01-29.719.042-29.408.066-57.446c.085-37.293.17-72.5.246-104.835l2.125,2.125c-66.078-.444-121.286-.822-160.44-1.077-19.218-.245-34.479-.425-45.387-.557-5.005-.1-9-.189-12.1-.255a31.183,31.183,0,0,1-4.316-.236,21.872,21.872,0,0,1,3.853-.236c2.984-.066,6.847-.151,11.682-.255,10.794-.132,25.895-.312,44.915-.548,39.484-.265,95.146-.642,161.79-1.086l2.125-.019.01,2.144c.075,32.335.151,67.542.246,104.835q.028,27.991.056,57.446.014,14.7.019,29.719,0,7.493.01,15.063v15.138c2.191-2.172-2.994,3.041-2.484,2.5-81.311-.123-157.531-.236-222.221-.331l-2.144-.009.019-2.125c.444-66.635.822-122.3,1.086-161.79.236-19.02.416-34.12.557-44.9.094-4.845.179-8.707.246-11.691a21.876,21.876,0,0,1,.236-3.853" transform="translate(2095.702 1323.142)" fill="#263238"/>
        <path id="Path_1230" data-name="Path 1230" d="M409.043,160.922c3.192,2.531-26.707,45.585-66.786,96.156-8,10.1-15.8,19.728-23.043,28.482l-4.76,5.742-5.307-4.788c-34.715-31.268-58.268-55.265-56.134-57.73s29.3,17.339,65.285,47.124l-10.067.954c6.865-9.057,14.458-18.85,22.457-28.945,40.08-50.571,75.163-89.527,78.355-87" transform="translate(2135.251 1357.801)" fill="url(#linear-gradient)"/>
      </g>
    </g>
  </g>
</svg>
