<?xml version="1.0" encoding="UTF-8"?>
<svg id="Layer_2" data-name="Layer 2" xmlns="http://www.w3.org/2000/svg" viewBox="0 0 3665.6 2507.5">
  <defs>
    <style>
      .cls-1 {
        fill: #fff;
      }

      .cls-2 {
        fill: #6c245a;
      }

      .cls-3 {
        fill: #f4b0ca;
      }

      .cls-4 {
        fill: #eab5e3;
        opacity: .25;
      }

      .cls-5 {
        opacity: .26;
      }

      .cls-6, .cls-7 {
        fill: #f7a4c4;
      }

      .cls-8 {
        opacity: .41;
      }

      .cls-9 {
        fill: #ecf1f7;
      }

      .cls-7 {
        opacity: .33;
      }

      .cls-10 {
        fill: #0b1018;
      }

      .cls-11 {
        fill: #ef5488;
      }

      .cls-12 {
        fill: #243762;
      }
    </style>
  </defs>
  <g id="Layer_1-2" data-name="Layer 1">
    <g>
      <g>
        <g class="cls-8">
          <path class="cls-6" d="M3533.87,1793.67c17.8-397.29-178.9-738.52-475.78-930.81-55.54-35.97-91.78-95.39-99.12-161.28-.4-3.56-.82-7.14-1.26-10.71C2903.27,254.64,2495.57-51.8,2061.31,7.29c-415.38,56.52-714.41,276.02-670.24,698.72,.21,1.99,.43,4.88,.68,8.54,7.71,115.19-82.7,212.04-197.76,214.77-24.13,.57-48.43,2.12-72.86,4.67-495.56,51.78-855.05,497.13-802.27,994.32,24.14,227.4,131.46,426.57,288.23,570.39H3190.3c196.36-187.91,332.08-448.6,343.57-705.04Z"/>
        </g>
        <path class="cls-7" d="M960.34,583.98c0,58.99-47.82,106.8-106.8,106.8s-106.8-47.82-106.8-106.8,47.82-106.8,106.8-106.8,106.8,47.82,106.8,106.8Z"/>
        <circle class="cls-7" cx="3161.83" cy="176.93" r="93.79"/>
        <path class="cls-7" d="M3665.6,1091.05c0,35.25-28.58,63.83-63.83,63.83s-63.83-28.58-63.83-63.83,28.58-63.83,63.83-63.83,63.83,28.58,63.83,63.83Z"/>
        <path class="cls-7" d="M127.65,1908.35c0,35.25-28.57,63.83-63.83,63.83S0,1943.6,0,1908.35s28.58-63.83,63.83-63.83,63.83,28.58,63.83,63.83Z"/>
        <path class="cls-3" d="M3297.03,1897.41c15.18-338.83-152.57-629.85-405.77-793.84-47.36-30.68-78.28-81.35-84.53-137.55-.34-3.04-.7-6.09-1.08-9.13-46.43-372.03-394.14-633.38-764.49-582.99-354.26,48.21-609.28,235.4-571.61,595.9,.18,1.7,.37,4.16,.58,7.29,6.58,98.24-70.53,180.84-168.66,183.16-20.58,.49-41.3,1.81-62.13,3.98-422.64,44.16-729.23,423.98-684.22,848.01,20.58,193.94,112.12,363.8,245.81,486.46H3004.02c167.47-160.26,283.21-382.59,293.01-601.3Z"/>
      </g>
      <g>
        <g>
          <g>
            <g>
              <path class="cls-9" d="M3052.62,2242.51H927.61V818.67c0-23.82,19.31-43.13,43.13-43.13h2038.74c23.82,0,43.13,19.31,43.13,43.13v1423.84Z"/>
              <path class="cls-10" d="M3058.11,2248.01H922.11V818.68c0-26.81,21.81-48.64,48.62-48.64h2038.74c26.81,0,48.64,21.82,48.64,48.64v1429.33Zm-2125.01-10.99H3047.12V818.68c0-20.76-16.88-37.64-37.64-37.64H970.74c-20.75,0-37.63,16.88-37.63,37.64v1418.34Z"/>
            </g>
            <g>
              <rect class="cls-9" x="1853.71" y="2161.42" width="272.81" height="21.82"/>
              <path class="cls-10" d="M2132.01,2188.74h-283.8v-32.81h283.8v32.81Zm-272.81-10.99h261.82v-10.83h-261.82v10.83Z"/>
            </g>
            <g>
              <path class="cls-9" d="M2006.69,836.18c0,8.7-7.42,15.74-16.58,15.74s-16.58-7.05-16.58-15.74,7.42-15.74,16.58-15.74,16.58,7.05,16.58,15.74Z"/>
              <path class="cls-12" d="M1990.11,857.43c-12.17,0-22.08-9.53-22.08-21.24s9.91-21.24,22.08-21.24,22.08,9.53,22.08,21.24-9.91,21.24-22.08,21.24Zm0-31.49c-6.12,0-11.09,4.59-11.09,10.25s4.97,10.25,11.09,10.25,11.09-4.59,11.09-10.25-4.97-10.25-11.09-10.25Z"/>
            </g>
            <g>
              <path class="cls-10" d="M3277.72,2500.09H699.4c-27.98,0-50.66-15.15-50.66-33.84v-53.32c0-5.27,6.39-9.54,14.28-9.54H3316.31c7.89,0,14.28,4.27,14.28,9.54v51.84c0,19.5-23.67,35.31-52.87,35.31Z"/>
              <path class="cls-10" d="M3277.72,2505.59H699.4c-31.49,0-56.16-17.28-56.16-39.34v-53.31c0-8.44,8.69-15.04,19.78-15.04H3316.32c11.09,0,19.77,6.6,19.77,15.04v51.84c0,22.88-25.64,40.81-58.37,40.81Zm-2614.7-96.7c-5.45,0-8.79,2.62-8.79,4.05v53.31c0,15.37,20.68,28.35,45.17,28.35H3277.72c25.69,0,47.38-13.65,47.38-29.82v-51.84c0-1.43-3.34-4.05-8.78-4.05H663.02Z"/>
            </g>
          </g>
          <g>
            <g>
              <rect class="cls-1" x="1021.53" y="892" width="1937.16" height="1240.37" rx="47.21" ry="47.21"/>
              <path class="cls-10" d="M2911.48,2137.6H1068.74c-28.92,0-52.45-23.53-52.45-52.45V939.2c0-28.92,23.53-52.45,52.45-52.45h1842.74c28.93,0,52.45,23.53,52.45,52.45v1145.95c0,28.92-23.52,52.45-52.45,52.45ZM1068.74,897.23c-23.14,0-41.97,18.83-41.97,41.97v1145.95c0,23.14,18.83,41.97,41.97,41.97h1842.74c23.13,0,41.97-18.83,41.97-41.97V939.2c0-23.14-18.84-41.97-41.97-41.97H1068.74Z"/>
            </g>
            <g>
              <path class="cls-11" d="M2950.14,975.05v-32.76c0-23.84-20.98-43.17-46.85-43.17H1074.68c-25.87,0-46.85,19.33-46.85,43.17v32.88l1922.31-.13Z"/>
              <path class="cls-1" d="M2787.73,939.22c0,6.03-4.89,10.91-10.91,10.91s-10.91-4.88-10.91-10.91,4.88-10.91,10.91-10.91,10.91,4.88,10.91,10.91Z"/>
              <circle class="cls-1" cx="2820.46" cy="939.22" r="10.91"/>
              <circle class="cls-1" cx="2864.11" cy="939.22" r="10.91"/>
            </g>
          </g>
          <rect class="cls-6" x="1186.38" y="1111.79" width="1591.71" height="860.39"/>
          <g>
            <path class="cls-9" d="M935.8,2238.33l-278.82,163.86s-.06,0,0,0l2659.33-1.17-256.83-162-2123.68-.69Z"/>
            <path class="cls-10" d="M658.47,2407.69h-1.49l-.02-5.54-2.76-4.69,280.11-164.63h1.49l2125.28,.69,274.24,172.99-2676.85,1.18Zm278.82-163.86l-260.1,152.86,2620.13-1.15-239.42-151.02-2120.61-.69Z"/>
          </g>
          <g class="cls-5">
            <path class="cls-9" d="M1288.02,2238.33l-185.37,108.94s-.04,0,0,0l1767.97-.78-170.74-107.7-1411.86-.46Z"/>
            <path class="cls-12" d="M1082.44,2352.77l204.09-119.94,1414.94,.46,188.15,118.68-1807.18,.79Zm207.08-108.95l-166.65,97.94,1728.77-.75-153.33-96.72-1408.78-.46Z"/>
          </g>
        </g>
        <g>
          <path class="cls-10" d="M1741.6,1470.28c-9.1,0-16.49-7.38-16.49-16.49,0-36.37-29.58-65.96-65.95-65.96s-65.96,29.59-65.96,65.96c0,9.1-7.38,16.49-16.49,16.49s-16.49-7.38-16.49-16.49c0-54.55,44.38-98.93,98.93-98.93s98.92,44.38,98.92,98.93c0,9.1-7.39,16.49-16.49,16.49Z"/>
          <path class="cls-10" d="M2401.72,1470.28c-9.1,0-16.49-7.38-16.49-16.49,0-36.37-29.58-65.96-65.95-65.96s-65.96,29.59-65.96,65.96c0,9.1-7.39,16.49-16.49,16.49s-16.49-7.38-16.49-16.49c0-54.55,44.39-98.93,98.93-98.93s98.92,44.38,98.92,98.93c0,9.1-7.39,16.49-16.49,16.49Z"/>
          <path class="cls-10" d="M1988.93,1822.24c-148.63,0-272.19-120.85-275.43-269.4-.12-5.9,2.19-11.7,6.32-15.92,4.14-4.24,9.92-6.66,15.83-6.66h528.77v16.49c0,151.91-123.59,275.49-275.49,275.49Zm-241.96-259.01c8.55,125.61,114.84,226.03,241.96,226.03s233.46-99.96,241.96-226.03h-483.92Z"/>
        </g>
        <path class="cls-10" d="M2950.68,980.92H1466.48c-3.18,0-5.75-2.57-5.75-5.75s2.57-5.75,5.75-5.75h1484.2c3.18,0,5.75,2.57,5.75,5.75s-2.57,5.75-5.75,5.75Z"/>
      </g>
      <g>
        <g>
          <path class="cls-10" d="M2657.53,779.85v-188.94c0-100.66,74.13-182.56,165.23-182.56h133.55c91.1,0,165.23,81.9,165.23,182.56v188.94c0,100.66-74.13,182.55-165.23,182.55h-133.55c-91.1,0-165.23-81.89-165.23-182.55Zm165.23-285.46c-48.17,0-87.36,43.3-87.36,96.53v188.94c0,53.21,39.19,96.52,87.36,96.52h133.55c48.17,0,87.36-43.3,87.36-96.52v-188.94c0-53.22-39.19-96.53-87.36-96.53h-133.55Z"/>
          <path class="cls-1" d="M2956.3,967.64h-133.55c-93.99,0-170.46-84.25-170.46-187.79v-188.94c0-103.55,76.47-187.8,170.46-187.8h133.55c94.01,0,170.48,84.25,170.48,187.8v188.94c0,103.54-76.47,187.79-170.48,187.79Zm-133.55-554.04c-88.22,0-159.98,79.55-159.98,177.32v188.94c0,97.77,71.76,177.31,159.98,177.31h133.55c88.22,0,160-79.54,160-177.31v-188.94c0-97.77-71.78-177.32-160-177.32h-133.55Zm133.55,468.01h-133.55c-51.06,0-92.6-45.65-92.6-101.76v-188.94c0-56.1,41.54-101.76,92.6-101.76h133.55c51.06,0,92.6,45.66,92.6,101.76v188.94c0,56.11-41.54,101.76-92.6,101.76Zm-133.55-381.98c-45.29,0-82.12,40.95-82.12,91.28v188.94c0,50.33,36.83,91.28,82.12,91.28h133.55c45.29,0,82.12-40.95,82.12-91.28v-188.94c0-50.33-36.83-91.28-82.12-91.28h-133.55Z"/>
        </g>
        <rect class="cls-2" x="2552.06" y="715.63" width="674.95" height="560.33" rx="78.62" ry="78.62"/>
        <path class="cls-10" d="M3162.48,1281.21h-189.58c-2.89,0-5.24-2.34-5.24-5.24s2.35-5.24,5.24-5.24h189.58c32.69,0,59.29-26.6,59.29-59.28v-375.83c0-2.9,2.35-5.24,5.24-5.24s5.24,2.34,5.24,5.24v375.83c0,38.47-31.3,69.76-69.77,69.76Z"/>
        <rect class="cls-4" x="2598.22" y="792.28" width="582.62" height="433.86" rx="78.62" ry="78.62"/>
        <path class="cls-10" d="M2810.73,947.24c0-43.52,35.28-78.8,78.8-78.8s78.8,35.28,78.8,78.8c0,35.53-23.67,65.21-55.98,75.04v101.92h-45.63v-101.92c-32.31-9.83-55.98-39.52-55.98-75.04Z"/>
      </g>
      <path class="cls-10" d="M3518.49,2507.5H466.98c-4.86,0-8.79-3.93-8.79-8.79s3.94-8.79,8.79-8.79H3518.49c4.86,0,8.79,3.93,8.79,8.79s-3.93,8.79-8.79,8.79Z"/>
      <g>
        <path class="cls-11" d="M3352.45,782.63c0,70.1-56.83,126.94-126.94,126.94s-126.94-56.83-126.94-126.94,56.83-126.94,126.94-126.94,126.94,56.83,126.94,126.94Z"/>
        <path class="cls-10" d="M3105.27,902.86c-2.15-2.15-2.15-5.63,0-7.78,2.15-2.15,5.63-2.15,7.78,0,62.89,62.89,165.23,62.9,228.12,0,62.89-62.89,62.89-165.23,0-228.12s-165.22-62.89-228.11,0c-2.15,2.15-5.63,2.15-7.78,0-2.15-2.15-2.15-5.63,0-7.78,67.18-67.18,176.49-67.18,243.67,0,67.18,67.18,67.18,176.5,0,243.68-67.18,67.18-176.49,67.18-243.68,0Z"/>
        <path class="cls-1" d="M3223.7,851.67c-4.86,0-8.88-1.48-12.04-4.42-3.16-2.95-4.74-6.52-4.74-10.72s1.6-7.96,4.79-10.76c3.19-2.8,7.19-4.19,11.99-4.19s8.85,1.42,11.95,4.24c3.1,2.83,4.65,6.4,4.65,10.71s-1.53,8-4.61,10.85c-3.07,2.86-7.07,4.29-11.99,4.29Zm14.46-120.27l-2.6,65.84c-.26,6.51-5.61,11.65-12.12,11.65h0c-6.52,0-11.88-5.16-12.12-11.68l-2.47-65.84c-.26-6.87,5.25-12.58,12.12-12.58h5.06c6.89,0,12.39,5.73,12.12,12.61Z"/>
      </g>
    </g>
  </g>
</svg>