<svg xmlns="http://www.w3.org/2000/svg" xmlns:xlink="http://www.w3.org/1999/xlink" width="3833.21" height="3556.436" viewBox="0 0 3833.21 3556.436">
  <defs>
    <clipPath id="clip-path">
      <rect id="Rectangle_405" data-name="Rectangle 405" width="3833.21" height="3556.436" transform="translate(0.003 0.004)" fill="none"/>
    </clipPath>
    <clipPath id="clip-path-2">
      <path id="Path_2869" data-name="Path 2869" d="M1339.616,635.345a85.2,85.2,0,0,0-85.2,85.2V1912.4l246,356.655h455.936a85.2,85.2,0,0,0,85.2-85.188V720.541a85.2,85.2,0,0,0-85.2-85.2Z" fill="none"/>
    </clipPath>
    <linearGradient id="linear-gradient" x1="-0.319" y1="1.48" x2="-0.318" y2="1.48" gradientUnits="objectBoundingBox">
      <stop offset="0" stop-color="#ef5488"/>
      <stop offset="1" stop-color="#6c245a"/>
    </linearGradient>
  </defs>
  <g id="forgot_pasword" data-name="forgot pasword" transform="translate(-0.003 -0.004)">
    <g id="Group_1330" data-name="Group 1330">
      <g id="Group_1329" data-name="Group 1329" clip-path="url(#clip-path)">
        <path id="Path_2865" data-name="Path 2865" d="M3454.463,2909.9c-627.3,191.081-535.635-51.551-1108.265,110.51s-715.019,568.86-1106.476,533.91c-518.1-46.251-341.243-574.145-779.324-854.091-624.235-398.9-587.287-1129.451-48.528-1411.612s761.83,61.064,1088.858-205.234S2082.621-141.958,2644.58,17.841C3750.559,332.333,2917.1,1294.648,3501.538,1736.67c461.405,348.961,437.42,1025.649-47.075,1173.23" fill="#fdd8e9"/>
        <path id="Path_2866" data-name="Path 2866" d="M2882.922,1470.994s-397.279-95.346-365.5-572.086c0,0-201.589-154.841-619.759-158.734v-.179c-2.7,0-5.269.078-7.951.093-2.674-.016-5.246-.093-7.943-.093v.179c-418.168,3.894-619.757,158.734-619.757,158.734,31.779,476.739-365.5,572.086-365.5,572.086,232.4,1162.008,988.04,1255.465,993.2,1255.294,5.168.171,760.8-93.287,993.208-1255.294" fill="#ec588d"/>
        <path id="Path_2867" data-name="Path 2867" d="M2636.606,1536.021s-298.754-71.7-274.855-430.209c0,0-151.592-116.439-466.053-119.361v-.14c-2.028,0-3.964.062-5.977.07-2.013-.008-3.956-.07-5.977-.07v.14c-314.46,2.922-466.06,119.361-466.06,119.361,23.906,358.5-274.855,430.209-274.855,430.209,174.768,873.824,743.006,944.1,746.892,943.973,3.886.132,572.117-70.149,746.885-943.973" fill="#fff"/>
      </g>
    </g>
    <g id="Group_1332" data-name="Group 1332">
      <g id="Group_1331" data-name="Group 1331" clip-path="url(#clip-path-2)">
        <path id="Path_2868" data-name="Path 2868" d="M2654.5,2035.8,1929.169,378.574,641.464,868.593,1366.8,2525.82Z" fill="url(#linear-gradient)"/>
      </g>
    </g>
    <line id="Line_43" data-name="Line 43" y1="363.152" transform="translate(1221.414 1471.562)" fill="none" stroke="#000" stroke-miterlimit="10" stroke-width="1"/>
    <g id="Group_1334" data-name="Group 1334">
      <g id="Group_1333" data-name="Group 1333" clip-path="url(#clip-path)">
        <path id="Path_2870" data-name="Path 2870" d="M1975.936,595.98H1326.388a104.977,104.977,0,0,0-104.977,104.976l-3.979,770.6v363.152c14.6,26.969,25.6,52.88,36.987,77.681V720.541a85.2,85.2,0,0,1,85.2-85.2H1956.35a85.2,85.2,0,0,1,85.2,85.2V2183.859a85.2,85.2,0,0,1-85.2,85.2H1500.417c14.479,14,28.935,27.077,43.305,39.365h432.214a104.978,104.978,0,0,0,104.976-104.976V700.956a104.973,104.973,0,0,0-104.97-104.976Z" fill="#fff"/>
        <path id="Path_2871" data-name="Path 2871" d="M1992.334,1390.126v124.4l-87.147-124.4H1389.534c-47.556,0-86.113-35.44-86.113-79.165v-155.5c0-39.039,34.422-70.678,76.888-70.678h534.112c43.033,0,77.914,32.059,77.914,71.619Z" fill="#fff"/>
        <path id="Path_2872" data-name="Path 2872" d="M1804.883,1658.872H1484.321a52.952,52.952,0,0,1-52.95-52.95v-77.8a52.954,52.954,0,0,1,52.95-52.958h320.562a52.954,52.954,0,0,1,52.95,52.958v77.8a52.952,52.952,0,0,1-52.95,52.95" fill="#fecc15"/>
        <path id="Path_2873" data-name="Path 2873" d="M1841.823,700.956H1513a9.46,9.46,0,0,1-9.458-9.458V677.609a9.46,9.46,0,0,1,9.458-9.458h328.823a9.46,9.46,0,0,1,9.458,9.458V691.5a9.46,9.46,0,0,1-9.458,9.458" fill="#fff"/>
        <path id="Path_2874" data-name="Path 2874" d="M1451.05,684.558a16.4,16.4,0,1,1-16.4-16.4,16.4,16.4,0,0,1,16.4,16.4" fill="#fff"/>
        <path id="Path_2875" data-name="Path 2875" d="M1425.368,1169.421l-4.337,38.914,39.435-11,3.49,26.642-35.945,2.541,23.572,31.4-24,12.785-16.489-33.082-14.487,32.875-24.943-12.575,23.362-31.4-35.732-2.75,4.127-26.432,38.588,11-4.337-38.914Z" fill="#ec588d"/>
        <path id="Path_2876" data-name="Path 2876" d="M1543.353,1169.421l-4.337,38.914,39.435-11,3.49,26.642L1546,1226.522l23.572,31.4-24,12.785-16.484-33.085L1514.6,1270.5l-24.948-12.575,23.362-31.4-35.736-2.751,4.127-26.432,38.588,11-4.337-38.914Z" fill="#ec588d"/>
        <path id="Path_2877" data-name="Path 2877" d="M1661.335,1169.421,1657,1208.336l39.435-11,3.49,26.642-35.945,2.541,23.572,31.4-24,12.785-16.484-33.085-14.487,32.875-24.948-12.575,23.363-31.4-35.735-2.751,4.127-26.432,38.588,11-4.337-38.914Z" fill="#ec588d"/>
        <path id="Path_2878" data-name="Path 2878" d="M1779.314,1169.421l-4.337,38.914,39.443-11,3.489,26.642-35.945,2.541,23.564,31.4-24,12.785-16.476-33.085-14.487,32.878-24.948-12.575,23.362-31.4-35.735-2.751,4.127-26.432,38.588,11-4.337-38.914Z" fill="#ec588d"/>
        <path id="Path_2879" data-name="Path 2879" d="M1897.308,1169.421l-4.337,38.914,39.435-11,3.482,26.642-35.945,2.541,23.58,31.4-24,12.785-16.484-33.085-14.487,32.875-24.956-12.575,23.37-31.4-35.736-2.751,4.127-26.432,38.6,11-4.337-38.914Z" fill="#ec588d"/>
        <path id="Path_2880" data-name="Path 2880" d="M2080.912,1554.414v270.739s24.61,98.447,41.02,123.061-90.24,205.094-131.26,221.5-180.488-24.606-196.9-106.647-50.906-212.283-83.72-220.49-78.73,196.8-78.73,295.249c0,66.971,86.548,220.8,141.908,312.347,74.727,30.45,124.693,36.551,125.859,36.512,2.277.078,192.62-23.393,389.639-209.073,31.725-77.758,66.559-154.048,79.328-239.159,24.612-164.08-287.144-484.039-287.144-484.039" fill="#ffcba7"/>
        <path id="Path_2881" data-name="Path 2881" d="M2635.324,1347.221c0,119.579-96.939,216.511-216.511,216.511s-216.519-96.928-216.519-216.511,96.936-216.515,216.519-216.515,216.511,96.94,216.511,216.515" fill="#6d245a"/>
        <path id="Path_2882" data-name="Path 2882" d="M2458.178,1714.644a65.611,65.611,0,1,1-65.611-65.611,65.611,65.611,0,0,1,65.611,65.611" fill="#fecc15"/>
      </g>
    </g>
  </g>
</svg>
