<svg id="big_leaf" data-name="big leaf" xmlns="http://www.w3.org/2000/svg" width="59.703" height="177.61" viewBox="0 0 59.703 177.61">
  <path id="Path_624" data-name="Path 624" d="M488.824,226.025c1.6-1.474,9.282-10.713-.355-21.08C479.2,216.516,487.174,224.759,488.824,226.025Z" transform="translate(-433.536 -56.593)" fill="#ef5488"/>
  <path id="Path_625" data-name="Path 625" d="M490.41,228.554c1.352,1.6,9.927,9.168,20.355-1.3C500.01,218.141,491.707,226.785,490.41,228.554Z" transform="translate(-457.935 -55.086)" fill="#ef5488"/>
  <path id="Path_626" data-name="Path 626" d="M496.827,214.366c1.866-1.068,11.312-8.324,4.325-20.815C489.664,202.723,495.519,212.728,496.827,214.366Z" transform="translate(-454.938 -57.536)" fill="#ef5488"/>
  <path id="Path_627" data-name="Path 627" d="M503.256,211.662c.948,1.894,7.531,11.381,19.891,3.574C514.807,203.708,504.9,210.232,503.256,211.662Z" transform="translate(-484.226 -56.296)" fill="#ef5488"/>
  <path id="Path_628" data-name="Path 628" d="M503.26,198.772c1.963-.808,12.122-6.749,6.777-20.223C497.635,186.118,502.173,196.949,503.26,198.772Z" transform="translate(-470.81 -58.778)" fill="#ef5488"/>
  <path id="Path_629" data-name="Path 629" d="M512.154,193.073c.7,2.028,6.017,12.442,19.109,6.36C524.469,186.731,513.94,191.872,512.154,193.073Z" transform="translate(-501.977 -57.745)" fill="#ef5488"/>
  <path id="Path_630" data-name="Path 630" d="M507.4,183.964c2.079-.29,13.243-3.51,11.275-18.05C504.967,170.157,506.783,181.9,507.4,183.964Z" transform="translate(-483.998 -59.824)" fill="#ef5488"/>
  <path id="Path_631" data-name="Path 631" d="M520.76,173.174c.2,2.16,2.853,13.7,16.871,11.084C534.089,170.108,522.758,172.454,520.76,173.174Z" transform="translate(-517.663 -59.273)" fill="#ef5488"/>
  <path id="Path_632" data-name="Path 632" d="M509.491,168.373c2.081.037,13.475-1.438,13.5-16.246C508.97,154.225,509.167,166.225,509.491,168.373Z" transform="translate(-490.728 -60.965)" fill="#ef5488"/>
  <path id="Path_633" data-name="Path 633" d="M525.087,154.79c-.1,2.187.956,14.108,15.069,13.681C538.59,153.807,527.147,154.384,525.087,154.79Z" transform="translate(-524.869 -60.757)" fill="#ef5488"/>
  <path id="Path_634" data-name="Path 634" d="M509.629,151.555c2.054.258,13.46.016,14.738-14.8C510.305,137.336,509.487,149.365,509.629,151.555Z" transform="translate(-492.332 -62.238)" fill="#ef5488"/>
  <path id="Path_635" data-name="Path 635" d="M526.5,136.2c-.278,2.176-.243,14.222,13.762,15.327C539.942,136.679,528.57,136.015,526.5,136.2Z" transform="translate(-526.433 -62.285)" fill="#ef5488"/>
  <path id="Path_636" data-name="Path 636" d="M506.309,134.345c1.913.811,12.938,3.678,17.815-10.351C510.461,120.736,506.71,132.183,506.309,134.345Z" transform="translate(-488.509 -63.342)" fill="#ef5488"/>
  <path id="Path_637" data-name="Path 637" d="M526.1,115.377c-.806,2.038-3.736,13.735,9.46,18.612C538.914,119.5,528.137,115.762,526.1,115.377Z" transform="translate(-521.102 -64.008)" fill="#ef5488"/>
  <path id="Path_638" data-name="Path 638" d="M503.028,119.559c1.863.962,12.7,4.683,18.269-8.974C507.855,106.268,503.54,117.433,503.028,119.559Z" transform="translate(-482.129 -64.486)" fill="#ef5488"/>
  <path id="Path_639" data-name="Path 639" d="M523.19,99.747c-.905,1.974-4.42,13.448,8.473,19.35C535.74,104.862,525.2,100.289,523.19,99.747Z" transform="translate(-514.04 -65.301)" fill="#ef5488"/>
  <path id="Path_640" data-name="Path 640" d="M497.356,104.974c1.609,1.386,11.353,7.631,19.722-4.318C504.924,93.2,498.315,103.025,497.356,104.974Z" transform="translate(-471.769 -65.454)" fill="#ef5488"/>
  <path id="Path_641" data-name="Path 641" d="M518.561,83.266c-1.308,1.7-7.2,12.024,4.073,20.89C529.678,91.282,520.4,84.282,518.561,83.266Z" transform="translate(-499.958 -66.666)" fill="#ef5488"/>
  <path id="Path_642" data-name="Path 642" d="M490.3,90.436c1.277,1.732,9.454,10.126,20.133.463C500.162,80.755,491.647,88.763,490.3,90.436Z" transform="translate(-457.484 -66.452)" fill="#ef5488"/>
  <path id="Path_643" data-name="Path 643" d="M511.464,67.935c-1.634,1.35-9.559,10.012-.437,21.325C520.606,78.38,513.045,69.36,511.464,67.935Z" transform="translate(-480.615 -67.935)" fill="#ef5488"/>
</svg>
