<svg id="big_leaf2" data-name="big leaf2" xmlns="http://www.w3.org/2000/svg" width="59.704" height="177.611" viewBox="0 0 59.704 177.611">
  <path id="Path_624" data-name="Path 624" d="M488.477,226.025c-1.6-1.474-9.282-10.713.355-21.08C498.1,216.516,490.127,224.759,488.477,226.025Z" transform="translate(-484.062 -56.593)" fill="#ef5488"/>
  <path id="Path_625" data-name="Path 625" d="M510.765,228.554c-1.352,1.6-9.927,9.168-20.355-1.3C501.165,218.141,509.468,226.785,510.765,228.554Z" transform="translate(-483.537 -55.086)" fill="#ef5488"/>
  <path id="Path_626" data-name="Path 626" d="M501.039,214.366c-1.866-1.068-11.312-8.324-4.325-20.815C508.2,202.723,502.347,212.728,501.039,214.366Z" transform="translate(-483.225 -57.536)" fill="#ef5488"/>
  <path id="Path_627" data-name="Path 627" d="M523.147,211.662c-.948,1.894-7.531,11.381-19.891,3.574C511.6,203.708,521.507,210.232,523.147,211.662Z" transform="translate(-482.473 -56.296)" fill="#ef5488"/>
  <path id="Path_628" data-name="Path 628" d="M509.868,198.772c-1.963-.808-12.122-6.749-6.777-20.223C515.493,186.118,510.955,196.949,509.868,198.772Z" transform="translate(-482.614 -58.778)" fill="#ef5488"/>
  <path id="Path_629" data-name="Path 629" d="M531.263,193.073c-.7,2.028-6.017,12.442-19.109,6.36C518.948,186.731,529.477,191.872,531.263,193.073Z" transform="translate(-481.737 -57.745)" fill="#ef5488"/>
  <path id="Path_630" data-name="Path 630" d="M518.472,183.964c-2.079-.29-13.243-3.51-11.275-18.05C520.9,170.157,519.086,181.9,518.472,183.964Z" transform="translate(-482.167 -59.824)" fill="#ef5488"/>
  <path id="Path_631" data-name="Path 631" d="M537.631,173.174c-.2,2.16-2.853,13.7-16.871,11.084C524.3,170.108,535.633,172.454,537.631,173.174Z" transform="translate(-481.024 -59.272)" fill="#ef5488"/>
  <path id="Path_632" data-name="Path 632" d="M522.9,168.373c-2.081.037-13.475-1.438-13.5-16.246C523.425,154.225,523.228,166.225,522.9,168.373Z" transform="translate(-481.965 -60.965)" fill="#ef5488"/>
  <path id="Path_633" data-name="Path 633" d="M540.151,154.79c.1,2.187-.956,14.108-15.069,13.681C526.649,153.807,538.092,154.384,540.151,154.79Z" transform="translate(-480.667 -60.757)" fill="#ef5488"/>
  <path id="Path_634" data-name="Path 634" d="M524.354,151.555c-2.054.258-13.46.016-14.738-14.8C523.677,137.336,524.5,149.365,524.354,151.555Z" transform="translate(-481.947 -62.238)" fill="#ef5488"/>
  <path id="Path_635" data-name="Path 635" d="M540.2,136.2c.278,2.176.243,14.222-13.762,15.327C526.749,136.679,538.122,136.015,540.2,136.2Z" transform="translate(-480.554 -62.285)" fill="#ef5488"/>
  <path id="Path_636" data-name="Path 636" d="M524.124,134.345c-1.913.811-12.938,3.678-17.815-10.351C519.973,120.736,523.723,132.183,524.124,134.345Z" transform="translate(-482.22 -63.342)" fill="#ef5488"/>
  <path id="Path_637" data-name="Path 637" d="M535.357,115.377c.806,2.038,3.736,13.735-9.46,18.612C522.544,119.5,533.321,115.762,535.357,115.377Z" transform="translate(-480.652 -64.008)" fill="#ef5488"/>
  <path id="Path_638" data-name="Path 638" d="M521.3,119.559c-1.863.962-12.7,4.683-18.269-8.974C516.47,106.268,520.785,117.433,521.3,119.559Z" transform="translate(-482.492 -64.486)" fill="#ef5488"/>
  <path id="Path_639" data-name="Path 639" d="M531.47,99.747c.905,1.974,4.42,13.448-8.473,19.35C518.92,104.862,529.461,100.289,531.47,99.747Z" transform="translate(-480.916 -65.301)" fill="#ef5488"/>
  <path id="Path_640" data-name="Path 640" d="M517.078,104.974c-1.609,1.386-11.353,7.631-19.722-4.318C509.51,93.2,516.118,103.025,517.078,104.974Z" transform="translate(-482.962 -65.454)" fill="#ef5488"/>
  <path id="Path_641" data-name="Path 641" d="M522.531,83.266c1.308,1.7,7.2,12.024-4.073,20.89C511.415,91.282,520.691,84.282,522.531,83.266Z" transform="translate(-481.43 -66.666)" fill="#ef5488"/>
  <path id="Path_642" data-name="Path 642" d="M510.433,90.436c-1.277,1.732-9.454,10.126-20.133.463C500.571,80.755,509.086,88.763,510.433,90.436Z" transform="translate(-483.546 -66.452)" fill="#ef5488"/>
  <path id="Path_643" data-name="Path 643" d="M511.041,67.935c1.634,1.35,9.559,10.013.437,21.325C501.9,78.38,509.46,69.36,511.041,67.935Z" transform="translate(-482.187 -67.935)" fill="#ef5488"/>
</svg>
