<svg id="crown" xmlns="http://www.w3.org/2000/svg" width="86.627" height="59.13" viewBox="0 0 86.627 59.13">
  <g id="Group_363" data-name="Group 363">
    <g id="Group_362" data-name="Group 362">
      <g id="Group_355" data-name="Group 355">
        <g id="Group_330" data-name="Group 330" transform="translate(12.099 44.66)">
          <path id="Path_644" data-name="Path 644" d="M113.469,129.9H51.611V115.431h61.858" transform="translate(-51.611 -115.431)" fill="#ffd300"/>
        </g>
        <g id="Group_331" data-name="Group 331" transform="translate(43.027 44.66)">
          <rect id="Rectangle_110" data-name="Rectangle 110" width="30.929" height="14.469" fill="#febc00"/>
        </g>
        <g id="Group_332" data-name="Group 332" transform="translate(3.673 7.644)">
          <path id="Path_645" data-name="Path 645" d="M118.155,79.635,109.729,99H47.872L39.446,79.635l14.312,8.349,5.007-18.505L68.818,86.693,78.8,61.987l9.982,24.706L98.836,69.479l5.007,18.505Z" transform="translate(-39.446 -61.987)" fill="#ffd300"/>
        </g>
        <g id="Group_333" data-name="Group 333" transform="translate(43.027 7.644)">
          <path id="Path_646" data-name="Path 646" d="M135.621,79.635,127.2,99H96.267V61.987l9.982,24.706L116.3,69.479l5.007,18.505Z" transform="translate(-96.267 -61.987)" fill="#febc00"/>
        </g>
        <g id="Group_338" data-name="Group 338" transform="translate(38.747)">
          <g id="Group_334" data-name="Group 334">
            <path id="Path_647" data-name="Path 647" d="M98.647,55.236a4.281,4.281,0,1,1-4.28-4.286A4.279,4.279,0,0,1,98.647,55.236Z" transform="translate(-90.086 -50.95)" fill="#ffd300"/>
          </g>
          <g id="Group_335" data-name="Group 335" transform="translate(0.56 2.545)">
            <path id="Path_648" data-name="Path 648" d="M91.067,57.49a3.74,3.74,0,0,1,.257-2.866l.588.311a3.064,3.064,0,0,0-.211,2.353Z" transform="translate(-90.894 -54.624)" fill="#fff"/>
          </g>
          <g id="Group_336" data-name="Group 336" transform="translate(1.337 1.447)">
            <path id="Path_649" data-name="Path 649" d="M92.543,54.005l-.526-.407a3.771,3.771,0,0,1,.533-.559l.431.506A3.031,3.031,0,0,0,92.543,54.005Z" transform="translate(-92.017 -53.039)" fill="#fff"/>
          </g>
          <g id="Group_337" data-name="Group 337" transform="translate(4.281)">
            <path id="Path_650" data-name="Path 650" d="M100.547,55.236a4.279,4.279,0,0,1-4.28,4.281V50.95A4.283,4.283,0,0,1,100.547,55.236Z" transform="translate(-96.267 -50.95)" fill="#febc00"/>
          </g>
        </g>
        <g id="Group_342" data-name="Group 342" transform="translate(19.565 9.345)">
          <g id="Group_339" data-name="Group 339">
            <path id="Path_651" data-name="Path 651" d="M69.253,67.877a3.431,3.431,0,1,1-3.431-3.435A3.429,3.429,0,0,1,69.253,67.877Z" transform="translate(-62.391 -64.442)" fill="#ffd300"/>
          </g>
          <g id="Group_340" data-name="Group 340" transform="translate(0.382 2.009)">
            <path id="Path_652" data-name="Path 652" d="M63.085,69.69a3.056,3.056,0,0,1,.21-2.348l.589.311a2.388,2.388,0,0,0-.276,1.115,2.358,2.358,0,0,0,.112.72Z" transform="translate(-62.942 -67.342)" fill="#fff"/>
          </g>
          <g id="Group_341" data-name="Group 341" transform="translate(1.02 1.11)">
            <path id="Path_653" data-name="Path 653" d="M64.389,66.908l-.526-.405a3,3,0,0,1,.436-.459l.431.506A2.38,2.38,0,0,0,64.389,66.908Z" transform="translate(-63.863 -66.044)" fill="#fff"/>
          </g>
        </g>
        <g id="Group_346" data-name="Group 346" transform="translate(0 19.487)">
          <g id="Group_343" data-name="Group 343">
            <path id="Path_654" data-name="Path 654" d="M41,82.52a3.431,3.431,0,1,1-3.43-3.435A3.429,3.429,0,0,1,41,82.52Z" transform="translate(-34.143 -79.085)" fill="#ffd300"/>
          </g>
          <g id="Group_344" data-name="Group 344" transform="translate(0.382 2.009)">
            <path id="Path_655" data-name="Path 655" d="M34.836,84.332a3.066,3.066,0,0,1,.211-2.347l.588.311a2.4,2.4,0,0,0-.166,1.837Z" transform="translate(-34.695 -81.985)" fill="#fff"/>
          </g>
          <g id="Group_345" data-name="Group 345" transform="translate(1.02 1.11)">
            <path id="Path_656" data-name="Path 656" d="M36.141,81.552l-.526-.407a3.1,3.1,0,0,1,.436-.458l.431.506A2.4,2.4,0,0,0,36.141,81.552Z" transform="translate(-35.615 -80.687)" fill="#fff"/>
          </g>
        </g>
        <g id="Group_350" data-name="Group 350" transform="translate(60.2 9.345)">
          <g id="Group_347" data-name="Group 347">
            <path id="Path_657" data-name="Path 657" d="M121.061,67.877a3.431,3.431,0,1,0,3.43-3.435A3.429,3.429,0,0,0,121.061,67.877Z" transform="translate(-121.061 -64.442)" fill="#febc00"/>
          </g>
          <g id="Group_348" data-name="Group 348" transform="translate(5.539 2.009)">
            <path id="Path_658" data-name="Path 658" d="M129.857,69.689l-.634-.2a2.4,2.4,0,0,0-.166-1.836l.588-.311a3.066,3.066,0,0,1,.211,2.347Z" transform="translate(-129.058 -67.342)" fill="#fff"/>
          </g>
          <g id="Group_349" data-name="Group 349" transform="translate(4.974 1.11)">
            <path id="Path_659" data-name="Path 659" d="M128.585,66.909a2.365,2.365,0,0,0-.342-.359l.432-.506a3.143,3.143,0,0,1,.437.457Z" transform="translate(-128.243 -66.044)" fill="#fff"/>
          </g>
        </g>
        <g id="Group_354" data-name="Group 354" transform="translate(79.765 19.487)">
          <g id="Group_351" data-name="Group 351">
            <path id="Path_660" data-name="Path 660" d="M149.309,82.52a3.431,3.431,0,1,0,3.43-3.435A3.429,3.429,0,0,0,149.309,82.52Z" transform="translate(-149.309 -79.085)" fill="#febc00"/>
          </g>
          <g id="Group_352" data-name="Group 352" transform="translate(5.538 2.009)">
            <path id="Path_661" data-name="Path 661" d="M158.1,84.332l-.634-.2A2.395,2.395,0,0,0,157.3,82.3l.589-.311a3.06,3.06,0,0,1,.211,2.347Z" transform="translate(-157.305 -81.985)" fill="#fff"/>
          </g>
          <g id="Group_353" data-name="Group 353" transform="translate(4.974 1.11)">
            <path id="Path_662" data-name="Path 662" d="M156.833,81.552a2.433,2.433,0,0,0-.342-.359l.432-.5a3.09,3.09,0,0,1,.436.457Z" transform="translate(-156.491 -80.688)" fill="#fff"/>
          </g>
        </g>
      </g>
      <g id="Group_361" data-name="Group 361" transform="translate(12.098 47.623)">
        <g id="Group_356" data-name="Group 356" transform="translate(24.604)">
          <path id="Path_663" data-name="Path 663" d="M99.553,124.181l-6.245,4.471-6.173-4.471,6.173-4.472Z" transform="translate(-87.135 -119.709)" fill="#fba700"/>
        </g>
        <g id="Group_357" data-name="Group 357" transform="translate(12.302)">
          <path id="Path_664" data-name="Path 664" d="M81.791,124.181l-6.245,4.471-6.173-4.471,6.173-4.472Z" transform="translate(-69.373 -119.709)" fill="#fba700"/>
        </g>
        <g id="Group_358" data-name="Group 358">
          <path id="Path_665" data-name="Path 665" d="M64.029,124.181l-6.245,4.471-6.173-4.471,6.173-4.472Z" transform="translate(-51.611 -119.709)" fill="#fba700"/>
        </g>
        <g id="Group_359" data-name="Group 359" transform="translate(37.022)">
          <path id="Path_666" data-name="Path 666" d="M117.482,124.181l-6.245,4.471-6.173-4.471,6.173-4.472Z" transform="translate(-105.064 -119.709)" fill="#fba700"/>
        </g>
        <g id="Group_360" data-name="Group 360" transform="translate(49.44)">
          <path id="Path_667" data-name="Path 667" d="M135.411,124.181l-6.245,4.471-6.173-4.471,6.173-4.472Z" transform="translate(-122.993 -119.709)" fill="#fba700"/>
        </g>
      </g>
    </g>
  </g>
  <g id="Group_364" data-name="Group 364" transform="translate(10.689 44.659)">
    <rect id="Rectangle_111" data-name="Rectangle 111" width="64.445" height="1.373" fill="#fba700"/>
  </g>
  <g id="Group_365" data-name="Group 365" transform="translate(10.689 57.756)">
    <rect id="Rectangle_112" data-name="Rectangle 112" width="64.445" height="1.373" fill="#fba700"/>
  </g>
</svg>
