<svg id="small_leaf2" data-name="small leaf2" xmlns="http://www.w3.org/2000/svg" width="50.971" height="102.353" viewBox="0 0 50.971 102.353">
  <g id="Group_329" data-name="Group 329" transform="matrix(0.982, -0.191, 0.191, 0.982, 0, 6.278)">
    <path id="Path_624" data-name="Path 624" d="M2.432,11.616c-.881-.812-5.115-5.9.2-11.616C7.736,6.376,3.342,10.919,2.432,11.616Z" transform="translate(0 81.751)" fill="#ef5488"/>
    <path id="Path_625" data-name="Path 625" d="M11.217,2.979c-.745.88-5.47,5.052-11.217-.714C5.927-2.76,10.5,2,11.217,2.979Z" transform="translate(3.788 92.613)" fill="#ef5488"/>
    <path id="Path_626" data-name="Path 626" d="M3.783,11.471C2.755,10.882-2.451,6.883,1.4,0,7.73,5.054,4.5,10.568,3.783,11.471Z" transform="translate(6.034 74.952)" fill="#ef5488"/>
    <path id="Path_627" data-name="Path 627" d="M10.961,1.726C10.438,2.769,6.811,8,0,3.7,4.6-2.657,10.058.937,10.961,1.726Z" transform="translate(11.452 83.89)" fill="#ef5488"/>
    <path id="Path_628" data-name="Path 628" d="M4.581,11.144C3.5,10.7-2.1,7.425.847,0,7.681,4.171,5.18,10.139,4.581,11.144Z" transform="translate(10.437 66.001)" fill="#ef5488"/>
    <path id="Path_629" data-name="Path 629" d="M10.53,1.126C10.143,2.244,7.214,7.983,0,4.631,3.744-2.369,9.546.464,10.53,1.126Z" transform="translate(16.762 73.448)" fill="#ef5488"/>
    <path id="Path_630" data-name="Path 630" d="M6.341,9.947C5.2,9.787-.957,8.012.128,0,7.68,2.338,6.679,8.811,6.341,9.947Z" transform="translate(13.665 58.462)" fill="#ef5488"/>
    <path id="Path_631" data-name="Path 631" d="M9.3.33C9.189,1.52,7.725,7.878,0,6.438,1.952-1.359,8.2-.067,9.3.33Z" transform="translate(21.897 62.436)" fill="#ef5488"/>
    <path id="Path_632" data-name="Path 632" d="M7.441,8.953C6.294,8.973.016,8.16,0,0,7.728,1.156,7.62,7.769,7.441,8.953Z" transform="translate(15.119 50.235)" fill="#ef5488"/>
    <path id="Path_633" data-name="Path 633" d="M8.3.081C8.357,1.286,7.777,7.855,0,7.62.863-.461,7.169-.143,8.3.081Z" transform="translate(24.475 51.737)" fill="#ef5488"/>
    <path id="Path_634" data-name="Path 634" d="M8.121,8.155C6.989,8.3.7,8.164,0,0,7.748.32,8.2,6.949,8.121,8.155Z" transform="translate(15.247 41.063)" fill="#ef5488"/>
    <path id="Path_635" data-name="Path 635" d="M7.584.012C7.737,1.211,7.717,7.85,0,8.458.174.275,6.441-.09,7.584.012Z" transform="translate(25.282 40.72)" fill="#ef5488"/>
    <path id="Path_636" data-name="Path 636" d="M9.817,6.023C8.763,6.47,2.687,8.05,0,.319,7.53-1.476,9.6,4.832,9.817,6.023Z" transform="translate(13.274 33.103)" fill="#ef5488"/>
    <path id="Path_637" data-name="Path 637" d="M5.567,0C6.011,1.123,7.625,7.569.354,10.256-1.494,2.272,4.445.212,5.567,0Z" transform="translate(24.579 28.308)" fill="#ef5488"/>
    <path id="Path_638" data-name="Path 638" d="M10.067,5.487C9.04,6.017,3.071,8.068,0,.542,7.407-1.837,9.785,4.315,10.067,5.487Z" transform="translate(11.316 24.861)" fill="#ef5488"/>
    <path id="Path_639" data-name="Path 639" d="M5.181,0C5.68,1.088,7.617,7.411.512,10.663-1.735,2.819,4.074.3,5.181,0Z" transform="translate(22.677 18.981)" fill="#ef5488"/>
    <path id="Path_640" data-name="Path 640" d="M10.868,3.9C9.981,4.661,4.612,8.1,0,1.518,6.7-2.589,10.339,2.823,10.868,3.9Z" transform="translate(7.932 17.88)" fill="#ef5488"/>
    <path id="Path_641" data-name="Path 641" d="M3.68,0C4.4.939,7.649,6.626,1.435,11.512-2.446,4.417,2.665.56,3.68,0Z" transform="translate(18.97 9.148)" fill="#ef5488"/>
    <path id="Path_642" data-name="Path 642" d="M11.095,2.525c-.7.955-5.21,5.58-11.095.255C5.66-2.81,10.352,1.6,11.095,2.525Z" transform="translate(3.722 10.692)" fill="#ef5488"/>
    <path id="Path_643" data-name="Path 643" d="M2.385,0c.9.744,5.268,5.517.241,11.752C-2.653,5.756,1.514.785,2.385,0Z" transform="translate(13.515 0)" fill="#ef5488"/>
  </g>
</svg>
