<svg id="Small_leaf_1" data-name="Small leaf 1" xmlns="http://www.w3.org/2000/svg" width="50.971" height="102.353" viewBox="0 0 50.971 102.353">
  <g id="Group_328" data-name="Group 328" transform="translate(32.296 102.353) rotate(-169)">
    <path id="Path_624" data-name="Path 624" d="M2.432,0c-.881.812-5.115,5.9.2,11.616C7.736,5.24,3.342.7,2.432,0Z" transform="translate(0 4.507)" fill="#ef5488"/>
    <path id="Path_625" data-name="Path 625" d="M11.217,2.282C10.472,1.4,5.747-2.77,0,3,5.927,8.021,10.5,3.257,11.217,2.282Z" transform="translate(3.787 0)" fill="#ef5488"/>
    <path id="Path_626" data-name="Path 626" d="M3.783,0C2.755.588-2.451,4.587,1.4,11.471,7.73,6.416,4.5.9,3.783,0Z" transform="translate(6.034 11.451)" fill="#ef5488"/>
    <path id="Path_627" data-name="Path 627" d="M10.961,3.643C10.438,2.6,6.811-2.629,0,1.673,4.6,8.026,10.058,4.431,10.961,3.643Z" transform="translate(11.452 8.615)" fill="#ef5488"/>
    <path id="Path_628" data-name="Path 628" d="M4.581,0C3.5.445-2.1,3.719.847,11.144,7.681,6.973,5.18,1,4.581,0Z" transform="translate(10.437 20.729)" fill="#ef5488"/>
    <path id="Path_629" data-name="Path 629" d="M10.53,4.543C10.143,3.425,7.214-2.313,0,1.038,3.744,8.038,9.546,5.2,10.53,4.543Z" transform="translate(16.762 18.757)" fill="#ef5488"/>
    <path id="Path_630" data-name="Path 630" d="M6.341,0C5.2.16-.957,1.934.128,9.947,7.68,7.608,6.679,1.135,6.341,0Z" transform="translate(13.665 29.465)" fill="#ef5488"/>
    <path id="Path_631" data-name="Path 631" d="M9.3,6.319C9.189,5.129,7.725-1.229,0,.211,1.952,8.009,8.2,6.716,9.3,6.319Z" transform="translate(21.897 28.788)" fill="#ef5488"/>
    <path id="Path_632" data-name="Path 632" d="M7.441,0C6.294-.02.016.793,0,8.953,7.728,7.8,7.62,1.184,7.441,0Z" transform="translate(15.119 38.685)" fill="#ef5488"/>
    <path id="Path_633" data-name="Path 633" d="M8.3,7.545C8.357,6.34,7.777-.229,0,.006.863,8.087,7.169,7.769,8.3,7.545Z" transform="translate(24.475 38.511)" fill="#ef5488"/>
    <path id="Path_634" data-name="Path 634" d="M8.121.027C6.989-.115.7.018,0,8.182,7.748,7.862,8.2,1.233,8.121.027Z" transform="translate(15.247 48.628)" fill="#ef5488"/>
    <path id="Path_635" data-name="Path 635" d="M7.584,8.446C7.737,7.247,7.717.609,0,0,.174,8.183,6.441,8.549,7.584,8.446Z" transform="translate(25.282 48.696)" fill="#ef5488"/>
    <path id="Path_636" data-name="Path 636" d="M9.817.438C8.763-.009,2.687-1.589,0,6.143,7.53,7.937,9.6,1.629,9.817.438Z" transform="translate(13.274 58.309)" fill="#ef5488"/>
    <path id="Path_637" data-name="Path 637" d="M5.567,10.256C6.011,9.133,7.625,2.687.354,0-1.494,7.985,4.445,10.044,5.567,10.256Z" transform="translate(24.579 59.31)" fill="#ef5488"/>
    <path id="Path_638" data-name="Path 638" d="M10.067.656C9.04.126,3.071-1.925,0,5.6,7.407,7.98,9.785,1.828,10.067.656Z" transform="translate(11.316 66.869)" fill="#ef5488"/>
    <path id="Path_639" data-name="Path 639" d="M5.181,10.663C5.68,9.575,7.617,3.252.512,0-1.735,7.845,4.074,10.364,5.181,10.663Z" transform="translate(22.677 68.229)" fill="#ef5488"/>
    <path id="Path_640" data-name="Path 640" d="M10.868,1.58C9.981.816,4.612-2.626,0,3.959,6.7,8.066,10.339,2.654,10.868,1.58Z" transform="translate(7.932 74.516)" fill="#ef5488"/>
    <path id="Path_641" data-name="Path 641" d="M3.68,11.512C4.4,10.573,7.649,4.886,1.435,0-2.446,7.094,2.665,10.952,3.68,11.512Z" transform="translate(18.969 77.214)" fill="#ef5488"/>
    <path id="Path_642" data-name="Path 642" d="M11.095,2.774c-.7-.955-5.21-5.58-11.095-.255C5.66,8.109,10.352,3.7,11.095,2.774Z" transform="translate(3.722 81.883)" fill="#ef5488"/>
    <path id="Path_643" data-name="Path 643" d="M2.385,11.752c.9-.744,5.268-5.517.241-11.752C-2.653,6,1.514,10.966,2.385,11.752Z" transform="translate(13.515 86.122)" fill="#ef5488"/>
  </g>
</svg>
