<svg xmlns="http://www.w3.org/2000/svg" xmlns:xlink="http://www.w3.org/1999/xlink" width="2885.871" height="3315.02" viewBox="0 0 2885.871 3315.02">
  <defs>
    <clipPath id="clip-path">
      <rect id="Rectangle_358" data-name="Rectangle 358" width="2885.87" height="3315.02" fill="none"/>
    </clipPath>
    <clipPath id="clip-path-2">
      <rect id="Rectangle_316" data-name="Rectangle 316" width="2885.86" height="3315.01" transform="translate(0 0.005)" fill="none"/>
    </clipPath>
    <clipPath id="clip-path-3">
      <rect id="Rectangle_313" data-name="Rectangle 313" width="1488.23" height="1268.81" transform="translate(286.669 35.49)" fill="none"/>
    </clipPath>
    <clipPath id="clip-path-4">
      <rect id="Rectangle_314" data-name="Rectangle 314" width="641.09" height="437.61" transform="translate(438.14 47.58)" fill="none"/>
    </clipPath>
    <clipPath id="clip-path-5">
      <rect id="Rectangle_315" data-name="Rectangle 315" width="655.37" height="456.02" transform="translate(1079.23 28.92)" fill="none"/>
    </clipPath>
    <clipPath id="clip-path-7">
      <path id="Path_2476" data-name="Path 2476" d="M2178.44,1623.74s32.111,163.454,43.722,163.454,226.827-25.751,226.827-25.751v-46.6l-170.22,6.252-41.121-121.474Z" fill="none"/>
    </clipPath>
    <linearGradient id="linear-gradient" x1="-7.955" y1="8.944" x2="-7.952" y2="8.944" gradientUnits="objectBoundingBox">
      <stop offset="0" stop-color="#febbba"/>
      <stop offset="1" stop-color="#ff928e"/>
    </linearGradient>
    <clipPath id="clip-path-9">
      <path id="Path_2478" data-name="Path 2478" d="M1987.42,1424.47s60.99,29.442,112.782,3.957l-16.347-108.662-67.247-7.378Z" fill="none"/>
    </clipPath>
    <linearGradient id="linear-gradient-2" x1="-11.28" y1="12.755" x2="-11.274" y2="12.755" xlink:href="#linear-gradient"/>
    <clipPath id="clip-path-10">
      <path id="Path_2479" data-name="Path 2479" d="M2016.14,1222.08c-15.336,20.587-5.755,88.2-5.755,88.2,5.892,43.76,33.881,78.128,79.1,86.4s46.1-18.495,57.6-56,6.849-118.762,6.849-118.762-54.139-9.03-94.933-9.029c-20.557,0-37.73,2.294-42.868,9.192" fill="none"/>
    </clipPath>
    <linearGradient id="linear-gradient-3" x1="-9.524" y1="9.219" x2="-9.519" y2="9.219" xlink:href="#linear-gradient"/>
    <clipPath id="clip-path-12">
      <path id="Path_2488" data-name="Path 2488" d="M1912.8,1660.59s54.842,114.7,75.609,126.61,135.542-16.747,146.93-16.747,31.262-9,31.262-9,12.951,15.032,21.437,14.39c5.027-.382,2.686-6.67-.056-11.731,3.112,4.393,7.782,9.738,13.007,11.48,9.378,3.127-6.253-24.116-6.253-24.116s19.009,20.631,26.8,19.65-6.7-22.776-6.7-22.776,16.524,17.863,20.1,17.863,16.971.448-11.611-29.921-189.357-5.359-189.357-5.359L1977.113,1631Z" fill="none"/>
    </clipPath>
    <linearGradient id="linear-gradient-4" x1="-5.591" y1="9.709" x2="-5.588" y2="9.709" xlink:href="#linear-gradient"/>
    <clipPath id="clip-path-14">
      <path id="Path_2509" data-name="Path 2509" d="M747.693,1765.38c-45.037,16.447-76.481,20.576-98.108,16.889a111.2,111.2,0,0,0-13.485,66.04c45.972.8,84.679-23.585,102.078-36.668a14.516,14.516,0,0,1,20.067,2.422c4.966,6.223,9.341,14.181,6.654,20.857-5.3,13.165,9.539,21.2,11.889,16.528s2.58-35.581,2.58-35.581,24.265,39.264,33.783,54.4,27.932,6.513,27.932,6.513-6.567-69.718-31.053-96.862c-12.693-14.07-28.978-17.458-41.72-17.459a71.884,71.884,0,0,0-20.617,2.925" fill="none"/>
    </clipPath>
    <linearGradient id="linear-gradient-5" x1="-3.917" y1="6.976" x2="-3.911" y2="6.976" xlink:href="#linear-gradient"/>
    <clipPath id="clip-path-15">
      <rect id="Rectangle_327" data-name="Rectangle 327" width="29.209" height="315.873" transform="translate(415.491 2158.444)" fill="none"/>
    </clipPath>
    <linearGradient id="linear-gradient-6" x1="-4.983" y1="3.655" x2="-4.97" y2="3.655" gradientUnits="objectBoundingBox">
      <stop offset="0" stop-color="#53d8ff"/>
      <stop offset="1" stop-color="#3840f7"/>
    </linearGradient>
    <clipPath id="clip-path-16">
      <path id="Path_2510" data-name="Path 2510" d="M321.2,2461.39a19.013,19.013,0,0,0-19.013,19.013H558.008a19.013,19.013,0,0,0-19.013-19.013Z" fill="none"/>
    </clipPath>
    <linearGradient id="linear-gradient-7" x1="-1.182" y1="14.821" x2="-1.179" y2="14.821" xlink:href="#linear-gradient-6"/>
    <clipPath id="clip-path-17">
      <path id="Rectangle_330" data-name="Rectangle 330" d="M31.411,0H290.239A31.411,31.411,0,0,1,321.65,31.411v28.4a31.412,31.412,0,0,1-31.412,31.412H31.41A31.41,31.41,0,0,1,0,59.813v-28.4A31.411,31.411,0,0,1,31.413,0Z" transform="translate(264.217 2087.668)" fill="none"/>
    </clipPath>
    <linearGradient id="linear-gradient-8" x1="-0.78" y1="8.905" x2="-0.777" y2="8.905" xlink:href="#linear-gradient-6"/>
    <clipPath id="clip-path-18">
      <path id="Path_2511" data-name="Path 2511" d="M541.171,2080.7l105,5.107s-36.588,39.064-34.714,95.68l-2.2,127.079a35.42,35.42,0,0,1-24.735,33.157L565.8,2347.64l43.78,118.46h65.746L649.8,2442.17l-13.764-64.054a36.836,36.836,0,0,1,3.535-25.274c79.224-146.32,103.248-296.131,109.092-342.415a24.324,24.324,0,0,0-10.735-23.248c-48.8-32.622-92.2-39.351-92.2-39.351Z" fill="none"/>
    </clipPath>
    <linearGradient id="linear-gradient-9" x1="-2.594" y1="2.638" x2="-2.589" y2="2.638" xlink:href="#linear-gradient"/>
    <clipPath id="clip-path-19">
      <path id="Path_2512" data-name="Path 2512" d="M551.645,2348.69c0,44.188,49.326,130.009,49.326,130.009,35.584,17.139,106.015,6.8,100.027-1.037-8.834-11.562-33.5-21.787-33.5-21.787s-31.44,10.231-48.928-1.151-34.051-113-34.051-113c-2.95-.208-5.639-.3-8.092-.3-21.626,0-24.786,7.267-24.786,7.267" fill="none"/>
    </clipPath>
    <linearGradient id="linear-gradient-10" x1="-3.313" y1="5.959" x2="-3.307" y2="5.959" gradientUnits="objectBoundingBox">
      <stop offset="0" stop-color="#cb236d"/>
      <stop offset="1" stop-color="#4c246d"/>
    </linearGradient>
    <clipPath id="clip-path-20">
      <path id="Path_2513" data-name="Path 2513" d="M554.455,2087.67c.559-.967,113.047-13.527,113.047-13.527s-3.681,34.2,7.824,81.286S851.989,2406.5,851.989,2406.5l-17.317,54.9c53.542,18.652,106.211,21.633,158.036,9.507l-107.32-64.4s-100.441-342.283-161.964-403.345l-112.756-39.009Z" fill="none"/>
    </clipPath>
    <linearGradient id="linear-gradient-11" x1="-1.265" y1="2.603" x2="-1.263" y2="2.603" xlink:href="#linear-gradient"/>
    <clipPath id="clip-path-21">
      <path id="Path_2514" data-name="Path 2514" d="M232.056,2028.87c-5.318,43.972,17.753,61.839,85.755,64.786s249.54,2.9,249.54,2.9l154.94-132.416s-112.914-40.292-142.271-51.684S302.184,1888.5,302.184,1888.5s-64.81,96.4-70.128,140.367" fill="none"/>
    </clipPath>
    <linearGradient id="linear-gradient-12" x1="-0.458" y1="6.855" x2="-0.456" y2="6.855" gradientUnits="objectBoundingBox">
      <stop offset="0" stop-color="#ff928e"/>
      <stop offset="1" stop-color="#fe7062"/>
    </linearGradient>
    <clipPath id="clip-path-22">
      <path id="Path_2515" data-name="Path 2515" d="M835.166,2481.05s147.691,26.178,187.79,14.3c0,0-8.326-19-53.479-40.635l3.331,2.557a5.394,5.394,0,0,1-3.563,9.677c-29.754-1.7-91.329-7.148-128.029-24.049,0,0-18.645,18.057-6.05,38.149" fill="none"/>
    </clipPath>
    <linearGradient id="linear-gradient-13" x1="-4.02" y1="11.376" x2="-4.015" y2="11.376" xlink:href="#linear-gradient-10"/>
    <clipPath id="clip-path-24">
      <path id="Path_2518" data-name="Path 2518" d="M472.436,1527.63c21.986,15.028,68.7,12.515,70.424,11s23.814-74.742,24.7-77.677l-40.585-39.994Z" fill="none"/>
    </clipPath>
    <linearGradient id="linear-gradient-14" x1="-3.355" y1="16.762" x2="-3.347" y2="16.762" xlink:href="#linear-gradient"/>
    <clipPath id="clip-path-25">
      <path id="Path_2519" data-name="Path 2519" d="M520.547,1400.28c-5.352,54.545,17.183,85.186,35.459,103.245s51.707,18.117,81.239-38.3,18.857-98.363,18.857-98.363c-5.542-19.183-23.922-27.3-45.448-27.3-38.351,0-86.678,25.784-90.107,60.72" fill="none"/>
    </clipPath>
    <linearGradient id="linear-gradient-15" x1="-2.174" y1="9.836" x2="-2.17" y2="9.836" xlink:href="#linear-gradient"/>
    <clipPath id="clip-path-27">
      <path id="Path_2521" data-name="Path 2521" d="M529.037,1411.47l19.815-9.239s25.412-38.356-.627-44.076a20.857,20.857,0,0,0-4.473-.519c-21.075,0-17.353,38.875-14.715,53.834" fill="none"/>
    </clipPath>
    <linearGradient id="linear-gradient-16" x1="-7.625" y1="29.71" x2="-7.611" y2="29.71" xlink:href="#linear-gradient"/>
    <clipPath id="clip-path-28">
      <path id="Path_2522" data-name="Path 2522" d="M221.031,1861.3a26.392,26.392,0,0,0,9.642,30.321c8.543,6.071,18.559,12.743,24.941,15.535,13,5.69,320.587-3.935,320.587-3.935l55.006-22.14-55.45-53.446-76.708,32.406s-76.354,11.829-120.054,0l-43.7-11.831-98.753-30.744Z" fill="none"/>
    </clipPath>
    <linearGradient id="linear-gradient-17" x1="-0.524" y1="15.701" x2="-0.522" y2="15.701" xlink:href="#linear-gradient"/>
    <clipPath id="clip-path-30">
      <path id="Path_2545" data-name="Path 2545" d="M1704.54,3179.97c-2.719,9.533,1.1,20.007,9.766,24.831a56.4,56.4,0,0,0,18.124,5.891,25.138,25.138,0,0,0,27.065-14.135l22.981-49.716-59.918-30.046Z" fill="none"/>
    </clipPath>
    <linearGradient id="linear-gradient-18" x1="-19.8" y1="2.002" x2="-19.788" y2="2.002" xlink:href="#linear-gradient"/>
    <clipPath id="clip-path-31">
      <path id="Path_2546" data-name="Path 2546" d="M1480.91,2578.74l-48.032,123.883s147.751,10.8,279.691,87.719c117.357,68.417.117,331.739.117,331.739,46.08,35.281,82.4,33.5,82.4,33.5s202.781-352.712,81.343-453.063-393.367-132.152-393.367-132.152Z" fill="none"/>
    </clipPath>
    <linearGradient id="linear-gradient-19" x1="-1.649" y1="1.07" x2="-1.648" y2="1.07" gradientUnits="objectBoundingBox">
      <stop offset="0" stop-color="#2b3582"/>
      <stop offset="0.239" stop-color="#24296f"/>
      <stop offset="0.731" stop-color="#19154e"/>
      <stop offset="1" stop-color="#150e42"/>
    </linearGradient>
    <clipPath id="clip-path-32">
      <path id="Path_2547" data-name="Path 2547" d="M1230.84,2712.43c62.506,45.337,208.232,92.216,245.462,187.338s73.511,234.914,149.589,297.6c0,0,75.41,21.318,93.326,0,0,0-53.361-262.359-84.538-332.979-27-61.157-66.678-149.392-135.953-196.106-19.832-13.372-17.779-36.4-10.179-59.082l13.838-41.3-283.07-64.059s-50.981,163.255,11.525,208.59" fill="none"/>
    </clipPath>
    <linearGradient id="linear-gradient-20" x1="-2.037" y1="1.123" x2="-2.035" y2="1.123" gradientUnits="objectBoundingBox">
      <stop offset="0" stop-color="#09005d"/>
      <stop offset="1" stop-color="#1a0f91"/>
    </linearGradient>
    <clipPath id="clip-path-34">
      <path id="Path_2549" data-name="Path 2549" d="M1947.82,2289.47c-48.168,35.445-84.371,51.387-111.554,54.539a138.69,138.69,0,0,0,6.955,83.783c55.319-15.127,93.134-57.857,109.389-79.607a18.1,18.1,0,0,1,24.871-4.12c8.123,5.714,16.144,13.711,15.264,22.644-1.737,17.615,18.836,22.048,20.014,15.63s-9.356-43.5-9.356-43.5,42.786,38.522,59.474,53.31,35.721-1.974,35.721-1.974-32.249-81.173-71.061-105.106a63.8,63.8,0,0,0-34-9.6c-25.5,0-45.718,14.008-45.718,14.008" fill="none"/>
    </clipPath>
    <linearGradient id="linear-gradient-21" x1="-6.613" y1="6.272" x2="-6.609" y2="6.272" xlink:href="#linear-gradient"/>
    <clipPath id="clip-path-36">
      <path id="Path_2551" data-name="Path 2551" d="M1564.6,1984.8a28.635,28.635,0,0,0-2.072,30.945c11.095,19.787,36.386,48.089,88.626,41.1a44.158,44.158,0,0,0,34.879-26.731l44.489-106.6-98.9-29.756Z" fill="none"/>
    </clipPath>
    <linearGradient id="linear-gradient-22" x1="-8.502" y1="7.948" x2="-8.496" y2="7.948" xlink:href="#linear-gradient"/>
    <clipPath id="clip-path-38">
      <path id="Path_2554" data-name="Path 2554" d="M1513.23,2320.72s-199.064,90.22-252,33.556a33.392,33.392,0,0,1-7.55-13.26c-32.461,18.416-77.969,57.871-103.365,139.824,110.768,62.455,287.767-54.049,335.483-88.148a36.97,36.97,0,0,1,27.049-6.523c19.291,2.9,52.559,6.9,70.178,3.177,11.38-2.4,26,13.732,42.279,29.866,20.585,20.405,43.814,40.812,66.471,23.715,0,0-36.325-127.325-140.877-127.337a147.55,147.55,0,0,0-37.668,5.13" fill="none"/>
    </clipPath>
    <linearGradient id="linear-gradient-23" x1="-2.679" y1="2.011" x2="-2.676" y2="2.011" xlink:href="#linear-gradient"/>
    <clipPath id="clip-path-39">
      <path id="Path_2555" data-name="Path 2555" d="M1645.27,1762.62l20.264,182.327,109.159,6.344s7.043-191.325,6.166-194.084c-4.541-14.285-19.234-19.219-37.371-19.218-40.521,0-98.218,24.631-98.218,24.631" fill="none"/>
    </clipPath>
    <linearGradient id="linear-gradient-24" x1="-6.449" y1="7.862" x2="-6.445" y2="7.862" xlink:href="#linear-gradient"/>
    <clipPath id="clip-path-41">
      <path id="Path_2557" data-name="Path 2557" d="M1587.27,1873.84c16.2,47.564,49.191,27.426,49.191,27.426s10.372-57.489-11.747-67.475a37.383,37.383,0,0,0-15.256-3.38c-17.481,0-32.294,13.749-22.188,43.429" fill="none"/>
    </clipPath>
    <linearGradient id="linear-gradient-25" x1="-13.82" y1="14.463" x2="-13.811" y2="14.463" xlink:href="#linear-gradient"/>
    <clipPath id="clip-path-43">
      <rect id="Rectangle_356" data-name="Rectangle 356" width="235.43" height="196.54" transform="translate(1395.12 2114.96)" fill="none"/>
    </clipPath>
    <clipPath id="clip-path-44">
      <path id="Path_2595" data-name="Path 2595" d="M1561.24,2263.12l14.136-41.191c5.354-13.905.353-30.452-12.393-36.387-7.678-3.576-13.785-8.316-23.1.049l-22.19-10.333c.408-12.512-7.151-14.136-14.829-17.711-12.746-5.936-28.452.306-35.572,13.389l-.109.233-22.5,37.486a11.8,11.8,0,0,0,.793,13.545l3.163,3.842a10.135,10.135,0,0,0,12.289,2.5l30.534-14.407,35.549,16.553,8.588,32.721a10.137,10.137,0,0,0,9.823,7.8l4.94.026a11.875,11.875,0,0,0,10.877-8.111" fill="none"/>
    </clipPath>
    <linearGradient id="linear-gradient-26" x1="-8.552" y1="6.764" x2="-8.546" y2="6.764" gradientUnits="objectBoundingBox">
      <stop offset="0" stop-color="#dae3fe"/>
      <stop offset="1" stop-color="#e9effd"/>
    </linearGradient>
  </defs>
  <g id="Group_1236" data-name="Group 1236" clip-path="url(#clip-path)">
    <g id="Group_1156" data-name="Group 1156">
      <g id="Group_1155" data-name="Group 1155" clip-path="url(#clip-path-2)">
        <path id="Path_2454" data-name="Path 2454" d="M1781.55,1236.01H395.943a51.442,51.442,0,0,1-51.312-51.571V540.089a51.442,51.442,0,0,1,51.312-51.571H1781.55a51.442,51.442,0,0,1,51.31,51.571v644.354a51.441,51.441,0,0,1-51.31,51.571" fill="#fff"/>
        <g id="Group_1148" data-name="Group 1148" opacity="0.7">
          <g id="Group_1147" data-name="Group 1147">
            <g id="Group_1146" data-name="Group 1146" clip-path="url(#clip-path-3)">
              <path id="Path_2455" data-name="Path 2455" d="M1727.31,564.748h-20.221L1167.15,81.377c-30.235-11.391-91.2-55.315-102.665-44.065L430.941,564.748H337.98a51.168,51.168,0,0,0-51.311,51.022v637.5a51.167,51.167,0,0,0,51.311,51.03H1723.59a51.166,51.166,0,0,0,51.31-51.022V615.77c0-28.178-19.248-51.022-47.586-51.022m-649.937-514c4.324-4.239,9.7-4.241,13.868-.154l589.829,514.151H476.77Z" fill="#c6c6c6"/>
            </g>
          </g>
        </g>
        <path id="Path_2456" data-name="Path 2456" d="M1773.46,1236.01H395.653a51.022,51.022,0,0,1-51.022-51.022v-637.5a51.022,51.022,0,0,1,51.022-51.022H1773.46a51.022,51.022,0,0,1,51.022,51.022v637.5a51.022,51.022,0,0,1-51.022,51.022" fill="#f9a2c3"/>
        <path id="Path_2457" data-name="Path 2457" d="M1747.51,1220.18H401.274a38.061,38.061,0,0,1-38.018-38.02V570.8a38.059,38.059,0,0,1,38.017-38.016H1747.52a38.06,38.06,0,0,1,38.016,38.016v611.367a38.062,38.062,0,0,1-38.02,38.02M411.735,553.886a22.785,22.785,0,0,0-22.76,22.759v599.671a22.788,22.788,0,0,0,22.762,22.762H1737.05a22.789,22.789,0,0,0,22.762-22.762V576.645a22.784,22.784,0,0,0-22.758-22.759Z" fill="#ef5488"/>
        <path id="Path_2458" data-name="Path 2458" d="M1767.65,1200.05H421.41a38.062,38.062,0,0,1-38.02-38.019V550.662a38.061,38.061,0,0,1,38.018-38.016H1767.65a38.06,38.06,0,0,1,38.015,38.016V1162.03a38.061,38.061,0,0,1-38.019,38.019M428.733,527.543a23.022,23.022,0,0,0-23,22.995v607.343a23.023,23.023,0,0,0,23,23H1767.77a23.024,23.024,0,0,0,23-23V550.538a23.021,23.021,0,0,0-22.994-22.995Z" fill="#fff"/>
        <path id="Path_2459" data-name="Path 2459" d="M1757.68,1209.94H411.44a38.061,38.061,0,0,1-38.019-38.019V560.555a38.06,38.06,0,0,1,38.017-38.016H1757.68a38.061,38.061,0,0,1,38.017,38.016v611.368a38.062,38.062,0,0,1-38.02,38.019M411.438,537.437a23.146,23.146,0,0,0-23.12,23.118v611.368a23.148,23.148,0,0,0,23.122,23.121H1757.68a23.148,23.148,0,0,0,23.121-23.121V560.555a23.144,23.144,0,0,0-23.118-23.118Z" fill="#6c245a"/>
        <path id="Path_2460" data-name="Path 2460" d="M443.525,485.183a9.311,9.311,0,0,1-5.816-16.587l625.6-432.182a33.876,33.876,0,0,1,42.491,0l625.3,431.942a9.31,9.31,0,1,1-11.618,14.552l-625.3-431.942a15.351,15.351,0,0,0-19.254,0L449.33,483.148a9.271,9.271,0,0,1-5.8,2.035" fill="#6c245a"/>
        <g id="Group_1151" data-name="Group 1151" opacity="0.3">
          <g id="Group_1150" data-name="Group 1150">
            <g id="Group_1149" data-name="Group 1149" clip-path="url(#clip-path-4)">
              <path id="Path_2461" data-name="Path 2461" d="M1079.23,48.533a15.4,15.4,0,0,0-4.283,2.421L449.314,483.142a9.258,9.258,0,0,1-11.174.336,2.257,2.257,0,0,0,.484-.336l625.6-432.188a15.474,15.474,0,0,1,15.01-2.421" fill="#f8ebd1"/>
            </g>
          </g>
        </g>
        <g id="Group_1154" data-name="Group 1154" opacity="0.3">
          <g id="Group_1153" data-name="Group 1153">
            <g id="Group_1152" data-name="Group 1152" clip-path="url(#clip-path-5)">
              <path id="Path_2462" data-name="Path 2462" d="M1732.57,481.429a9.291,9.291,0,0,1-12.663,1.788,7.98,7.98,0,0,0,1.937-1.788,9.3,9.3,0,0,0-1.453-13.073L1095.1,36.429a33.529,33.529,0,0,0-15.866-7.077,33.636,33.636,0,0,1,26.555,7.077l625.3,431.927a9.3,9.3,0,0,1,1.49,13.073" fill="#f8ebd1"/>
            </g>
          </g>
        </g>
        <path id="Path_2463" data-name="Path 2463" d="M478.923,488.505H404.7a37.12,37.12,0,0,1,70.541-16.127,36.635,36.635,0,0,1,3.687,16.127" fill="#f9a2c3"/>
        <path id="Path_2464" data-name="Path 2464" d="M478.923,488.505H404.7a37.131,37.131,0,0,1,3.685-16.122l66.856-.005a36.635,36.635,0,0,1,3.687,16.127" fill="#6c245a"/>
        <path id="Path_2465" data-name="Path 2465" d="M1764.42,488.505h-74.23a36.637,36.637,0,0,1,3.687-16.127,37.115,37.115,0,0,1,70.542,16.127" fill="#f9a2c3"/>
        <path id="Path_2466" data-name="Path 2466" d="M1764.42,488.505h-74.23a36.637,36.637,0,0,1,3.687-16.127h66.854a37.137,37.137,0,0,1,3.688,16.127" fill="#6c245a"/>
        <path id="Path_2467" data-name="Path 2467" d="M1118.09,33.691a41.206,41.206,0,1,1,.006,0" fill="#f9a2c3"/>
        <path id="Path_2468" data-name="Path 2468" d="M1118.07,33.713a33.687,33.687,0,1,1-67.373,0,34.144,34.144,0,0,1,.727-6.972,33.684,33.684,0,0,0,65.919,0,34.083,34.083,0,0,1,.727,6.972" fill="#6c245a"/>
      </g>
    </g>
    <text id="Group" transform="translate(691.436 791.127)" fill="#6c245a" font-size="291" font-family="ImprintMT-Shadow, Imprint MT Shadow"><tspan x="0" y="0">Group</tspan></text>
    <text id="Battle" transform="translate(731.885 1140.328)" fill="#6c245a" font-size="291" font-family="ImprintMT-Shadow, Imprint MT Shadow"><tspan x="0" y="0">Battle</tspan></text>
    <g id="Group_1158" data-name="Group 1158">
      <g id="Group_1157" data-name="Group 1157" clip-path="url(#clip-path-2)">
        <path id="Path_2469" data-name="Path 2469" d="M1817.93,1174.04l-52.95-3.739-66.049,193.362,86.589,434.015,82.161-12.12Z" fill="#f4317b"/>
        <path id="Path_2470" data-name="Path 2470" d="M2133.85,1767.12l-104.608-396.562-62.448-214.7-148.862,18.182L1749.44,1373.7l94.044,411.8H2134.1Z" fill="#f9a2c3"/>
        <path id="Path_2471" data-name="Path 2471" d="M1764.98,1170.3l133.277-19.293,68.534,4.85-148.861,18.182Z" fill="#f4317b"/>
        <path id="Path_2472" data-name="Path 2472" d="M1794.94,1363.86l72.891-22.894V1249.91l-36.445,3.235Z" fill="#ef5488"/>
        <path id="Path_2473" data-name="Path 2473" d="M1927.98,1238.47l33.321-8.422,30.278,100.511h-49.2Z" fill="#ef5488"/>
        <path id="Path_2474" data-name="Path 2474" d="M2730.26,1764.79H2301.95c-9.312,0-13.552,11.344-13.552,20.655v4.164H2747.55v-4.164c0-9.311-7.979-20.655-17.29-20.655" fill="#1c283a"/>
        <path id="Path_2475" data-name="Path 2475" d="M2133.87,1789.6h110.662s-25.127-53.995-71.1-51.321-39.56,51.321-39.56,51.321" fill="#0b1018"/>
      </g>
    </g>
    <g id="Group_1160" data-name="Group 1160">
      <g id="Group_1159" data-name="Group 1159" clip-path="url(#clip-path-7)">
        <rect id="Rectangle_318" data-name="Rectangle 318" width="273.637" height="192.053" transform="translate(2175.311 1599.678) rotate(-0.955)" fill="url(#linear-gradient)"/>
      </g>
    </g>
    <g id="Group_1162" data-name="Group 1162">
      <g id="Group_1161" data-name="Group 1161" clip-path="url(#clip-path-2)">
        <path id="Path_2477" data-name="Path 2477" d="M2138.02,1801.03H1851.3l17.418-203.867s-21.437-153.665,76.368-170.672c57.611-15.668,57.611-15.722,57.611-15.722s73.688-11.566,135.318,15.64,112.542,190.646,112.542,190.646l-73.688,29.469-18.757-60.075Z" fill="#ef5488"/>
      </g>
    </g>
    <g id="Group_1164" data-name="Group 1164">
      <g id="Group_1163" data-name="Group 1163" clip-path="url(#clip-path-9)">
        <rect id="Rectangle_320" data-name="Rectangle 320" width="173.498" height="157.637" transform="translate(1938.205 1433.995) rotate(-67.967)" fill="url(#linear-gradient-2)"/>
      </g>
    </g>
    <g id="Group_1166" data-name="Group 1166">
      <g id="Group_1165" data-name="Group 1165" clip-path="url(#clip-path-10)">
        <rect id="Rectangle_321" data-name="Rectangle 321" width="207.479" height="230.097" transform="translate(1946.61 1229.637) rotate(-17.178)" fill="url(#linear-gradient-3)"/>
      </g>
    </g>
    <g id="Group_1168" data-name="Group 1168">
      <g id="Group_1167" data-name="Group 1167" clip-path="url(#clip-path-2)">
        <path id="Path_2480" data-name="Path 2480" d="M2034.61,1289.31l2.811-.175a6.217,6.217,0,0,0,5.806-6.96c-1.723-13.787-3.62-44.625,13.753-45.249,22.389-.8,105.218,11.9,131.919-9.308,25.663-20.379,24.016-59.51,6.3-77a3.121,3.121,0,0,0-4.292-.165l-3.01,2.7a3.078,3.078,0,0,1-5.125-2.511,3.062,3.062,0,0,0-4.925-2.663c-8.125,6.294-26.808,14.464-66.2,7.669-55.989-9.659-98.47-1.226-112.693,34.679a3.082,3.082,0,0,1-5.347.735c-3-3.786-8.786-7.177-19.632-3.27-18.86,6.8-24.55,40.371-2.517,77.841a3.056,3.056,0,0,1-1.842,4.574c-7.095,1.614-18.892,7.33-1.149,27.3,18.352,20.65,35.792,25.943,42.765,27.282a3.063,3.063,0,0,0,3.612-2.611l4.727-34.425a3.077,3.077,0,0,1,4.114-2.469Z"/>
        <path id="Path_2481" data-name="Path 2481" d="M2094.51,1359.13c-52.485-4.977-73.407-63.72-73.613-64.314l3.8-1.315c.2.568,20.3,56.9,70.194,61.628Z" fill="#6c245a"/>
        <path id="Path_2482" data-name="Path 2482" d="M2099.6,1361.31l-17.078-1.088a1.317,1.317,0,0,1-1.226-1.394l.4-6.286a1.316,1.316,0,0,1,1.393-1.226l17.077,1.088a1.317,1.317,0,0,1,1.227,1.394l-.4,6.286a1.316,1.316,0,0,1-1.393,1.226" fill="#6c245a"/>
        <path id="Path_2483" data-name="Path 2483" d="M2033.84,1236.35s32.924-79.552,85.967-79.2c0,0-13.349-9.038-29.948-4.122s-62.6,38.923-69.3,83.327c9.825,5.1,13.279,0,13.279,0" fill="#6c245a"/>
        <path id="Path_2484" data-name="Path 2484" d="M2025.92,1229.84c-29.475.894-32.155,37.515-32.155,37.515-6.538,25.787-1.132,40.055,7.585,47.907a22.834,22.834,0,0,0,37.425-11.471c1.747-7.024,3.51-13.683,4.45-15.994,2.278-5.6,12.17-58.85-17.305-57.957" fill="#6c245a"/>
        <path id="Path_2485" data-name="Path 2485" d="M2026.98,1239.4a13.134,13.134,0,0,0-15.431,5.2c-23.79,36.514-7.291,65.753,2.878,68.049,10.718,2.42,19.427-49.648,19.419-63.38,0-5.755-3.178-8.557-6.866-9.87" fill="#ef5488"/>
        <path id="Path_2486" data-name="Path 2486" d="M1906.68,1656.34a1.336,1.336,0,0,1-1.109-.587l-32.155-47.339a1.339,1.339,0,1,1,2.216-1.505l32.155,47.339a1.338,1.338,0,0,1-.356,1.86,1.319,1.319,0,0,1-.751.232" fill="#962a56"/>
        <path id="Path_2487" data-name="Path 2487" d="M1977.11,1632.33a1.34,1.34,0,0,1-.806-2.411l11.85-8.89-38.069-105.357a1.34,1.34,0,1,1,2.52-.91l38.407,106.289a1.34,1.34,0,0,1-.456,1.527l-12.644,9.485a1.334,1.334,0,0,1-.8.267" fill="#962a56"/>
      </g>
    </g>
    <g id="Group_1170" data-name="Group 1170">
      <g id="Group_1169" data-name="Group 1169" clip-path="url(#clip-path-12)">
        <rect id="Rectangle_323" data-name="Rectangle 323" width="341.855" height="173.743" transform="translate(1909.999 1631.04) rotate(-0.974)" fill="url(#linear-gradient-4)"/>
      </g>
    </g>
    <g id="Group_1172" data-name="Group 1172">
      <g id="Group_1171" data-name="Group 1171" clip-path="url(#clip-path-2)">
        <path id="Path_2489" data-name="Path 2489" d="M2694.52,1401.83l-45.88,314.309c-1.5,10.265-11.142,18.591-21.57,18.59l-343.494-.009c-10.973,0-18.272-8.529-16.3-19.08l60.178-322.759c1.831-9.819,11.826-17.563,22.331-17.293l329.185,8.444c10,.257,16.952,8.226,15.555,17.8" fill="#0b1018"/>
        <path id="Path_2490" data-name="Path 2490" d="M2358.05,1381.5l-63.408,345.9c-.79,4.308-5.866,7.829-10.324,7.829-10.972,0-19.09-8.637-17.112-19.246l60.223-323c1.841-9.872,11.843-17.659,22.349-17.389l5.777.148a5.782,5.782,0,0,1,2.5,5.762" fill="#1c283a"/>
        <path id="Path_2491" data-name="Path 2491" d="M2638.57,1607.49a2.014,2.014,0,0,1-1.889-2.485l32.819-186.223c1.49-8.451-5.2-13.881-12.525-14.255l-34.889-1.779a1.978,1.978,0,0,1-1.852-2.422,2.7,2.7,0,0,1,2.689-2.189l34.872,1.79c10.885.559,18,8.932,16.221,19.081L2641.3,1605.18a2.808,2.808,0,0,1-2.732,2.318" fill="#293e56"/>
        <path id="Path_2492" data-name="Path 2492" d="M2383.7,1707.11l-48.333-.1c-9.907-.02-15.788-8.861-13.671-20.541l13.016-71.817a3.029,3.029,0,0,1,2.865-2.449,2.006,2.006,0,0,1,1.97,2.49l-12.974,71.793c-1.592,8.81,2.579,15.476,9.7,15.493l48.3.114a2.024,2.024,0,0,1,1.985,2.512,3.054,3.054,0,0,1-2.858,2.5" fill="#293e56"/>
        <path id="Path_2493" data-name="Path 2493" d="M2597.53,1784.67v4.147l-83.13,2.083H2393.55a5.555,5.555,0,0,1-5.274-5.593c0-11.34,7.983-21.415,19.347-21.415h170.595a22.735,22.735,0,0,1,4.489.3c8.965,2.062,14.822,10.6,14.822,20.482" fill="#293e56"/>
        <path id="Path_2494" data-name="Path 2494" d="M2620.22,1784.36a20.463,20.463,0,0,0-20.617-20.4l-17.237.072-68.061.312-85.3.5c-11.34.049-20.5,10.188-20.474,21.527.014,2.242,1.834,4.53,4.076,4.53h203.541a5,5,0,0,0,4.076-4.81Z" fill="#0b1018"/>
        <path id="Path_2495" data-name="Path 2495" d="M2457.5,1534.33c-7.779,0-11.891,7.807-11.891,15.586V1763.9h104.656V1534.33Z" fill="#1c283a"/>
        <path id="Path_2496" data-name="Path 2496" d="M2553.99,1534.33h-79.711c-7.779,0-15.169,7.807-15.169,15.586V1763.9h108.032V1549.91c0-7.779-5.373-15.586-13.152-15.586" fill="#141a23"/>
        <path id="Path_2497" data-name="Path 2497" d="M2462.81,1817.91H1515.58c14.19,189.057,28.39,371.381,42.58,557.175.84,10.837,5.184,20.122,9.128,20.122h1191.28c3.944,0,7.973-9.285,8.811-20.122,14.19-185.794,28.391-368.118,42.581-557.175Z" fill="#121c28"/>
        <path id="Path_2498" data-name="Path 2498" d="M1705.23,1817.91c-5.67,189.057-11.328,384.865-17,577.3H1567.29c-3.945,0-8.289-9.286-9.128-20.122-14.19-185.794-28.391-368.118-42.58-557.175Z" fill="#2b3949"/>
        <path id="Path_2499" data-name="Path 2499" d="M2810.4,1784.15H1960.87v-4.094c0-7.778-3.108-12.786-6.321-12.786h-147.76c-3.213,0-4.855,5.008-4.855,12.786v4.094H1519.9c-4.209,0-7.622,7.48-7.622,16.88s3.413,16.88,7.622,16.88H2810.4c4.209,0,7.622-7.48,7.622-16.88s-3.413-16.88-7.622-16.88" fill="#2b3949"/>
        <path id="Path_2500" data-name="Path 2500" d="M1681.24,1801.03c0-9.323,3.444-16.88,7.692-16.88H1513.57c-4.249,0-7.692,7.557-7.692,16.88s3.443,16.88,7.692,16.88h175.369c-4.248,0-7.692-7.557-7.692-16.88" fill="#121c28"/>
        <path id="Path_2501" data-name="Path 2501" d="M227.04,1304.4l-51.814-3.659-64.632,189.213,84.732,424.7,80.4-11.86Z" fill="#ef5488"/>
        <path id="Path_2502" data-name="Path 2502" d="M536.179,1884.75,433.815,1496.7,372.707,1286.6l-145.668,17.8-67.023,195.378,92.026,402.967H536.427Z" fill="#f9a2c3"/>
        <path id="Path_2503" data-name="Path 2503" d="M175.226,1300.74l130.418-18.879,67.063,4.746L227.04,1304.4Z" fill="#ef5488"/>
        <path id="Path_2504" data-name="Path 2504" d="M204.538,1490.14l71.327-22.4v-89.1l-35.663,3.166Z" fill="#ef5488"/>
        <path id="Path_2505" data-name="Path 2505" d="M334.73,1367.44l32.606-8.242,29.628,98.355H348.823Z" fill="#ef5488"/>
        <path id="Path_2506" data-name="Path 2506" d="M1140.25,1876.72H669.468c-10.234,0-14.9,12.469-14.9,22.7V1904H1159.25v-4.577c0-10.234-8.769-22.7-19-22.7" fill="#1c283a"/>
        <path id="Path_2507" data-name="Path 2507" d="M528.214,1904.98H649.849s-27.618-59.348-78.152-56.41-43.483,56.41-43.483,56.41" fill="#0b1018"/>
        <path id="Path_2508" data-name="Path 2508" d="M649.585,1782.27c-79.534-13.558-91.834-165.41-89.26-170.06l-72.685,88.572s-9.321,68.477,81.453,126.7c22.967,14.73,45.76,20.459,67.007,20.827a111.2,111.2,0,0,1,13.485-66.039" fill="#ef5488"/>
      </g>
    </g>
    <g id="Group_1174" data-name="Group 1174">
      <g id="Group_1173" data-name="Group 1173" clip-path="url(#clip-path-14)">
        <rect id="Rectangle_325" data-name="Rectangle 325" width="166.89" height="230.229" transform="translate(606.16 1879.063) rotate(-76.881)" fill="url(#linear-gradient-5)"/>
      </g>
    </g>
    <g id="Group_1176" data-name="Group 1176">
      <g id="Group_1175" data-name="Group 1175" clip-path="url(#clip-path-15)">
        <rect id="Rectangle_326" data-name="Rectangle 326" width="78.44" height="316.541" transform="translate(366.513 2166.23) rotate(-9.033)" fill="url(#linear-gradient-6)"/>
      </g>
    </g>
    <g id="Group_1178" data-name="Group 1178">
      <g id="Group_1177" data-name="Group 1177" clip-path="url(#clip-path-16)">
        <rect id="Rectangle_328" data-name="Rectangle 328" width="255.636" height="58.942" transform="translate(299.236 2461.862) rotate(-9.033)" fill="url(#linear-gradient-7)"/>
      </g>
    </g>
    <g id="Group_1180" data-name="Group 1180">
      <g id="Group_1179" data-name="Group 1179" clip-path="url(#clip-path-17)">
        <rect id="Rectangle_329" data-name="Rectangle 329" width="331.983" height="140.592" transform="translate(250.072 2089.917) rotate(-9.033)" fill="url(#linear-gradient-8)"/>
      </g>
    </g>
    <g id="Group_1182" data-name="Group 1182">
      <g id="Group_1181" data-name="Group 1181" clip-path="url(#clip-path-18)">
        <rect id="Rectangle_331" data-name="Rectangle 331" width="208.65" height="518.275" transform="translate(541.171 1947.828)" fill="url(#linear-gradient-9)"/>
      </g>
    </g>
    <g id="Group_1184" data-name="Group 1184">
      <g id="Group_1183" data-name="Group 1183" clip-path="url(#clip-path-19)">
        <rect id="Rectangle_332" data-name="Rectangle 332" width="165.061" height="164.197" transform="translate(541.617 2342.074) rotate(-3.731)" fill="url(#linear-gradient-10)"/>
      </g>
    </g>
    <g id="Group_1186" data-name="Group 1186">
      <g id="Group_1185" data-name="Group 1185" clip-path="url(#clip-path-20)">
        <rect id="Rectangle_333" data-name="Rectangle 333" width="438.253" height="518.884" transform="translate(554.455 1964.142)" fill="url(#linear-gradient-11)"/>
      </g>
    </g>
    <g id="Group_1188" data-name="Group 1188">
      <g id="Group_1187" data-name="Group 1187" clip-path="url(#clip-path-21)">
        <rect id="Rectangle_334" data-name="Rectangle 334" width="495.553" height="208.098" transform="translate(226.738 1888.506)" fill="url(#linear-gradient-12)"/>
      </g>
    </g>
    <g id="Group_1190" data-name="Group 1190">
      <g id="Group_1189" data-name="Group 1189" clip-path="url(#clip-path-22)">
        <rect id="Rectangle_335" data-name="Rectangle 335" width="204.147" height="77.232" transform="translate(818.394 2443.178) rotate(-3.731)" fill="url(#linear-gradient-13)"/>
      </g>
    </g>
    <g id="Group_1192" data-name="Group 1192">
      <g id="Group_1191" data-name="Group 1191" clip-path="url(#clip-path-2)">
        <path id="Path_2516" data-name="Path 2516" d="M582.918,1277.18c-132.481-22.523-194.853,85.528-190.3,108.231a4.153,4.153,0,0,1-5.2,4.761c-15.209-4.094-48.81-9.256-69.639,16.843-18.389,23.043-4.647,44.788,6.558,56.724a4.179,4.179,0,0,1-3.491,7.068c-27.964-3.53-88.726-4.376-98.667,52.545-9.271,53.081,27.675,68.048,49.586,72.268a4.157,4.157,0,0,1,1.386,7.609c-10.931,6.935-23.6,21.265-18.478,49.545,8.021,44.325,94.924,40.7,105.08,40.119a4.094,4.094,0,0,0,1.812-.541l139.2-79.386a4.189,4.189,0,0,0,2.05-2.921l28.1-162.292a4.181,4.181,0,0,0-1.107-3.615l90.743-128.059c32.941-4.846-36.071-38.634-37.633-38.9"/>
        <path id="Path_2517" data-name="Path 2517" d="M477.454,1875.74s75.471-71.864,112.622-119.462a100.992,100.992,0,0,0,17.1-90.891c-16.961-57.142-47.1-116.326-49.852-125.538-4.213-14.119-88.836-13.531-88.836-13.531S301.967,1634.4,236.54,1817.46l73.478,22.875s43.479-72.944,86.438-119.32c0,0-74.335,98.2-76.952,138.4Z" fill="#ef5488"/>
      </g>
    </g>
    <g id="Group_1194" data-name="Group 1194">
      <g id="Group_1193" data-name="Group 1193" clip-path="url(#clip-path-24)">
        <rect id="Rectangle_337" data-name="Rectangle 337" width="134.899" height="112.728" transform="translate(453.919 1539.769) rotate(-81.142)" fill="url(#linear-gradient-14)"/>
      </g>
    </g>
    <g id="Group_1196" data-name="Group 1196">
      <g id="Group_1195" data-name="Group 1195" clip-path="url(#clip-path-25)">
        <rect id="Rectangle_338" data-name="Rectangle 338" width="220.983" height="201.831" transform="translate(460.046 1503.036) rotate(-71.359)" fill="url(#linear-gradient-15)"/>
      </g>
    </g>
    <g id="Group_1198" data-name="Group 1198">
      <g id="Group_1197" data-name="Group 1197" clip-path="url(#clip-path-2)">
        <path id="Path_2520" data-name="Path 2520" d="M561.4,1403.24s49-74.9,94.946-15.951l.831,21.44s53.811-6.388,44.4-55.732-55.928-80.185-115.819-58.811-94.213,43.294-98.077,86.214,30.282,33.51,30.282,33.51,11.138-30.222,26.974-33.365,11.72,20.427,11.72,20.427Z"/>
      </g>
    </g>
    <g id="Group_1200" data-name="Group 1200">
      <g id="Group_1199" data-name="Group 1199" clip-path="url(#clip-path-27)">
        <rect id="Rectangle_340" data-name="Rectangle 340" width="67.5" height="66.089" transform="translate(506.372 1405.974) rotate(-71.348)" fill="url(#linear-gradient-16)"/>
      </g>
    </g>
    <g id="Group_1202" data-name="Group 1202">
      <g id="Group_1201" data-name="Group 1201" clip-path="url(#clip-path-28)">
        <rect id="Rectangle_341" data-name="Rectangle 341" width="414.114" height="95.38" transform="translate(217.093 1817.465)" fill="url(#linear-gradient-17)"/>
      </g>
    </g>
    <g id="Group_1204" data-name="Group 1204">
      <g id="Group_1203" data-name="Group 1203" clip-path="url(#clip-path-2)">
        <path id="Path_2523" data-name="Path 2523" d="M625.17,1500.83c-58.352,1.585-89.242-60.165-89.548-60.79l4-1.956c.293.6,29.963,59.8,85.429,58.3Z" fill="#6c245a"/>
        <path id="Path_2524" data-name="Path 2524" d="M632.174,1503.7h-19.4a1.248,1.248,0,0,1-1.244-1.244v-7.1a1.248,1.248,0,0,1,1.244-1.245h19.4a1.248,1.248,0,0,1,1.244,1.245v7.1a1.248,1.248,0,0,1-1.244,1.244" fill="#6c245a"/>
        <path id="Path_2525" data-name="Path 2525" d="M538.256,1381.53s25.493-91.856,83.837-98.6c0,0-15.885-8.139-33.469-.507s-63.567,51.193-64.962,100.9c11.484,4.287,14.594-1.785,14.594-1.785" fill="#6c245a"/>
        <path id="Path_2526" data-name="Path 2526" d="M532.415,1367.96c-32.275,4.943-30.3,45.552-30.3,45.552-3.72,29.22,4.139,44.175,14.775,51.633a25.284,25.284,0,0,0,39.591-17.638c.976-7.954,2.018-15.509,2.741-18.175,1.75-6.461,5.466-66.315-26.809-61.372" fill="#6c245a"/>
        <path id="Path_2527" data-name="Path 2527" d="M534.857,1378.32a14.543,14.543,0,0,0-16.26,7.79c-21.239,43.329.824,73.247,12.309,74.4,12.1,1.219,14.678-57.177,12.825-72.268-.778-6.324-4.643-8.977-8.874-9.925" fill="#ef5488"/>
        <path id="Path_2528" data-name="Path 2528" d="M1200.68,1465.71l-50.429,345.473c-1.647,11.284-12.247,20.434-23.709,20.434l-377.552-.011c-12.061,0-20.084-9.374-17.921-20.971l66.145-354.761c2.012-10.793,13-19.3,24.545-19.008l361.824,9.282c10.995.282,18.632,9.041,17.1,19.562" fill="#0b1018"/>
        <path id="Path_2529" data-name="Path 2529" d="M830.849,1443.36l-69.7,380.2c-.868,4.736-6.448,8.606-11.347,8.606-12.061,0-20.984-9.495-18.81-21.156l66.2-355.028c2.023-10.851,13.018-19.41,24.565-19.113l6.35.163a6.354,6.354,0,0,1,2.742,6.332" fill="#1c283a"/>
        <path id="Path_2530" data-name="Path 2530" d="M1139.18,1691.77a2.212,2.212,0,0,1-2.075-2.732l36.072-204.687c1.637-9.289-5.71-15.257-13.766-15.668l-38.349-1.955a2.173,2.173,0,0,1-2.035-2.663,2.964,2.964,0,0,1,2.956-2.406l38.328,1.968c11.965.614,19.79,9.817,17.83,20.972l-35.958,204.624a3.086,3.086,0,0,1-3,2.547" fill="#293e56"/>
        <path id="Path_2531" data-name="Path 2531" d="M859.046,1801.27l-53.125-.107c-10.889-.022-17.353-9.739-15.027-22.577l14.306-78.938a3.331,3.331,0,0,1,3.15-2.692,2.2,2.2,0,0,1,2.165,2.737l-14.26,78.911c-1.75,9.684,2.834,17.011,10.658,17.029l53.093.126a2.225,2.225,0,0,1,2.182,2.761,3.358,3.358,0,0,1-3.142,2.75" fill="#293e56"/>
        <path id="Path_2532" data-name="Path 2532" d="M1094.07,1886.51v4.559l-91.37,2.29H869.872a6.107,6.107,0,0,1-5.8-6.148c0-12.464,8.775-23.538,21.265-23.538h187.51a24.956,24.956,0,0,1,4.934.325c9.855,2.266,16.291,11.655,16.291,22.512" fill="#1c283a"/>
        <path id="Path_2533" data-name="Path 2533" d="M1119.02,1886.17a22.491,22.491,0,0,0-22.661-22.424l-18.946.079-74.809.342-93.755.553c-12.464.053-22.53,11.2-22.5,23.662.015,2.464,2.016,4.979,4.48,4.979h223.722c1.192,0,2.334-1,3.175-1.845a5.114,5.114,0,0,0,1.3-3.443Z" fill="#141a23"/>
        <path id="Path_2534" data-name="Path 2534" d="M940.162,1611.35c-8.55,0-13.07,8.581-13.07,17.131v235.2h115.033V1611.35Z" fill="#1c283a"/>
        <path id="Path_2535" data-name="Path 2535" d="M1046.22,1611.35H958.608c-8.55,0-16.673,8.581-16.673,17.131v235.2h118.744v-235.2c0-8.55-5.906-17.131-14.456-17.131" fill="#141a23"/>
        <path id="Path_2536" data-name="Path 2536" d="M946.106,1941.94H42.283C101.894,2152.86,225.9,2575.3,238.72,2576.47H897.07l262.18-4.027c3.763,0,66.834-423.025,118.1-630.51Z" fill="#121c28"/>
        <path id="Path_2537" data-name="Path 2537" d="M493.782,1941.94c-13.5,207.8-26.969,423.025-40.464,634.537h-214.6c-9.389,0-145.873-441.4-196.436-634.537Z" fill="#2b3949"/>
        <path id="Path_2538" data-name="Path 2538" d="M1284.6,1904.83H465.85v-4.5c0-8.551-3-14.055-6.092-14.055H317.35c-3.1,0-4.678,5.5-4.678,14.055v4.5H40.854c-4.057,0-7.345,8.221-7.345,18.554s3.288,18.553,7.345,18.553H1284.6c4.057,0,7.346-8.221,7.346-18.553s-3.289-18.554-7.346-18.554" fill="#2b3949"/>
        <path id="Path_2539" data-name="Path 2539" d="M483.221,1923.38c0-10.247,9.166-18.554,20.472-18.554H36.929c-11.306,0-20.472,8.307-20.472,18.554s9.166,18.554,20.472,18.554H503.693c-11.306,0-20.472-8.307-20.472-18.554" fill="#121c28"/>
        <path id="Path_2540" data-name="Path 2540" d="M1097.51,1704.19l-65.18-4.6-81.3,238.024,106.588,534.261,101.139-14.919Z" fill="#f4317b"/>
        <path id="Path_2541" data-name="Path 2541" d="M1486.4,2434.25,1357.63,1946.1l-76.87-264.3-183.245,22.382L1013.2,1949.96l115.767,506.919h357.746Z" fill="#f9a2c3"/>
        <path id="Path_2542" data-name="Path 2542" d="M1032.33,1699.58l164.061-23.749,84.364,5.971-183.245,22.381Z" fill="#f4317b"/>
        <path id="Path_2543" data-name="Path 2543" d="M1069.21,1937.85l89.727-28.182V1797.58l-44.863,3.983Z" fill="#ef5488"/>
        <path id="Path_2544" data-name="Path 2544" d="M1232.98,1783.49l41.02-10.37,37.271,123.727h-60.56Z" fill="#ef5488"/>
      </g>
    </g>
    <g id="Group_1206" data-name="Group 1206">
      <g id="Group_1205" data-name="Group 1205" clip-path="url(#clip-path-30)">
        <rect id="Rectangle_343" data-name="Rectangle 343" width="85.82" height="100.097" transform="translate(1696.542 3117.087) rotate(-3.164)" fill="url(#linear-gradient-18)"/>
      </g>
    </g>
    <g id="Group_1208" data-name="Group 1208">
      <g id="Group_1207" data-name="Group 1207" clip-path="url(#clip-path-31)">
        <rect id="Rectangle_344" data-name="Rectangle 344" width="798.191" height="791.37" transform="translate(1167.562 2989.36) rotate(-57.657)" fill="url(#linear-gradient-19)"/>
      </g>
    </g>
    <g id="Group_1210" data-name="Group 1210">
      <g id="Group_1209" data-name="Group 1209" clip-path="url(#clip-path-32)">
        <rect id="Rectangle_345" data-name="Rectangle 345" width="569.157" height="728.83" transform="matrix(1, -0.026, 0.026, 1, 1149.885, 2504.318)" fill="url(#linear-gradient-20)"/>
      </g>
    </g>
    <g id="Group_1212" data-name="Group 1212">
      <g id="Group_1211" data-name="Group 1211" clip-path="url(#clip-path-2)">
        <path id="Path_2548" data-name="Path 2548" d="M1836.26,2344.01c-99.964,11.588-77.564-150.375-76.109-156.847l-146.286,115.932s12.793,85.245,141.84,123.2c32.65,9.6,61.943,8.488,87.51,1.5a138.7,138.7,0,0,1-6.955-83.783" fill="#ef5488"/>
      </g>
    </g>
    <g id="Group_1214" data-name="Group 1214">
      <g id="Group_1213" data-name="Group 1213" clip-path="url(#clip-path-34)">
        <rect id="Rectangle_347" data-name="Rectangle 347" width="276.187" height="166.902" transform="translate(1822.01 2275.926) rotate(-3.164)" fill="url(#linear-gradient-21)"/>
      </g>
    </g>
    <g id="Group_1216" data-name="Group 1216" transform="translate(0 1)">
      <g id="Group_1215" data-name="Group 1215" clip-path="url(#clip-path-2)">
        <path id="Path_2550" data-name="Path 2550" d="M1346.04,1961.83s142.688-66.485,426.629,142.7c0,0,25.277,45.7,2.841,88.853S1528.56,2453.19,1502.39,2567.9c0,0-137.942,53.4-289.185-46.8,0,0-4.543-314.979,132.841-559.271" transform="translate(-1)" fill="#ef5488"/>
      </g>
    </g>
    <g id="Group_1218" data-name="Group 1218">
      <g id="Group_1217" data-name="Group 1217" clip-path="url(#clip-path-36)">
        <rect id="Rectangle_349" data-name="Rectangle 349" width="182.607" height="179.399" transform="translate(1547.668 1894.27) rotate(-3.154)" fill="url(#linear-gradient-22)"/>
      </g>
    </g>
    <g id="Group_1220" data-name="Group 1220">
      <g id="Group_1219" data-name="Group 1219" clip-path="url(#clip-path-2)">
        <path id="Path_2552" data-name="Path 2552" d="M1253.68,2341.02c-20.752-68.051,142.331-231.331,142.331-231.331l-49.966-147.859s-356.867,267.112-251.492,460.237c15.1,27.685,34.182,46.609,55.761,58.776,25.4-81.952,70.905-121.407,103.366-139.823" fill="#ef5488"/>
        <path id="Path_2553" data-name="Path 2553" d="M1253,2330.98a4.059,4.059,0,0,1-4.1-2.87c-21.219-69.577,136.616-228.641,143.343-235.382a4.062,4.062,0,1,1,5.749,5.739c-1.616,1.614-161.133,162.322-141.324,227.276a4.059,4.059,0,0,1-3.665,5.237" fill="#962a56"/>
      </g>
    </g>
    <g id="Group_1222" data-name="Group 1222">
      <g id="Group_1221" data-name="Group 1221" clip-path="url(#clip-path-38)">
        <rect id="Rectangle_351" data-name="Rectangle 351" width="447.08" height="585.999" transform="matrix(0.45, -0.893, 0.893, 0.45, 1058.78, 2497.15)" fill="url(#linear-gradient-23)"/>
      </g>
    </g>
    <g id="Group_1224" data-name="Group 1224">
      <g id="Group_1223" data-name="Group 1223" clip-path="url(#clip-path-39)">
        <rect id="Rectangle_352" data-name="Rectangle 352" width="246.575" height="199.715" transform="translate(1578.282 1927.635) rotate(-70.546)" fill="url(#linear-gradient-24)"/>
      </g>
    </g>
    <g id="Group_1226" data-name="Group 1226">
      <g id="Group_1225" data-name="Group 1225" clip-path="url(#clip-path-2)">
        <path id="Path_2556" data-name="Path 2556" d="M1675.61,1798.96l3.152,96.816a13.282,13.282,0,0,0,.615,3.626c2.294,7.25,12.015,31.611,36.334,20.146,22.066-10.4,42.359-19.568,57.767-17.517a13.517,13.517,0,0,1,11.74,13.9c-.643,17.384-2.82,56.528-9.9,90.247a13.492,13.492,0,0,1-14.856,10.555c-20.92-2.5-64.891-9.021-99.037-22.55a13.538,13.538,0,0,1-8.5-10.932c-2.96-24.082-12.231-97.241-17.968-117.228-5.385-18.76-30.76-26.321-41.641-28.736a13.293,13.293,0,0,1-8.517-6.118c-6.687-11.051-17.745-37.356,14.905-54.308a13.55,13.55,0,0,0,5.592-18.69c-7.472-13.383-13.233-34.742,11.479-51.14,25.118-16.667,47.787-5.564,60.682,4.376a13.542,13.542,0,0,0,17.351-.816c2.8-2.493,6.715-3.81,12.084-1.586a13.329,13.329,0,0,0,17.683-8.734c4.285-14.418,15.156-30.905,42.479-30.766,48.485.248,62.5,51.6,55.142,84.281s-59.906,29.421-87.859,18.2c-21.252-8.53-44.253,7.927-54.059,16.305a13.416,13.416,0,0,0-4.668,10.661"/>
      </g>
    </g>
    <g id="Group_1228" data-name="Group 1228">
      <g id="Group_1227" data-name="Group 1227" clip-path="url(#clip-path-41)">
        <rect id="Rectangle_354" data-name="Rectangle 354" width="112.57" height="103.068" transform="translate(1540.699 1903.123) rotate(-63.367)" fill="url(#linear-gradient-25)"/>
      </g>
    </g>
    <g id="Group_1235" data-name="Group 1235">
      <g id="Group_1234" data-name="Group 1234" clip-path="url(#clip-path-2)">
        <path id="Path_2558" data-name="Path 2558" d="M1784,1766.28a1.275,1.275,0,0,1-.047-2.55c10.275-.363,18.017-3.794,23.01-10.2,10.189-13.062,5.79-34.332,5.744-34.544a1.282,1.282,0,0,1,1.944-1.342,1.264,1.264,0,0,1,.552.807c.2.92,4.681,22.658-6.228,36.646-5.481,7.027-13.867,10.787-24.928,11.18Z" fill="#fff"/>
        <path id="Path_2559" data-name="Path 2559" d="M1722.46,1959.08c-67.078,1.822-102.587-69.161-102.939-69.88l4.6-2.248c.338.687,34.444,68.746,98.2,67.015Z" fill="#6c245a"/>
        <path id="Path_2560" data-name="Path 2560" d="M1727.33,1961.65l-20.887-1.331a1.316,1.316,0,0,1-1.226-1.393l.525-8.233a1.316,1.316,0,0,1,1.393-1.227l20.887,1.331a1.317,1.317,0,0,1,1.226,1.394l-.525,8.233a1.316,1.316,0,0,1-1.393,1.226" fill="#6c245a"/>
        <path id="Path_2561" data-name="Path 2561" d="M1622.54,1821.94s29.305-105.593,96.373-113.349c0,0-18.26-9.356-38.473-.581s-73.073,58.847-74.677,115.981c13.2,4.929,16.777-2.051,16.777-2.051" fill="#6c245a"/>
        <path id="Path_2562" data-name="Path 2562" d="M1615.83,1806.35c-37.1,5.682-34.828,52.363-34.828,52.363-4.277,33.59,4.757,50.781,16.983,59.355a29.066,29.066,0,0,0,45.512-20.275c1.121-9.144,2.319-17.83,3.151-20.894,2.011-7.427,6.283-76.231-30.818-70.549" fill="#6c245a"/>
        <path id="Path_2563" data-name="Path 2563" d="M1618.64,1818.26a16.718,16.718,0,0,0-18.692,8.955c-24.415,49.808.947,84.2,14.15,85.529,13.915,1.4,16.873-65.727,14.742-83.075-.893-7.27-5.337-10.319-10.2-11.409" fill="#ef5488"/>
        <path id="Path_2564" data-name="Path 2564" d="M2196.1,2424.05H1750.52c-9.686,0-14.1,11.8-14.1,21.488v4.332h477.668v-4.332c0-9.687-8.3-21.488-17.986-21.488" fill="#141a23"/>
        <path id="Path_2565" data-name="Path 2565" d="M2323.33,1974.52l-57.136,391.418c-1.866,12.784-13.875,23.152-26.861,23.152l-427.765-.013c-13.664,0-22.754-10.62-20.3-23.76l74.942-401.942c2.28-12.227,14.726-21.871,27.809-21.535l409.944,10.516c12.457.319,21.111,10.244,19.371,22.164" fill="#0b1018"/>
        <path id="Path_2566" data-name="Path 2566" d="M1904.32,1949.2l-78.964,430.758c-.984,5.366-7.305,9.75-12.857,9.75-13.664,0-23.774-10.756-21.311-23.968l75-402.245c2.293-12.294,14.749-21.991,27.832-21.655l7.195.184a7.2,7.2,0,0,1,3.107,7.176" fill="#1c283a"/>
        <path id="Path_2567" data-name="Path 2567" d="M2253.66,2230.64a2.506,2.506,0,0,1-2.352-3.095l40.869-231.91c1.855-10.523-6.469-17.284-15.6-17.75l-43.449-2.216a2.463,2.463,0,0,1-2.307-3.018,3.359,3.359,0,0,1,3.35-2.725l43.425,2.229c13.556.7,22.422,11.124,20.2,23.763l-40.74,231.836a3.5,3.5,0,0,1-3.4,2.886" fill="#293e56"/>
        <path id="Path_2568" data-name="Path 2568" d="M1936.26,2354.7l-60.19-.121c-12.337-.025-19.661-11.035-17.024-25.58l16.208-89.436a3.774,3.774,0,0,1,3.568-3.05,2.5,2.5,0,0,1,2.454,3.1l-16.157,89.406c-1.983,10.972,3.211,19.273,12.075,19.294l60.155.142a2.52,2.52,0,0,1,2.472,3.128,3.806,3.806,0,0,1-3.561,3.116" fill="#293e56"/>
        <path id="Path_2569" data-name="Path 2569" d="M2205.48,2451.28v5.165l-106.453-2.277h-150.5c-3.627,0-6.567-1.581-6.567-5.21,0-14.121,9.941-24.913,24.092-24.913H2178.5a44.158,44.158,0,0,1,7.056,1.048c11.165,2.568,19.923,13.887,19.923,26.187" fill="#0b1018"/>
        <path id="Path_2570" data-name="Path 2570" d="M2230.81,2450.9a25.485,25.485,0,0,0-25.675-25.407l-21.466.09-84.758.388-106.223.627c-14.122.06-25.526,10.251-25.5,24.373.016,2.791,2.283,3.205,5.075,3.205h253.475c1.35,0,2.645,1.3,3.6.346s1.484-1.334,1.479-2.683Z" fill="#1c283a"/>
        <path id="Path_2571" data-name="Path 2571" d="M2028.17,2140.03c-9.687,0-16.336,9.214-16.336,18.9v265.118H2149.54V2140.03Z" fill="#1c283a"/>
        <path id="Path_2572" data-name="Path 2572" d="M2148.33,2140.03h-99.267c-9.687,0-15.718,9.214-15.718,18.9v265.118h133.4V2158.93c0-9.687-8.731-18.9-18.418-18.9" fill="#141a23"/>
        <path id="Path_2573" data-name="Path 2573" d="M1556.09,2449.87h115.125s-26.14-56.172-73.969-53.391-41.156,53.391-41.156,53.391" fill="#0b1018"/>
        <path id="Path_2574" data-name="Path 2574" d="M2508.66,2467.08c0,11.707-10.291,21.517-22.984,21.517H885.381c-12.694,0-22.984-9.81-22.984-21.517s10.29-21.516,22.984-21.516H2485.67c12.693,0,22.984,9.81,22.984,21.516" fill="#2b3949"/>
        <path id="Path_2575" data-name="Path 2575" d="M2484.33,2488.6c-42.792,232.38-85.612,462.357-128.405,693.732-2.531,13.494-14.676,24.923-26.569,24.923H1028.27c-11.893,0-25-11.429-27.525-24.923C957.953,2950.957,915.132,2720.98,872.34,2488.6Z" fill="#121c28"/>
        <path id="Path_2576" data-name="Path 2576" d="M1334.69,2488.6c-13.82,236.683-27.617,481.973-41.436,718.655H998.4c-9.615,0-20.207-11.428-22.252-24.923-34.6-231.375-69.213-461.352-103.808-693.732Z" fill="#2b3949"/>
        <path id="Path_2577" data-name="Path 2577" d="M1349.92,2467.08c0,11.707-3.163,21.517-7.066,21.517H850.916c-3.9,0-7.066-9.81-7.066-21.517s3.163-21.516,7.066-21.516H1342.85c3.9,0,7.066,9.81,7.066,21.516" fill="#121c28"/>
        <path id="Path_2578" data-name="Path 2578" d="M2214.25,2961.16a7.85,7.85,0,0,1-7.8-7.032c-.925-8.82-1.479-17.812-1.649-26.725a7.853,7.853,0,0,1,7.7-8h.153a7.852,7.852,0,0,1,7.847,7.7c.16,8.467.688,17.009,1.565,25.387a7.85,7.85,0,0,1-6.991,8.627,7.461,7.461,0,0,1-.826.043m.506-68.4a7.964,7.964,0,0,1-.931-.055,7.853,7.853,0,0,1-6.876-8.719c1.047-8.845,2.483-17.733,4.268-26.415a7.851,7.851,0,1,1,15.38,3.159c-1.7,8.253-3.059,16.7-4.053,25.1a7.853,7.853,0,0,1-7.788,6.928m15.553-66.584a7.856,7.856,0,0,1-7.4-10.489c2.981-8.373,6.365-16.721,10.057-24.811a7.852,7.852,0,1,1,14.286,6.52c-3.507,7.683-6.719,15.607-9.552,23.56a7.854,7.854,0,0,1-7.4,5.22m30.059-61.448a7.854,7.854,0,0,1-6.613-12.074c4.785-7.5,9.949-14.881,15.352-21.941a7.851,7.851,0,0,1,12.469,9.544c-5.13,6.7-10.037,13.716-14.581,20.843a7.847,7.847,0,0,1-6.627,3.628m43-53.2a7.851,7.851,0,0,1-5.517-13.436c6.311-6.235,12.98-12.289,19.819-17.987a7.851,7.851,0,1,1,10.053,12.062c-6.5,5.416-12.839,11.17-18.838,17.095a7.823,7.823,0,0,1-5.517,2.266m53.7-42.359a7.851,7.851,0,0,1-4.154-14.519c7.546-4.692,15.389-9.121,23.31-13.157a7.852,7.852,0,1,1,7.13,13.991c-7.526,3.836-14.977,8.042-22.148,12.5a7.8,7.8,0,0,1-4.138,1.184m287.7-18.693a7.829,7.829,0,0,1-3.243-.705c-7.68-3.49-15.615-6.692-23.586-9.514a7.85,7.85,0,0,1,5.241-14.8c8.4,2.971,16.753,6.342,24.84,10.016a7.854,7.854,0,0,1-3.252,15m-225.988-10.694a7.853,7.853,0,0,1-2.559-15.276c8.4-2.9,17.032-5.465,25.651-7.631a7.852,7.852,0,1,1,3.826,15.23c-8.185,2.054-16.38,4.493-24.358,7.245a7.869,7.869,0,0,1-2.56.432m160.928-10.4a7.889,7.889,0,0,1-1.572-.156c-8.271-1.684-16.725-3.03-25.125-4.008a7.853,7.853,0,1,1,1.815-15.6c8.839,1.03,17.735,2.447,26.438,4.216a7.852,7.852,0,0,1-1.556,15.546m-94.2-4.465a7.852,7.852,0,0,1-.823-15.66c8.827-.941,17.815-1.515,26.712-1.7h.167a7.851,7.851,0,1,1,.161,15.7c-8.451.177-16.987.722-25.375,1.618-.282.028-.564.043-.842.043" fill="#ffb6d4"/>
        <path id="Path_2579" data-name="Path 2579" d="M2692.7,2677.73a7.815,7.815,0,0,1-4.475-1.4c-3.323-2.313-6.75-4.592-10.185-6.781a7.85,7.85,0,0,1,8.434-13.243c3.615,2.3,7.218,4.7,10.716,7.13a7.852,7.852,0,0,1-4.49,14.3" fill="#ffb6d4"/>
        <path id="Path_2580" data-name="Path 2580" d="M2820.25,2880.29a7.853,7.853,0,0,1-7.744-6.609c-.64-4-1.374-8.048-2.184-12.038a7.852,7.852,0,1,1,15.39-3.121c.851,4.2,1.625,8.467,2.3,12.675a7.859,7.859,0,0,1-7.762,9.1" fill="#ffb6d4"/>
        <path id="Path_2581" data-name="Path 2581" d="M2518.66,3234.68q-5.418,0-10.878-.184a7.854,7.854,0,0,1,.528-15.7c8.4.282,16.789.224,25.035-.181a7.852,7.852,0,0,1,.769,15.684c-5.1.252-10.3.377-15.454.377m-52.113-4.407a7.961,7.961,0,0,1-1.332-.113c-8.635-1.475-17.3-3.334-25.764-5.524a7.851,7.851,0,0,1,3.935-15.2c8.035,2.079,16.27,3.843,24.475,5.248a7.85,7.85,0,0,1-1.314,15.588m108.594-.852a7.852,7.852,0,0,1-1.443-15.568c8.152-1.533,16.348-3.438,24.365-5.664a7.852,7.852,0,0,1,4.2,15.132c-8.442,2.343-17.075,4.348-25.659,5.965a7.919,7.919,0,0,1-1.462.135m-173.3-17.73a7.842,7.842,0,0,1-2.987-.595c-8.092-3.333-16.14-7.054-23.917-11.056a7.85,7.85,0,0,1,7.185-13.96c7.385,3.8,15.026,7.333,22.712,10.5a7.853,7.853,0,0,1-2.993,15.113m237.625-1.96a7.853,7.853,0,0,1-3.118-15.061c7.61-3.287,15.187-6.95,22.522-10.881a7.85,7.85,0,1,1,7.419,13.837c-7.721,4.141-15.7,8-23.712,11.458a7.817,7.817,0,0,1-3.111.647M2697.9,3176.4a7.851,7.851,0,0,1-4.62-14.2c6.727-4.888,13.327-10.117,19.615-15.54a7.852,7.852,0,1,1,10.256,11.892c-6.619,5.707-13.563,11.208-20.643,16.352a7.811,7.811,0,0,1-4.608,1.5m49.789-45.276a7.853,7.853,0,0,1-5.884-13.047c5.508-6.241,10.812-12.779,15.765-19.44a7.852,7.852,0,0,1,12.6,9.372c-5.214,7.008-10.8,13.893-16.59,20.459a7.839,7.839,0,0,1-5.89,2.656m38.727-55.053a7.853,7.853,0,0,1-6.873-11.633c4.008-7.29,7.748-14.831,11.118-22.419a7.85,7.85,0,0,1,14.349,6.373c-3.549,7.992-7.489,15.936-11.707,23.609a7.851,7.851,0,0,1-6.888,4.07m25.706-62.236a7.862,7.862,0,0,1-7.548-10.026c2.3-7.974,4.282-16.15,5.9-24.308a7.851,7.851,0,1,1,15.4,3.061c-1.706,8.587-3.8,17.2-6.215,25.59a7.857,7.857,0,0,1-7.541,5.683m11.4-66.318c-.161,0-.323-.006-.486-.015a7.851,7.851,0,0,1-7.358-8.314c.373-6.11.562-12.3.562-18.411q0-3.317-.074-6.618a7.85,7.85,0,0,1,7.679-8.02,7.762,7.762,0,0,1,8.02,7.676q.077,3.474.077,6.962c0,6.425-.2,12.942-.592,19.367a7.85,7.85,0,0,1-7.828,7.373" fill="#ffb6d4"/>
        <path id="Path_2582" data-name="Path 2582" d="M2342.66,3179.2a7.823,7.823,0,0,1-4.509-1.426c-3.478-2.444-6.969-5.008-10.378-7.621a7.851,7.851,0,1,1,9.55-12.464c3.238,2.481,6.556,4.917,9.856,7.238a7.85,7.85,0,0,1-4.519,14.273" fill="#ffb6d4"/>
        <path id="Path_2583" data-name="Path 2583" d="M2353.25,3088.14a3.671,3.671,0,0,0,4.109,1.124l41.917-15.415a194.558,194.558,0,0,0,55.5,29.886L2465,3147.18a3.668,3.668,0,0,0,3.2,2.811l53.3,5.4a3.672,3.672,0,0,0,3.7-2.111l18.728-40.513a194.547,194.547,0,0,0,60.362-18.151l37.974,23.508a3.669,3.669,0,0,0,4.251-.277l41.506-33.87a3.672,3.672,0,0,0,1.124-4.11l-15.415-41.916a194.54,194.54,0,0,0,29.886-55.5l43.447-10.223a3.669,3.669,0,0,0,2.81-3.2l5.4-53.3a3.669,3.669,0,0,0-2.111-3.7l-40.514-18.729a194.523,194.523,0,0,0-18.15-60.361l23.5-37.978a3.673,3.673,0,0,0-.277-4.251l-33.87-41.5a3.668,3.668,0,0,0-4.11-1.124l-41.917,15.415a194.525,194.525,0,0,0-55.5-29.886l-10.224-43.448a3.67,3.67,0,0,0-3.2-2.81l-53.3-5.4a3.666,3.666,0,0,0-3.7,2.111l-18.728,40.513a194.553,194.553,0,0,0-60.362,18.15l-37.974-23.507a3.668,3.668,0,0,0-4.252.277l-41.5,33.87a3.67,3.67,0,0,0-1.124,4.109l15.414,41.917a194.549,194.549,0,0,0-29.886,55.5l-43.447,10.224a3.668,3.668,0,0,0-2.809,3.2l-5.4,53.3a3.67,3.67,0,0,0,2.111,3.7l40.513,18.728a194.594,194.594,0,0,0,18.15,60.361l-23.507,37.975a3.67,3.67,0,0,0,.277,4.252Z" fill="#ef5488"/>
        <path id="Path_2584" data-name="Path 2584" d="M2518.52,2972.52a53.87,53.87,0,1,1,7.887-.579,53.868,53.868,0,0,1-7.887.579m.123-95.146a41.817,41.817,0,0,0-6.108.448,41.151,41.151,0,1,0,6.108-.448" fill="#f9a2c3"/>
        <path id="Path_2585" data-name="Path 2585" d="M2519.62,3050.3a134.88,134.88,0,0,1-13.578-.686c-1.443-.145-2.871-.312-4.3-.5a133.367,133.367,0,0,1-20.728-4.474l-.276-.083c-.26-.08-.521-.16-.782-.243-.507-.156-1.013-.319-1.518-.481a3.14,3.14,0,0,1,1.935-5.975,126.221,126.221,0,0,0,164.481-107.264,127.838,127.838,0,0,0,.656-12.963,126.134,126.134,0,1,0-240.365,53.777,3.14,3.14,0,1,1-5.686,2.668,132.482,132.482,0,0,1-11.821-69.535c7.358-72.641,72.461-125.744,145.076-118.39A132.443,132.443,0,0,1,2651.8,2917.618a135.233,135.233,0,0,1-.686,13.577,132.431,132.431,0,0,1-131.49,119.1" fill="#f9a2c3"/>
        <path id="Path_2586" data-name="Path 2586" d="M1946.33,3168.06a4.845,4.845,0,0,1-4.65-3.485c-1.16-3.95-2.216-7.99-3.138-12a4.849,4.849,0,1,1,9.453-2.169c.878,3.827,1.884,7.676,2.99,11.446a4.843,4.843,0,0,1-4.655,6.213" fill="#ffb6d4"/>
        <path id="Path_2587" data-name="Path 2587" d="M1939.15,3131.46a4.848,4.848,0,0,1-4.818-4.357,210.588,210.588,0,0,1-1.085-21.3q0-2.238.048-4.489a5.02,5.02,0,0,1,4.951-4.75,4.852,4.852,0,0,1,4.747,4.947q-.047,2.153-.048,4.291a201.337,201.337,0,0,0,1.033,20.32,4.85,4.85,0,0,1-4.331,5.318c-.168.014-.334.024-.5.024m1.065-50.339a4.936,4.936,0,0,1-.7-.047,4.853,4.853,0,0,1-4.11-5.493,210.155,210.155,0,0,1,5.235-25.274,4.849,4.849,0,1,1,9.357,2.547,201.065,201.065,0,0,0-4.993,24.109,4.849,4.849,0,0,1-4.793,4.158m13.241-48.577a4.9,4.9,0,0,1-1.845-.364,4.852,4.852,0,0,1-2.637-6.332,209.183,209.183,0,0,1,11.294-23.228,4.85,4.85,0,1,1,8.444,4.773,198.968,198.968,0,0,0-10.769,22.148,4.856,4.856,0,0,1-4.487,3m24.779-43.837a4.848,4.848,0,0,1-3.891-7.738,210.522,210.522,0,0,1,16.629-19.752,4.851,4.851,0,0,1,7.018,6.7,200.259,200.259,0,0,0-15.856,18.833,4.841,4.841,0,0,1-3.9,1.961m34.733-36.454a4.85,4.85,0,0,1-3.079-8.6,212.385,212.385,0,0,1,20.917-15.111,4.849,4.849,0,0,1,5.19,8.192,202.133,202.133,0,0,0-19.955,14.419,4.835,4.835,0,0,1-3.073,1.1m42.522-26.917a4.85,4.85,0,0,1-2.074-9.234,208.687,208.687,0,0,1,23.967-9.552,4.85,4.85,0,1,1,3.026,9.216,199.014,199.014,0,0,0-22.849,9.106,4.822,4.822,0,0,1-2.07.464m47.8-15.7a4.849,4.849,0,0,1-.926-9.608,210.383,210.383,0,0,1,25.591-3.381,4.851,4.851,0,0,1,.677,9.679,199.4,199.4,0,0,0-24.407,3.221,4.9,4.9,0,0,1-.935.089m75.288-.615a4.806,4.806,0,0,1-.853-.076,201.052,201.052,0,0,0-21.255-2.6c-1.082-.081-2.145-.147-3.206-.2a4.851,4.851,0,1,1,.5-9.689c1.132.061,2.261.128,3.4.213a210.968,210.968,0,0,1,22.26,2.732,4.849,4.849,0,0,1-.843,9.623" fill="#ffb6d4"/>
        <path id="Path_2588" data-name="Path 2588" d="M2145.54,3315.02a4.85,4.85,0,1,1-.062-9.7,200.346,200.346,0,0,0,24.147-1.776,4.85,4.85,0,1,1,1.3,9.613,211.3,211.3,0,0,1-25.316,1.861Zm-24.781-1.169a4.9,4.9,0,0,1-.525-.029,212.029,212.029,0,0,1-25.04-4.219,4.85,4.85,0,0,1,2.183-9.452,202.654,202.654,0,0,0,23.893,4.029,4.849,4.849,0,0,1-.511,9.671m73.849-5.46a4.849,4.849,0,0,1-1.231-9.538,201.163,201.163,0,0,0,23.009-7.567,4.85,4.85,0,1,1,3.58,9.016,210.533,210.533,0,0,1-24.122,7.928,4.854,4.854,0,0,1-1.236.161m-122.111-5.726a4.867,4.867,0,0,1-1.662-.293,207.854,207.854,0,0,1-23.292-10.149,4.849,4.849,0,1,1,4.409-8.637,199.326,199.326,0,0,0,22.207,9.675,4.849,4.849,0,0,1-1.662,9.4m168.116-12.568a4.85,4.85,0,0,1-2.33-9.106,199.353,199.353,0,0,0,20.51-12.872,4.851,4.851,0,1,1,5.645,7.89,210.857,210.857,0,0,1-21.5,13.5,4.837,4.837,0,0,1-2.321.592m40.276-28.8a4.85,4.85,0,0,1-3.279-8.425,202.522,202.522,0,0,0,16.846-17.408,4.848,4.848,0,1,1,7.364,6.308,212.049,212.049,0,0,1-17.656,18.251,4.836,4.836,0,0,1-3.275,1.274m32.221-37.62a4.8,4.8,0,0,1-2.683-.814,4.85,4.85,0,0,1-1.351-6.725,198.582,198.582,0,0,0,12.176-20.94,4.85,4.85,0,1,1,8.666,4.356,209.712,209.712,0,0,1-12.767,21.964,4.853,4.853,0,0,1-4.042,2.159" fill="#ffb6d4"/>
        <path id="Path_2589" data-name="Path 2589" d="M2028.19,3280.02a4.833,4.833,0,0,1-2.715-.835c-3.437-2.324-6.82-4.762-10.059-7.244a4.85,4.85,0,0,1,5.9-7.7c3.088,2.368,6.317,4.693,9.6,6.914a4.849,4.849,0,0,1-2.723,8.865" fill="#ffb6d4"/>
        <path id="Path_2590" data-name="Path 2590" d="M2032.22,3217.38a2.456,2.456,0,0,0,2.75.752l28.049-10.315a130.164,130.164,0,0,0,37.135,20l6.841,29.072a2.455,2.455,0,0,0,2.142,1.88l35.665,3.613a2.455,2.455,0,0,0,2.477-1.412l12.532-27.11a130.169,130.169,0,0,0,40.391-12.145l25.411,15.73a2.456,2.456,0,0,0,2.845-.186l27.773-22.664a2.454,2.454,0,0,0,.752-2.75l-10.315-28.049a130.173,130.173,0,0,0,20-37.135l29.072-6.841a2.456,2.456,0,0,0,1.881-2.142l3.612-35.666a2.454,2.454,0,0,0-1.412-2.476L2272.71,3087a130.184,130.184,0,0,0-12.145-40.391l15.73-25.411a2.457,2.457,0,0,0-.185-2.845l-22.665-27.773a2.453,2.453,0,0,0-2.749-.752l-28.05,10.315a130.15,130.15,0,0,0-37.135-20l-6.841-29.073a2.455,2.455,0,0,0-2.142-1.88l-35.666-3.613a2.456,2.456,0,0,0-2.476,1.413l-12.531,27.11a130.153,130.153,0,0,0-40.392,12.145l-25.411-15.73a2.455,2.455,0,0,0-2.845.185l-27.773,22.665a2.456,2.456,0,0,0-.752,2.75L2039,3024.164a130.17,130.17,0,0,0-20,37.136l-29.073,6.841a2.452,2.452,0,0,0-1.879,2.142l-3.613,35.665a2.455,2.455,0,0,0,1.412,2.476l27.11,12.533a130.189,130.189,0,0,0,12.145,40.391l-15.73,25.411a2.457,2.457,0,0,0,.185,2.845Z" fill="#ef5488"/>
        <path id="Path_2591" data-name="Path 2591" d="M2142.75,3140.67a36.756,36.756,0,1,1,5.423-.4,37.432,37.432,0,0,1-5.423.4m.093-63.669a27.308,27.308,0,0,0-3.952.289,26.982,26.982,0,1,0,3.952-.289" fill="#f9a2c3"/>
        <path id="Path_2592" data-name="Path 2592" d="M2143.45,3194.8q-4.6,0-9.277-.469a91.881,91.881,0,0,1-18.234-3.736l-.8-.256a4.849,4.849,0,0,1,2.988-9.225,81.877,81.877,0,0,0,17.015,3.566h0c.317.033.636.061.952.09a80.851,80.851,0,0,0,39.494-6.256,82.086,82.086,0,0,0,18.833-11.341l.142-.114c.145-.119.289-.232.431-.35a81.123,81.123,0,0,0,29.611-55.032,82.613,82.613,0,0,0,.427-8.391,81.656,81.656,0,1,0-155.607,34.81,4.849,4.849,0,0,1-8.78,4.12,91.356,91.356,0,1,1,174.086-38.948,93.1,93.1,0,0,1-.474,9.384,91.481,91.481,0,0,1-90.813,82.149" fill="#f9a2c3"/>
        <g id="Group_1233" data-name="Group 1233" opacity="0.69">
          <g id="Group_1232" data-name="Group 1232">
            <g id="Group_1231" data-name="Group 1231" clip-path="url(#clip-path-43)">
              <g id="Group_1230" data-name="Group 1230">
                <g id="Group_1229" data-name="Group 1229" clip-path="url(#clip-path-44)">
                  <rect id="Rectangle_355" data-name="Rectangle 355" width="166.967" height="176.184" transform="translate(1396.311 2249.913) rotate(-65.03)" fill="url(#linear-gradient-26)"/>
                </g>
              </g>
              <path id="Path_2596" data-name="Path 2596" d="M1534.79,2284.44c-46.233-21.529-64.987-79.52-41.835-129.237s79.6-72.687,125.839-51.158,64.987,79.52,41.835,129.237c-23.23,49.681-79.685,72.651-125.839,51.158m79.291-170.275c-41.008-19.1-91.135,1.25-111.706,45.425s-3.959,95.6,37.128,114.73c41.008,19.1,91.135-1.249,111.7-45.425,20.492-44.212,3.881-95.634-37.127-114.73" transform="translate(-66.583 19.032)" fill="#cc6d94"/>
            </g>
          </g>
        </g>
      </g>
    </g>
  </g>
</svg>
